<?xml version="1.0" encoding="UTF-8"?>
<svg id="Lamp" xmlns="http://www.w3.org/2000/svg" xmlns:xlink="http://www.w3.org/1999/xlink" viewBox="0 0 500 500">
  <defs>
    <style>
      .cls-1 {
        filter: url(#drop-shadow-17);
      }

      .cls-1, .cls-2, .cls-3, .cls-4, .cls-5, .cls-6, .cls-7, .cls-8, .cls-9, .cls-10, .cls-11, .cls-12, .cls-13, .cls-14, .cls-15, .cls-16, .cls-17, .cls-18, .cls-19, .cls-20, .cls-21, .cls-22 {
        stroke-miterlimit: 10;
      }

      .cls-1, .cls-2, .cls-3, .cls-4, .cls-5, .cls-6, .cls-7, .cls-8, .cls-9, .cls-10, .cls-11, .cls-12, .cls-13, .cls-14, .cls-15, .cls-16, .cls-17, .cls-18, .cls-19, .cls-20, .cls-22 {
        stroke: #008bbe;
      }

      .cls-1, .cls-2, .cls-3, .cls-4, .cls-5, .cls-6, .cls-7, .cls-8, .cls-9, .cls-10, .cls-12, .cls-13, .cls-14, .cls-15, .cls-16, .cls-18, .cls-19, .cls-20, .cls-22 {
        stroke-width: 2px;
      }

      .cls-1, .cls-4, .cls-6, .cls-8, .cls-13, .cls-15, .cls-16, .cls-18, .cls-20 {
        fill: #ebebeb;
      }

      .cls-23 {
        opacity: .7;
      }

      .cls-24, .cls-25, .cls-26, .cls-27, .cls-28, .cls-29, .cls-30, .cls-31, .cls-32, .cls-33, .cls-34, .cls-35 {
        stroke-width: 0px;
      }

      .cls-24, .cls-25, .cls-10 {
        opacity: .4;
      }

      .cls-24, .cls-27, .cls-7, .cls-28, .cls-10, .cls-14, .cls-30, .cls-31, .cls-17, .cls-32, .cls-35, .cls-22 {
        fill: #fff;
      }

      .cls-2 {
        fill: #fafafa;
        opacity: .95;
      }

      .cls-3, .cls-11, .cls-33 {
        fill: #008bbe;
      }

      .cls-4 {
        filter: url(#drop-shadow-14);
      }

      .cls-36, .cls-27, .cls-17, .cls-34, .cls-22 {
        opacity: .5;
      }

      .cls-37 {
        filter: url(#drop-shadow-21);
      }

      .cls-38, .cls-31 {
        opacity: .6;
      }

      .cls-39, .cls-29, .cls-35 {
        opacity: .2;
      }

      .cls-26, .cls-7, .cls-40 {
        opacity: .3;
      }

      .cls-5 {
        fill: #f0f0f0;
      }

      .cls-6 {
        filter: url(#drop-shadow-19);
      }

      .cls-28 {
        opacity: .8;
      }

      .cls-8 {
        filter: url(#drop-shadow-16);
      }

      .cls-9 {
        fill: #e0e0e0;
      }

      .cls-11, .cls-17 {
        stroke-width: 4px;
      }

      .cls-12 {
        fill: #f5f5f5;
        filter: url(#drop-shadow-20);
      }

      .cls-13 {
        filter: url(#drop-shadow-15);
      }

      .cls-41 {
        filter: url(#drop-shadow-22);
      }

      .cls-16 {
        filter: url(#drop-shadow-12);
      }

      .cls-18 {
        filter: url(#drop-shadow-30);
      }

      .cls-32 {
        opacity: .1;
      }

      .cls-42 {
        filter: url(#drop-shadow-18);
      }

      .cls-19 {
        fill: #e6e6e6;
      }

      .cls-20 {
        filter: url(#drop-shadow-13);
      }

      .cls-21 {
        fill: none;
        stroke: #122a28;
      }
    </style>
    <filter id="drop-shadow-12" filterUnits="userSpaceOnUse">
      <feOffset dx="7" dy="7"/>
      <feGaussianBlur result="blur" stdDeviation="5"/>
      <feFlood flood-color="#000" flood-opacity=".1"/>
      <feComposite in2="blur" operator="in"/>
      <feComposite in="SourceGraphic"/>
    </filter>
    <filter id="drop-shadow-13" filterUnits="userSpaceOnUse">
      <feOffset dx="7" dy="7"/>
      <feGaussianBlur result="blur-2" stdDeviation="5"/>
      <feFlood flood-color="#000" flood-opacity=".1"/>
      <feComposite in2="blur-2" operator="in"/>
      <feComposite in="SourceGraphic"/>
    </filter>
    <filter id="drop-shadow-14" filterUnits="userSpaceOnUse">
      <feOffset dx="7" dy="7"/>
      <feGaussianBlur result="blur-3" stdDeviation="5"/>
      <feFlood flood-color="#000" flood-opacity=".1"/>
      <feComposite in2="blur-3" operator="in"/>
      <feComposite in="SourceGraphic"/>
    </filter>
    <filter id="drop-shadow-15" filterUnits="userSpaceOnUse">
      <feOffset dx="7" dy="7"/>
      <feGaussianBlur result="blur-4" stdDeviation="5"/>
      <feFlood flood-color="#000" flood-opacity=".1"/>
      <feComposite in2="blur-4" operator="in"/>
      <feComposite in="SourceGraphic"/>
    </filter>
    <filter id="drop-shadow-16" filterUnits="userSpaceOnUse">
      <feOffset dx="7" dy="7"/>
      <feGaussianBlur result="blur-5" stdDeviation="5"/>
      <feFlood flood-color="#000" flood-opacity=".1"/>
      <feComposite in2="blur-5" operator="in"/>
      <feComposite in="SourceGraphic"/>
    </filter>
    <filter id="drop-shadow-17" filterUnits="userSpaceOnUse">
      <feOffset dx="7" dy="7"/>
      <feGaussianBlur result="blur-6" stdDeviation="5"/>
      <feFlood flood-color="#000" flood-opacity=".1"/>
      <feComposite in2="blur-6" operator="in"/>
      <feComposite in="SourceGraphic"/>
    </filter>
    <filter id="drop-shadow-18" filterUnits="userSpaceOnUse">
      <feOffset dx="7" dy="7"/>
      <feGaussianBlur result="blur-7" stdDeviation="5"/>
      <feFlood flood-color="#000" flood-opacity=".1"/>
      <feComposite in2="blur-7" operator="in"/>
      <feComposite in="SourceGraphic"/>
    </filter>
    <filter id="drop-shadow-19" filterUnits="userSpaceOnUse">
      <feOffset dx="7" dy="7"/>
      <feGaussianBlur result="blur-8" stdDeviation="5"/>
      <feFlood flood-color="#000" flood-opacity=".1"/>
      <feComposite in2="blur-8" operator="in"/>
      <feComposite in="SourceGraphic"/>
    </filter>
    <filter id="drop-shadow-20" filterUnits="userSpaceOnUse">
      <feOffset dx="7" dy="7"/>
      <feGaussianBlur result="blur-9" stdDeviation="5"/>
      <feFlood flood-color="#000" flood-opacity=".1"/>
      <feComposite in2="blur-9" operator="in"/>
      <feComposite in="SourceGraphic"/>
    </filter>
    <filter id="drop-shadow-21" filterUnits="userSpaceOnUse">
      <feOffset dx="7" dy="7"/>
      <feGaussianBlur result="blur-10" stdDeviation="5"/>
      <feFlood flood-color="#000" flood-opacity=".1"/>
      <feComposite in2="blur-10" operator="in"/>
      <feComposite in="SourceGraphic"/>
    </filter>
    <filter id="drop-shadow-22" filterUnits="userSpaceOnUse">
      <feOffset dx="7" dy="7"/>
      <feGaussianBlur result="blur-11" stdDeviation="5"/>
      <feFlood flood-color="#000" flood-opacity=".1"/>
      <feComposite in2="blur-11" operator="in"/>
      <feComposite in="SourceGraphic"/>
    </filter>
    <filter id="drop-shadow-30" filterUnits="userSpaceOnUse">
      <feOffset dx="7" dy="7"/>
      <feGaussianBlur result="blur-12" stdDeviation="5"/>
      <feFlood flood-color="#000" flood-opacity=".1"/>
      <feComposite in2="blur-12" operator="in"/>
      <feComposite in="SourceGraphic"/>
    </filter>
  </defs>
  <rect class="cls-16" x="416.78" y="398.49" width="33.12" height=".25"/>
  <rect class="cls-20" x="322.53" y="401.21" width="8.69" height=".25"/>
  <rect class="cls-4" x="396.59" y="389.21" width="19.19" height=".25"/>
  <rect class="cls-13" x="52.46" y="390.89" width="43.19" height=".25"/>
  <rect class="cls-8" x="104.56" y="390.89" width="6.33" height=".25"/>
  <rect class="cls-1" x="131.47" y="395.11" width="93.68" height=".25"/>
  <g class="cls-42">
    <g>
      <rect class="cls-9" x="63.13" y="235.68" width="10.33" height="4.11" transform="translate(-107.88 64.11) rotate(-29.39)"/>
      <rect class="cls-9" x="87.03" y="285.07" width="6.62" height="11.33"/>
      <path class="cls-15" d="m95.88,286.49l-4.81,2.92c-2.36,1.43-5.43.59-6.73-1.85l-23.34-43.84c-1.2-2.25-.43-5.04,1.74-6.36h0c2.18-1.32,5-.72,6.45,1.38l28.15,40.92c1.56,2.27.89,5.39-1.46,6.82Z"/>
      <path class="cls-15" d="m70.18,239.62l-1.74-4.33c-.44-1.1.12-2.35,1.24-2.74l48.97-17.17c1.05-.37,2.2.16,2.62,1.19h0c.41,1.03-.06,2.21-1.07,2.67l-47.23,21.49c-1.08.49-2.35-.02-2.79-1.12Z"/>
      <path class="cls-19" d="m121.37,218.32h0c-1.93-.5-3.25-2.27-3.18-4.26l.21-5.96.57-2.03,3.34-5.14c.51-.79,1.59-.96,2.32-.36h0l-2.59,6.87-.34,1.33-.17,5.41c-.01.42.27.79.67.89h0c.41.1.83-.09,1.02-.46l2.47-4.82.34-1.33,1.05-7.26h0c.92-.17,1.78.51,1.84,1.44l.41,6.48-.57,2.03-2.56,4.99c-.9,1.77-2.91,2.67-4.84,2.18Z"/>
      <g class="cls-23">
        <path class="cls-14" d="m91.12,277.76c-.6-.34-1.3-.53-2.04-.53-2.31,0-4.19,1.88-4.19,4.19,0,.74.19,1.44.53,2.04l5.7-5.7Z"/>
        <path class="cls-14" d="m87.03,285.07c.6.34,1.3.53,2.04.53,2.31,0,4.19-1.88,4.19-4.19,0-.74-.19-1.44-.53-2.04l-5.7,5.7Z"/>
      </g>
      <g class="cls-23">
        <path class="cls-14" d="m75.48,233.31c-.32-.27-.7-.46-1.14-.55-1.36-.27-2.68.62-2.95,1.99-.09.44-.05.87.08,1.26l4.01-2.7Z"/>
        <path class="cls-14" d="m72.23,237.15c.32.27.7.46,1.14.55,1.36.27,2.68-.62,2.95-1.99.09-.44.05-.87-.08-1.26l-4.01,2.7Z"/>
      </g>
    </g>
    <g>
      <g>
        <rect class="cls-9" x="83.37" y="357.42" width="13.97" height="7.69"/>
        <path class="cls-5" d="m126.07,382.65H54.64l1.65-7.94c1.48-7.14,7.77-12.25,15.06-12.25h38.01c7.29,0,13.58,5.12,15.06,12.25l1.65,7.94Z"/>
        <path class="cls-15" d="m93.5,359.09h-7.57c-6.1,0-10.94-4.04-10.58-8.83l3.78-50.39c.33-4.41,4.97-7.85,10.58-7.85h0c5.61,0,10.25,3.44,10.58,7.85l3.78,50.39c.36,4.79-4.48,8.83-10.58,8.83Z"/>
        <g class="cls-23">
          <path class="cls-14" d="m92.56,341.8c-.89-.5-1.91-.78-3-.78-3.4,0-6.15,2.76-6.15,6.15,0,1.09.29,2.11.78,3l8.37-8.37Z"/>
          <path class="cls-14" d="m86.56,352.54c.89.5,1.91.78,3,.78,3.4,0,6.15-2.76,6.15-6.15,0-1.09-.29-2.11-.78-3l-8.37,8.37Z"/>
        </g>
      </g>
      <g>
        <circle class="cls-5" cx="128.13" cy="180.49" r="19.55"/>
        <g>
          <path class="cls-14" d="m128.19,200.48c-11.02,0-19.99-8.97-19.99-19.99s8.97-19.99,19.99-19.99v.88c-10.54,0-19.11,8.57-19.11,19.11s8.57,19.11,19.11,19.11v.88Z"/>
          <g>
            <path class="cls-14" d="m128.19,200.48v-.88c10.54,0,19.11-8.57,19.11-19.11s-8.57-19.11-19.11-19.11v-.88c11.02,0,19.99,8.97,19.99,19.99s-8.97,19.99-19.99,19.99Z"/>
            <g>
              <path class="cls-14" d="m138.4,180.49h-.88c0-6.48-3.29-15.15-9.57-19.18l.47-.74c6.55,4.2,9.98,13.2,9.98,19.92Z"/>
              <path class="cls-14" d="m128.42,199.81l-.47-.74c6.28-4.03,9.57-12.7,9.57-19.18h.88c0,6.72-3.43,15.72-9.98,19.92Z"/>
            </g>
            <g>
              <path class="cls-14" d="m118.85,180.49h-.88c0-6.72,3.43-15.72,9.98-19.92l.48.74c-6.28,4.03-9.57,12.7-9.57,19.18Z"/>
              <path class="cls-14" d="m127.95,199.81c-6.55-4.2-9.98-13.2-9.98-19.92h.88c0,6.48,3.29,15.15,9.57,19.18l-.48.74Z"/>
            </g>
            <rect class="cls-14" x="127.75" y="160.94" width=".88" height="39.1"/>
          </g>
          <g>
            <rect class="cls-14" x="111.64" y="169.63" width="33.09" height=".88"/>
            <rect class="cls-14" x="108.65" y="180.38" width="39.08" height=".88"/>
            <rect class="cls-14" x="112.08" y="191.12" width="32.22" height=".88"/>
          </g>
        </g>
      </g>
    </g>
  </g>
  <rect class="cls-6" y="382.4" width="500" height=".25"/>
  <ellipse id="_Path_" data-name="&amp;lt;Path&amp;gt;" class="cls-12" cx="250" cy="415.69" rx="193.89" ry="11.32"/>
  <g class="cls-37">
    <g>
      <path class="cls-33" d="m137,89.86c-.94,3.1-16.23,1.2-34.15-4.25-17.92-5.45-31.68-12.38-30.74-15.48.94-3.1,16.23-1.2,34.15,4.25,17.92,5.45,31.68,12.38,30.74,15.48Z"/>
      <path class="cls-28" d="m137,89.86c-.94,3.1-16.23,1.2-34.15-4.25-17.92-5.45-31.68-12.38-30.74-15.48.94-3.1,16.23-1.2,34.15,4.25,17.92,5.45,31.68,12.38,30.74,15.48Z"/>
    </g>
    <g>
      <path class="cls-21" d="m91.76,85.62l-4.3,10.88c-.39.98.69,1.89,1.59,1.35h0c.21-.12.37-.31.46-.53l4.62-11.43-2.37-.27Z"/>
      <path class="cls-21" d="m112.16,91.82l-2.48,11.44c-.22,1.03-1.62,1.19-2.07.24h0c-.1-.22-.13-.46-.08-.7l2.52-12.07,2.12,1.09Z"/>
      <g>
        <g>
          <polygon class="cls-33" points="91.9 87.68 90.03 87.11 91.13 83.47 93.61 84.22 91.9 87.68"/>
          <polygon class="cls-33" points="91.9 87.68 94.33 87.21 95.89 83.96 93.61 84.22 91.9 87.68"/>
          <polygon class="cls-32" points="91.9 87.68 90.03 87.11 91.13 83.47 93.61 84.22 91.9 87.68"/>
        </g>
        <g>
          <polygon class="cls-33" points="110.93 93.46 112.8 94.03 113.91 90.39 111.43 89.64 110.93 93.46"/>
          <polygon class="cls-33" points="110.93 93.46 109.16 91.72 109.68 88.15 111.43 89.64 110.93 93.46"/>
          <polygon class="cls-32" points="110.93 93.46 112.8 94.03 113.91 90.39 111.43 89.64 110.93 93.46"/>
        </g>
        <g>
          <g>
            <g>
              <path class="cls-33" d="m89.63,74.66c-.09-.02-4.55-.99-6.59-1.44-.07-.02-.1.09-.03.11l4.99,1.69,1.64-.37Z"/>
              <g class="cls-40">
                <path class="cls-30" d="m89.63,74.66c-.09-.02-4.55-.99-6.59-1.44-.07-.02-.1.09-.03.11l4.99,1.69,1.64-.37Z"/>
              </g>
            </g>
            <g>
              <path class="cls-33" d="m89.33,77.29l-2.58-.78.25-.81c.22-.71.97-1.11,1.68-.9h0c.71.22,1.11.97.9,1.68l-.25.81Z"/>
              <path class="cls-33" d="m89.64,74.11l-.19.64-1.27-.39.19-.64c.11-.35.48-.54.82-.44.35.11.55.48.45.83Z"/>
              <path class="cls-24" d="m89.33,77.29l-2.58-.78.25-.81c.22-.71.97-1.11,1.68-.9h0c.71.22,1.11.97.9,1.68l-.25.81Z"/>
            </g>
            <path class="cls-33" d="m93.06,75.5l1.26.57c.23.1.2.43-.05.49h0c-.67.16-1.37.16-2.04,0l-1.61-.39s-.05-.02-.08-.03l-1.62-1.01-.62-.64,1.83.21c1.01.12,2,.39,2.93.81Z"/>
            <path class="cls-31" d="m93.06,75.5l1.26.57c.23.1.2.43-.05.49h0c-.67.16-1.37.16-2.04,0l-1.61-.39s-.05-.02-.08-.03l-1.62-1.01-.62-.64,1.83.21c1.01.12,2,.39,2.93.81Z"/>
            <g>
              <path class="cls-33" d="m96.68,80.39l-1.2,2.09-8.77-4.26c-.47-.14-.73-.64-.59-1.11.14-.47.64-.74,1.11-.6l1.84.56c.32.1.55.36.61.66h0s6.99,2.66,6.99,2.66Z"/>
              <path class="cls-24" d="m96.68,80.39l-1.2,2.09-8.77-4.26c-.47-.14-.73-.64-.59-1.11.14-.47.64-.74,1.11-.6l1.84.56c.32.1.55.36.61.66h0s6.99,2.66,6.99,2.66Z"/>
            </g>
          </g>
          <g>
            <g>
              <path class="cls-33" d="m120.09,83.91c.09.03,4.34,1.71,6.28,2.47.07.03.03.13-.04.11l-5.09-1.37-1.16-1.22Z"/>
              <g class="cls-40">
                <path class="cls-30" d="m120.09,83.91c.09.03,4.34,1.71,6.28,2.47.07.03.03.13-.04.11l-5.09-1.37-1.16-1.22Z"/>
              </g>
            </g>
            <g>
              <path class="cls-33" d="m118.87,86.27l2.58.78.25-.81c.22-.71-.19-1.47-.9-1.68h0c-.71-.22-1.47.19-1.68.9l-.25.81Z"/>
              <path class="cls-33" d="m120.39,83.45l-.19.64,1.27.39.19-.64c.11-.35-.09-.72-.44-.82-.35-.11-.72.09-.83.44Z"/>
              <path class="cls-24" d="m118.87,86.27l2.58.78.25-.81c.22-.71-.19-1.47-.9-1.68h0c-.71-.22-1.47.19-1.68.9l-.25.81Z"/>
            </g>
            <path class="cls-33" d="m116.77,82.71l-1.36-.23c-.25-.04-.4.25-.24.43h0c.47.51,1.05.9,1.7,1.14l1.56.57s.05.02.08.02l1.91.06.87-.18-1.63-.84c-.91-.47-1.88-.79-2.89-.96Z"/>
            <path class="cls-31" d="m116.77,82.71l-1.36-.23c-.25-.04-.4.25-.24.43h0c.47.51,1.05.9,1.7,1.14l1.56.57s.05.02.08.02l1.91.06.87-.18-1.63-.84c-.91-.47-1.88-.79-2.89-.96Z"/>
            <g>
              <path class="cls-33" d="m111.04,84.75l-.17,2.4,9.66,1.34c.47.14.97-.12,1.11-.59.14-.47-.12-.97-.59-1.11l-1.84-.56c-.32-.1-.65,0-.87.21h0s-7.29-1.69-7.29-1.69Z"/>
              <path class="cls-24" d="m111.04,84.75l-.17,2.4,9.66,1.34c.47.14.97-.12,1.11-.59.14-.47-.12-.97-.59-1.11l-1.84-.56c-.32-.1-.65,0-.87.21h0s-7.29-1.69-7.29-1.69Z"/>
            </g>
          </g>
          <g>
            <g>
              <g>
                <path class="cls-33" d="m82.07,71.43c.18.02,8.77,1.65,12.7,2.39.14.03.11.23-.03.22l-10.06-.74-2.61-1.87Z"/>
                <path class="cls-31" d="m82.07,71.43c.18.02,8.77,1.65,12.7,2.39.14.03.11.23-.03.22l-10.06-.74-2.61-1.87Z"/>
              </g>
              <path class="cls-33" d="m85.01,72.23c-.18.6-.81.93-1.41.75-.6-.18-.93-.81-.75-1.41.18-.6.81-.93,1.41-.75.6.18.93.81.75,1.41Z"/>
              <rect class="cls-33" x="82.63" y="71.87" width="2.26" height="1.13" transform="translate(24.68 -21.23) rotate(16.91)"/>
            </g>
            <rect class="cls-33" x="82.86" y="72.97" width="1.31" height=".59" transform="translate(24.91 -21.12) rotate(16.91)"/>
            <g>
              <path class="cls-33" d="m75.39,70.37l-2.64.06c-.48.01-.67.62-.29.9h0c1.06.79,2.3,1.31,3.6,1.52l3.13.51c.05,0,.11,0,.16,0l3.61-.57,1.57-.66-3.38-.99c-1.87-.55-3.82-.81-5.78-.77Z"/>
              <g class="cls-38">
                <path class="cls-30" d="m75.39,70.37l-2.64.06c-.48.01-.67.62-.29.9h0c1.06.79,2.3,1.31,3.6,1.52l3.13.51c.05,0,.11,0,.16,0l3.61-.57,1.57-.66-3.38-.99c-1.87-.55-3.82-.81-5.78-.77Z"/>
              </g>
            </g>
            <g>
              <path class="cls-33" d="m82.56,73.32h.56c1.11,0,2.02.9,2.02,2.02v1.72h-4.6v-1.72c0-1.11.9-2.02,2.02-2.02Z" transform="translate(25.44 -20.84) rotate(16.91)"/>
              <path class="cls-35" d="m82.56,73.32h.56c1.11,0,2.02.9,2.02,2.02v1.72h-4.6v-1.72c0-1.11.9-2.02,2.02-2.02Z" transform="translate(25.44 -20.84) rotate(16.91)"/>
            </g>
          </g>
          <g>
            <path class="cls-33" d="m103.78,93.55l-6.22-1.89.46-.5c.37-.4.94-.55,1.46-.39l3.19.97c.52.16.91.6,1,1.14l.11.67Z"/>
            <path class="cls-32" d="m103.78,93.55l-6.22-1.89.46-.5c.37-.4.94-.55,1.46-.39l3.19.97c.52.16.91.6,1,1.14l.11.67Z"/>
          </g>
          <rect class="cls-26" x="100.65" y="87.92" width="1.64" height="3.8" transform="translate(30.5 -25.62) rotate(16.9)"/>
          <path class="cls-33" d="m99.19,90.75h2c.74,0,1.34.6,1.34,1.34v4.18c0,.74-.6,1.34-1.34,1.34h-2c-.74,0-1.34-.6-1.34-1.34v-4.18c0-.74.6-1.34,1.34-1.34Z" transform="translate(-19.05 162.66) rotate(-73.09)"/>
          <path class="cls-35" d="m99.19,90.75h2c.74,0,1.34.6,1.34,1.34v4.18c0,.74-.6,1.34-1.34,1.34h-2c-.74,0-1.34-.6-1.34-1.34v-4.18c0-.74.6-1.34,1.34-1.34Z" transform="translate(-19.05 162.66) rotate(-73.09)"/>
          <g>
            <path class="cls-33" d="m101.86,95.95l-4.13-1.25.11-.38c.35-1.14,1.55-1.78,2.69-1.44h0c1.14.35,1.78,1.55,1.44,2.69l-.11.38Z"/>
            <g>
              <path class="cls-33" d="m101.92,95.75c-.31,1.03-1.47,1.51-2.61,1.17-1.14-.35-1.83-1.39-1.52-2.42.31-1.03,1.49-1.58,2.63-1.23,1.14.35,1.81,1.46,1.5,2.48Z"/>
              <path class="cls-26" d="m101.92,95.75c-.31,1.03-1.47,1.51-2.61,1.17-1.14-.35-1.83-1.39-1.52-2.42.31-1.03,1.49-1.58,2.63-1.23,1.14.35,1.81,1.46,1.5,2.48Z"/>
            </g>
            <g>
              <g>
                <path class="cls-33" d="m101.4,95.78c-.23.74-1.14,1.12-2.03.85-.9-.27-1.44-1.1-1.22-1.84s1.14-1.12,2.03-.85c.9.27,1.44,1.1,1.22,1.84Z"/>
                <path class="cls-29" d="m101.4,95.78c-.23.74-1.14,1.12-2.03.85-.9-.27-1.44-1.1-1.22-1.84s1.14-1.12,2.03-.85c.9.27,1.44,1.1,1.22,1.84Z"/>
              </g>
              <g>
                <path class="cls-33" d="m100.99,95.66c-.17.56-.85.84-1.52.64s-1.08-.82-.91-1.38c.17-.56.85-.84,1.52-.64.67.2,1.08.82.91,1.38Z"/>
                <path class="cls-26" d="m100.99,95.66c-.17.56-.85.84-1.52.64s-1.08-.82-.91-1.38c.17-.56.85-.84,1.52-.64.67.2,1.08.82.91,1.38Z"/>
              </g>
              <g>
                <path class="cls-33" d="m100.53,95.43c-.1.33-.51.51-.92.38-.4-.12-.65-.49-.55-.83s.51-.51.92-.38c.4.12.65.49.55.83Z"/>
                <path class="cls-25" d="m100.53,95.43c-.1.33-.51.51-.92.38-.4-.12-.65-.49-.55-.83s.51-.51.92-.38c.4.12.65.49.55.83Z"/>
              </g>
              <path class="cls-33" d="m100.41,95.25c-.08.26-.4.39-.71.3-.31-.1-.5-.38-.42-.64s.4-.39.71-.3c.31.1.5.38.42.64Z"/>
              <g>
                <path class="cls-33" d="m100.17,95.09c-.04.12-.2.17-.38.12-.17-.05-.28-.19-.25-.31.04-.12.2-.17.38-.12.17.05.28.19.25.31Z"/>
                <path class="cls-35" d="m100.17,95.09c-.04.12-.2.17-.38.12-.17-.05-.28-.19-.25-.31.04-.12.2-.17.38-.12.17.05.28.19.25.31Z"/>
              </g>
            </g>
          </g>
          <path class="cls-33" d="m102.53,89.68l-1.87-.57c-.62-.19-.97-.85-.78-1.47h0c.19-.62.85-.97,1.47-.78l1.87.57c.62.19.97.85.79,1.47h0c-.19.62-.85.97-1.47.78Z"/>
          <g>
            <path class="cls-33" d="m126.43,90.07l-3.13-.95c-.33-.1-.67-.08-.97.03l-37.51-11.4c-.19-.26-.46-.47-.79-.57l-3.13-.95c-.8-.24-1.65.21-1.9,1.01h0c-.24.8.21,1.65,1.01,1.9l2.3.7h0l12.93,5.36.62,2.51c.32,1.31,1.31,2.36,2.61,2.75l5.45,1.66c1.29.39,2.7.08,3.7-.84l1.91-1.74,13.73,2.74h0l2.3.7c.8.24,1.65-.21,1.9-1.01h0c.24-.8-.21-1.65-1.01-1.9Z"/>
            <path class="cls-35" d="m126.43,90.07l-3.13-.95c-.33-.1-.67-.08-.97.03l-37.51-11.4c-.19-.26-.46-.47-.79-.57l-3.13-.95c-.8-.24-1.65.21-1.9,1.01h0c-.24.8.21,1.65,1.01,1.9l2.3.7h0l12.93,5.36.62,2.51c.32,1.31,1.31,2.36,2.61,2.75l5.45,1.66c1.29.39,2.7.08,3.7-.84l1.91-1.74,13.73,2.74h0l2.3.7c.8.24,1.65-.21,1.9-1.01h0c.24-.8-.21-1.65-1.01-1.9Z"/>
          </g>
          <g>
            <path class="cls-33" d="m111.64,85.9c-.46,1.53-4.5,1.65-9.01.28-4.51-1.37-7.8-3.72-7.33-5.25.46-1.53,4.5-1.65,9.01-.28,4.51,1.37,7.8,3.72,7.33,5.25Z"/>
            <path class="cls-24" d="m111.64,85.9c-.46,1.53-4.5,1.65-9.01.28-4.51-1.37-7.8-3.72-7.33-5.25.46-1.53,4.5-1.65,9.01-.28,4.51,1.37,7.8,3.72,7.33,5.25Z"/>
          </g>
          <g>
            <g>
              <g>
                <path class="cls-33" d="m128.1,85.43c-.16-.08-8.2-3.51-11.88-5.08-.13-.05-.22.13-.1.2l8.77,4.98,3.21-.1Z"/>
                <path class="cls-31" d="m128.1,85.43c-.16-.08-8.2-3.51-11.88-5.08-.13-.05-.22.13-.1.2l8.77,4.98,3.21-.1Z"/>
              </g>
              <path class="cls-33" d="m125.21,84.44c-.18.6.16,1.23.75,1.41.6.18,1.23-.16,1.41-.75.18-.6-.16-1.23-.75-1.41-.6-.18-1.23.16-1.41.75Z"/>
              <rect class="cls-33" x="125" y="84.75" width="2.26" height="1.13" transform="translate(221.99 203.62) rotate(-163.09)"/>
            </g>
            <rect class="cls-33" x="125.22" y="85.84" width="1.31" height=".59" transform="translate(221.26 205.16) rotate(-163.09)"/>
            <g>
              <path class="cls-33" d="m134.24,88.25l2.16,1.52c.39.27.21.89-.26.91h0c-1.32.06-2.64-.19-3.84-.74l-2.89-1.32s-.09-.05-.13-.09l-2.68-2.49-.94-1.42,3.36,1.05c1.86.58,3.63,1.45,5.23,2.58Z"/>
              <g class="cls-38">
                <path class="cls-30" d="m134.24,88.25l2.16,1.52c.39.27.21.89-.26.91h0c-1.32.06-2.64-.19-3.84-.74l-2.89-1.32s-.09-.05-.13-.09l-2.68-2.49-.94-1.42,3.36,1.05c1.86.58,3.63,1.45,5.23,2.58Z"/>
              </g>
            </g>
            <g>
              <path class="cls-33" d="m122.62,89.24l4.4,1.34.42-1.38c.37-1.21-.32-2.5-1.53-2.87h0c-1.21-.37-2.5.32-2.87,1.53l-.42,1.38Z"/>
              <path class="cls-35" d="m122.62,89.24l4.4,1.34.42-1.38c.37-1.21-.32-2.5-1.53-2.87h0c-1.21-.37-2.5.32-2.87,1.53l-.42,1.38Z"/>
            </g>
          </g>
        </g>
      </g>
    </g>
  </g>
  <g class="cls-41">
    <g>
      <polygon class="cls-33" points="380.94 215.86 366.22 244.35 363.78 243.09 378.51 214.6 380.94 215.86"/>
      <polyline class="cls-34" points="378.51 214.6 380.94 215.86 366.22 244.35 363.78 243.09"/>
      <g>
        <path class="cls-33" d="m376.13,229.32l-7.24,13.97c-.55,1.06-1.86,1.48-2.92.93l-1.92-.99c-1.06-.55-1.48-1.86-.93-2.92l7.24-13.97c.61-1.19,2.07-1.65,3.26-1.03l1.48.77c1.19.61,1.65,2.07,1.03,3.26Z"/>
        <path class="cls-27" d="m376.13,229.32l-7.24,13.97c-.55,1.06-1.86,1.48-2.92.93l-1.92-.99c-1.06-.55-1.48-1.86-.93-2.92l7.24-13.97c.61-1.19,2.07-1.65,3.26-1.03l1.48.77c1.19.61,1.65,2.07,1.03,3.26Z"/>
      </g>
      <path class="cls-33" d="m391.65,218.87c-.15.05-.3.1-.45.15-4.29,1.36-8.86.97-12.86-1.1-8.26-4.28-11.5-14.47-7.22-22.72,2.07-4,5.58-6.95,9.87-8.31,4.29-1.36,8.86-.97,12.86,1.1,8.26,4.28,11.5,14.47,7.22,22.72-2,3.86-5.33,6.74-9.42,8.16Zm-10.18-29.16c-3.4,1.18-6.17,3.58-7.83,6.79-3.56,6.86-.86,15.34,6.01,18.9,3.33,1.72,7.13,2.05,10.7.92,3.57-1.13,6.49-3.59,8.21-6.91,3.56-6.86.86-15.34-6.01-18.9-3.33-1.72-7.13-2.05-10.7-.92-.13.04-.25.08-.38.12Z"/>
    </g>
    <path class="cls-27" d="m379.46,191.41c-4.55,2.79-7.99,10.35-5.84,16.42.68,1.24,1.12,2.02,1.73,2.99.18.28.62.16.62-.18.03-7.54,2.38-14.09,7.16-19.93.21-.26-.04-.63-.36-.53-1.12.36-1.96.68-3.3,1.23Z"/>
    <g class="cls-36">
      <path class="cls-30" d="m396.77,194.99c-.56,7.41-3.36,14.9-7.65,20.95-.04.05-.09.1-.16.12-.62.23-1.05.38-1.53.55-.28.1-.53-.2-.38-.46,3.84-6.79,6.71-14.48,8.06-22.18.09-.49.73-.62,1-.2.17.27.35.54.57.89.07.1.1.22.09.34Z"/>
    </g>
  </g>
  <rect class="cls-18" x="-510.13" y="382.4" width="500" height=".25"/>
  <g>
    <g>
      <g>
        <path class="cls-11" d="m318.42,153.08c-.22-38.12-31.3-68.84-69.42-68.62-38.12.22-68.84,31.3-68.62,69.42.16,27.65,22.27,46.24,36.31,68.05,4.35,6.76,4.02,32.11,4.02,32.11l58.55-.34s-.62-25.35,3.65-32.16c13.78-21.97,35.68-40.82,35.51-68.47Z"/>
        <path class="cls-17" d="m318.42,153.08c-.22-38.12-31.3-68.84-69.42-68.62-38.12.22-68.84,31.3-68.62,69.42.16,27.65,22.27,46.24,36.31,68.05,4.35,6.76,4.02,32.11,4.02,32.11l58.55-.34s-.62-25.35,3.65-32.16c13.78-21.97,35.68-40.82,35.51-68.47Z"/>
      </g>
      <g>
        <path class="cls-3" d="m318.42,153.08c-.22-38.12-31.3-68.84-69.42-68.62-38.12.22-68.84,31.3-68.62,69.42.16,27.65,22.27,46.24,36.31,68.05,4.35,6.76,4.02,32.11,4.02,32.11l58.55-.34s-.62-25.35,3.65-32.16c13.78-21.97,35.68-40.82,35.51-68.47Z"/>
        <path class="cls-2" d="m318.42,153.08c-.22-38.12-31.3-68.84-69.42-68.62-38.12.22-68.84,31.3-68.62,69.42.16,27.65,22.27,46.24,36.31,68.05,4.35,6.76,4.02,32.11,4.02,32.11l58.55-.34s-.62-25.35,3.65-32.16c13.78-21.97,35.68-40.82,35.51-68.47Z"/>
      </g>
    </g>
    <g>
      <g>
        <polygon class="cls-3" points="265.73 304.59 232.81 304.59 223.67 292.63 274.88 292.63 265.73 304.59"/>
        <polygon class="cls-22" points="265.73 304.59 232.81 304.59 223.67 292.63 274.88 292.63 265.73 304.59"/>
      </g>
      <path class="cls-3" d="m217.75,245.81h0c0-1.2.96-2.18,2.16-2.18l58.51-.31c1.2,0,2.17.96,2.18,2.16h0c0,1.2-.96,2.18-2.16,2.18l-58.51.31c-1.2,0-2.17-.96-2.18-2.16Z"/>
      <g>
        <path class="cls-3" d="m285.79,254.9c0,4.41-3.58,7.97-7.97,7.98h-8.11c-.57.16-1.19.24-1.81.24l-46.89.08c-4.41,0-7.99-3.56-8-7.97.01-4.34,3.47-7.87,7.79-7.97h.18s8.11-.02,8.11-.02c.52-.13,1.08-.21,1.63-.22h.18s46.89-.08,46.89-.08c4.41,0,7.99,3.56,8,7.97Z"/>
        <path class="cls-3" d="m285.79,254.9c0,4.41-3.58,7.97-7.97,7.98h-8.11c-.57.16-1.19.24-1.81.24l-46.89.08c-4.41,0-7.99-3.56-8-7.97.01-4.34,3.47-7.87,7.79-7.97h.18s8.11-.02,8.11-.02c.52-.13,1.08-.21,1.63-.22h.18s46.89-.08,46.89-.08c4.41,0,7.99,3.56,8,7.97Z"/>
        <g class="cls-39">
          <path class="cls-14" d="m285.79,254.9c0,4.41-3.58,7.97-7.97,7.98h-8.11c-.57.16-1.19.24-1.81.24l-46.89.08c-4.41,0-7.99-3.56-8-7.97.01-4.34,3.47-7.87,7.79-7.97h.18s8.11-.02,8.11-.02c.52-.13,1.08-.21,1.63-.22h.18s46.89-.08,46.89-.08c4.41,0,7.99,3.56,8,7.97Z"/>
        </g>
      </g>
      <g>
        <path class="cls-3" d="m283.01,270.45c0,4.41-3.32,7.97-7.4,7.96h-7.55c-.53.14-1.11.22-1.69.22h-43.6c-4.1,0-7.43-3.58-7.45-7.99,0-4.34,3.21-7.86,7.23-7.96h.17s7.55,0,7.55,0c.49-.13,1-.2,1.52-.22h.17s43.6,0,43.6,0c4.1,0,7.43,3.58,7.45,7.99Z"/>
        <path class="cls-7" d="m283.01,270.45c0,4.41-3.32,7.97-7.4,7.96h-7.55c-.53.14-1.11.22-1.69.22h-43.6c-4.1,0-7.43-3.58-7.45-7.99,0-4.34,3.21-7.86,7.23-7.96h.17s7.55,0,7.55,0c.49-.13,1-.2,1.52-.22h.17s43.6,0,43.6,0c4.1,0,7.43,3.58,7.45,7.99Z"/>
      </g>
      <g>
        <path class="cls-3" d="m280.22,285.6c0,4.41-3.05,7.96-6.83,7.95h-6.98c-.49.13-1.02.21-1.56.2l-40.32-.08c-3.79,0-6.88-3.59-6.9-8,0-4.34,2.95-7.86,6.67-7.95h.15s6.98,0,6.98,0c.45-.13.93-.2,1.4-.21h.15s40.32.08,40.32.08c3.79,0,6.88,3.59,6.9,8Z"/>
        <path class="cls-10" d="m280.22,285.6c0,4.41-3.05,7.96-6.83,7.95h-6.98c-.49.13-1.02.21-1.56.2l-40.32-.08c-3.79,0-6.88-3.59-6.9-8,0-4.34,2.95-7.86,6.67-7.95h.15s6.98,0,6.98,0c.45-.13.93-.2,1.4-.21h.15s40.32.08,40.32.08c3.79,0,6.88,3.59,6.9,8Z"/>
      </g>
      <path class="cls-3" d="m222.25,295.81h0c0-1.2.96-2.18,2.16-2.18l49.51-.1c1.19,0,2.17.96,2.17,2.16h0c0,1.2-.96,2.18-2.16,2.18l-49.51.1c-1.19,0-2.17-.96-2.17-2.16Z"/>
    </g>
  </g>
</svg>