<?xml version="1.0" encoding="UTF-8"?>
<svg xmlns="http://www.w3.org/2000/svg" xmlns:xlink="http://www.w3.org/1999/xlink" viewBox="0 0 532.32 384.87">
  <defs>
    <style>
      .cls-1 {
        filter: url(#drop-shadow-10);
      }

      .cls-2 {
        opacity: .7;
      }

      .cls-3 {
        filter: url(#drop-shadow-7);
      }

      .cls-4 {
        fill: #008bbe;
      }

      .cls-4, .cls-5, .cls-6, .cls-7, .cls-8, .cls-9, .cls-10, .cls-11, .cls-12, .cls-13, .cls-14, .cls-15, .cls-16, .cls-17, .cls-18, .cls-19, .cls-20, .cls-21, .cls-22, .cls-23, .cls-24, .cls-25, .cls-26 {
        stroke: #008bbe;
        stroke-miterlimit: 10;
        stroke-width: 2px;
      }

      .cls-5 {
        opacity: .1;
      }

      .cls-6 {
        fill: #e3ffff;
      }

      .cls-7 {
        filter: url(#drop-shadow-8);
      }

      .cls-7, .cls-9, .cls-10, .cls-13, .cls-17, .cls-18, .cls-22, .cls-24 {
        fill: #ebebeb;
      }

      .cls-27, .cls-19, .cls-20 {
        opacity: .2;
      }

      .cls-8 {
        fill: #f0f0f0;
      }

      .cls-9 {
        filter: url(#drop-shadow-4);
      }

      .cls-10 {
        filter: url(#drop-shadow-2);
      }

      .cls-11 {
        opacity: .3;
      }

      .cls-11, .cls-15, .cls-16, .cls-26 {
        fill: #fff;
      }

      .cls-12 {
        fill: #eaeaea;
      }

      .cls-28 {
        filter: url(#drop-shadow-11);
      }

      .cls-13 {
        filter: url(#drop-shadow-3);
      }

      .cls-14 {
        fill: #e0e0e0;
      }

      .cls-15 {
        opacity: .4;
      }

      .cls-18 {
        filter: url(#drop-shadow-6);
      }

      .cls-20 {
        isolation: isolate;
      }

      .cls-21 {
        fill: #e6e6e6;
      }

      .cls-22 {
        filter: url(#drop-shadow-1);
      }

      .cls-23 {
        fill: #f5f5f5;
        filter: url(#drop-shadow-9);
      }

      .cls-24 {
        filter: url(#drop-shadow-5);
      }

      .cls-25 {
        fill: #f84a35;
      }

      .cls-26 {
        opacity: .5;
      }
    </style>
    <filter id="drop-shadow-1" filterUnits="userSpaceOnUse">
      <feOffset dx="7" dy="7"/>
      <feGaussianBlur result="blur" stdDeviation="5"/>
      <feFlood flood-color="#000" flood-opacity=".1"/>
      <feComposite in2="blur" operator="in"/>
      <feComposite in="SourceGraphic"/>
    </filter>
    <filter id="drop-shadow-2" filterUnits="userSpaceOnUse">
      <feOffset dx="7" dy="7"/>
      <feGaussianBlur result="blur-2" stdDeviation="5"/>
      <feFlood flood-color="#000" flood-opacity=".1"/>
      <feComposite in2="blur-2" operator="in"/>
      <feComposite in="SourceGraphic"/>
    </filter>
    <filter id="drop-shadow-3" filterUnits="userSpaceOnUse">
      <feOffset dx="7" dy="7"/>
      <feGaussianBlur result="blur-3" stdDeviation="5"/>
      <feFlood flood-color="#000" flood-opacity=".1"/>
      <feComposite in2="blur-3" operator="in"/>
      <feComposite in="SourceGraphic"/>
    </filter>
    <filter id="drop-shadow-4" filterUnits="userSpaceOnUse">
      <feOffset dx="7" dy="7"/>
      <feGaussianBlur result="blur-4" stdDeviation="5"/>
      <feFlood flood-color="#000" flood-opacity=".1"/>
      <feComposite in2="blur-4" operator="in"/>
      <feComposite in="SourceGraphic"/>
    </filter>
    <filter id="drop-shadow-5" filterUnits="userSpaceOnUse">
      <feOffset dx="7" dy="7"/>
      <feGaussianBlur result="blur-5" stdDeviation="5"/>
      <feFlood flood-color="#000" flood-opacity=".1"/>
      <feComposite in2="blur-5" operator="in"/>
      <feComposite in="SourceGraphic"/>
    </filter>
    <filter id="drop-shadow-6" filterUnits="userSpaceOnUse">
      <feOffset dx="7" dy="7"/>
      <feGaussianBlur result="blur-6" stdDeviation="5"/>
      <feFlood flood-color="#000" flood-opacity=".1"/>
      <feComposite in2="blur-6" operator="in"/>
      <feComposite in="SourceGraphic"/>
    </filter>
    <filter id="drop-shadow-7" filterUnits="userSpaceOnUse">
      <feOffset dx="7" dy="7"/>
      <feGaussianBlur result="blur-7" stdDeviation="5"/>
      <feFlood flood-color="#000" flood-opacity=".1"/>
      <feComposite in2="blur-7" operator="in"/>
      <feComposite in="SourceGraphic"/>
    </filter>
    <filter id="drop-shadow-8" filterUnits="userSpaceOnUse">
      <feOffset dx="7" dy="7"/>
      <feGaussianBlur result="blur-8" stdDeviation="5"/>
      <feFlood flood-color="#000" flood-opacity=".1"/>
      <feComposite in2="blur-8" operator="in"/>
      <feComposite in="SourceGraphic"/>
    </filter>
    <filter id="drop-shadow-9" filterUnits="userSpaceOnUse">
      <feOffset dx="7" dy="7"/>
      <feGaussianBlur result="blur-9" stdDeviation="5"/>
      <feFlood flood-color="#000" flood-opacity=".1"/>
      <feComposite in2="blur-9" operator="in"/>
      <feComposite in="SourceGraphic"/>
    </filter>
    <filter id="drop-shadow-10" filterUnits="userSpaceOnUse">
      <feOffset dx="7" dy="7"/>
      <feGaussianBlur result="blur-10" stdDeviation="5"/>
      <feFlood flood-color="#000" flood-opacity=".1"/>
      <feComposite in2="blur-10" operator="in"/>
      <feComposite in="SourceGraphic"/>
    </filter>
    <filter id="drop-shadow-11" filterUnits="userSpaceOnUse">
      <feOffset dx="7" dy="7"/>
      <feGaussianBlur result="blur-11" stdDeviation="5"/>
      <feFlood flood-color="#000" flood-opacity=".1"/>
      <feComposite in2="blur-11" operator="in"/>
      <feComposite in="SourceGraphic"/>
    </filter>
  </defs>
  <g id="Background_Complete" data-name="Background Complete">
    <rect class="cls-22" x="425.94" y="333.32" width="33.12" height=".25"/>
    <rect class="cls-10" x="331.69" y="336.04" width="8.69" height=".25"/>
    <rect class="cls-13" x="405.75" y="324.04" width="19.19" height=".25"/>
    <rect class="cls-9" x="61.62" y="325.72" width="43.19" height=".25"/>
    <rect class="cls-24" x="113.72" y="325.72" width="6.33" height=".25"/>
    <rect class="cls-18" x="140.63" y="329.94" width="93.68" height=".25"/>
    <g class="cls-3">
      <g>
        <rect class="cls-14" x="72.29" y="170.51" width="10.33" height="4.11" transform="translate(-74.72 60.22) rotate(-29.39)"/>
        <rect class="cls-14" x="96.19" y="219.9" width="6.62" height="11.33"/>
        <path class="cls-17" d="m105.04,221.32l-4.81,2.92c-2.36,1.43-5.43.59-6.73-1.85l-23.34-43.84c-1.2-2.25-.43-5.04,1.74-6.36h0c2.18-1.32,5-.72,6.45,1.38l28.15,40.92c1.56,2.27.89,5.39-1.46,6.82Z"/>
        <path class="cls-17" d="m79.34,174.45l-1.74-4.33c-.44-1.1.12-2.35,1.24-2.74l48.97-17.17c1.05-.37,2.2.16,2.62,1.19h0c.41,1.03-.06,2.21-1.07,2.67l-47.23,21.49c-1.08.49-2.35-.02-2.79-1.12Z"/>
        <path class="cls-21" d="m130.53,153.15h0c-1.93-.5-3.25-2.27-3.18-4.26l.21-5.96.57-2.03,3.34-5.14c.51-.79,1.59-.96,2.32-.36h0l-2.59,6.87-.34,1.33-.17,5.41c-.01.42.27.79.67.89h0c.41.1.83-.09,1.02-.46l2.47-4.82.34-1.33,1.05-7.26h0c.92-.17,1.78.51,1.84,1.44l.41,6.48-.57,2.03-2.56,4.99c-.9,1.77-2.91,2.67-4.84,2.18Z"/>
        <g class="cls-2">
          <path class="cls-16" d="m100.28,212.59c-.6-.34-1.3-.53-2.04-.53-2.31,0-4.19,1.88-4.19,4.19,0,.74.19,1.44.53,2.04l5.7-5.7Z"/>
          <path class="cls-16" d="m96.19,219.9c.6.34,1.3.53,2.04.53,2.31,0,4.19-1.88,4.19-4.19,0-.74-.19-1.44-.53-2.04l-5.7,5.7Z"/>
        </g>
        <g class="cls-2">
          <path class="cls-16" d="m84.64,168.14c-.32-.27-.7-.46-1.14-.55-1.36-.27-2.68.62-2.95,1.99-.09.44-.05.87.08,1.26l4.01-2.7Z"/>
          <path class="cls-16" d="m81.39,171.98c.32.27.7.46,1.14.55,1.36.27,2.68-.62,2.95-1.99.09-.44.05-.87-.08-1.26l-4.01,2.7Z"/>
        </g>
      </g>
      <g>
        <g>
          <rect class="cls-14" x="92.53" y="292.24" width="13.97" height="7.69"/>
          <path class="cls-8" d="m135.23,317.48H63.8l1.65-7.94c1.48-7.14,7.77-12.25,15.06-12.25h38.01c7.29,0,13.58,5.12,15.06,12.25l1.65,7.94Z"/>
          <path class="cls-17" d="m102.66,293.92h-7.57c-6.1,0-10.94-4.04-10.58-8.83l3.78-50.39c.33-4.41,4.97-7.85,10.58-7.85h0c5.61,0,10.25,3.44,10.58,7.85l3.78,50.39c.36,4.79-4.48,8.83-10.58,8.83Z"/>
          <g class="cls-2">
            <path class="cls-16" d="m101.72,276.63c-.89-.5-1.91-.78-3-.78-3.4,0-6.15,2.76-6.15,6.15,0,1.09.29,2.11.78,3l8.37-8.37Z"/>
            <path class="cls-16" d="m95.72,287.37c.89.5,1.91.78,3,.78,3.4,0,6.15-2.76,6.15-6.15,0-1.09-.29-2.11-.78-3l-8.37,8.37Z"/>
          </g>
        </g>
        <g>
          <circle class="cls-8" cx="137.29" cy="115.32" r="19.55"/>
          <g>
            <path class="cls-16" d="m137.35,135.31c-11.02,0-19.99-8.97-19.99-19.99s8.97-19.99,19.99-19.99v.88c-10.54,0-19.11,8.57-19.11,19.11s8.57,19.11,19.11,19.11v.88Z"/>
            <g>
              <path class="cls-16" d="m137.35,135.31v-.88c10.54,0,19.11-8.57,19.11-19.11s-8.57-19.11-19.11-19.11v-.88c11.02,0,19.99,8.97,19.99,19.99s-8.97,19.99-19.99,19.99Z"/>
              <g>
                <path class="cls-16" d="m147.56,115.32h-.88c0-6.48-3.29-15.15-9.57-19.18l.47-.74c6.55,4.2,9.98,13.2,9.98,19.92Z"/>
                <path class="cls-16" d="m137.58,134.64l-.47-.74c6.28-4.03,9.57-12.7,9.57-19.18h.88c0,6.72-3.43,15.72-9.98,19.92Z"/>
              </g>
              <g>
                <path class="cls-16" d="m128.01,115.32h-.88c0-6.72,3.43-15.72,9.98-19.92l.48.74c-6.28,4.03-9.57,12.7-9.57,19.18Z"/>
                <path class="cls-16" d="m137.11,134.64c-6.55-4.2-9.98-13.2-9.98-19.92h.88c0,6.48,3.29,15.15,9.57,19.18l-.48.74Z"/>
              </g>
              <rect class="cls-16" x="136.91" y="95.77" width=".88" height="39.1"/>
            </g>
            <g>
              <rect class="cls-16" x="120.8" y="104.46" width="33.09" height=".88"/>
              <rect class="cls-16" x="117.81" y="115.21" width="39.08" height=".88"/>
              <rect class="cls-16" x="121.24" y="125.95" width="32.22" height=".88"/>
            </g>
          </g>
        </g>
      </g>
    </g>
    <rect class="cls-7" x="9.16" y="317.23" width="500" height=".25"/>
  </g>
  <g id="Shadow">
    <ellipse id="_Path_" data-name="&amp;lt;Path&amp;gt;" class="cls-23" cx="259.16" cy="350.52" rx="193.89" ry="11.32"/>
  </g>
  <g id="Character_2" data-name="Character 2">
    <g class="cls-1">
      <g>
        <g>
          <polygon class="cls-12" points="346.01 331.99 344.67 344.48 337.86 343.77 338.53 330.16 346.01 331.99"/>
          <g>
            <path class="cls-4" d="m334.64,343.9c-.86-.06-1.73-.29-1.99-.68-.13-.23-.11-.51.06-.71.13-.18.32-.3.54-.35,1.18-.23,3.48,1.32,3.59,1.39.06.04.08.11.07.18-.02.07-.07.12-.14.12-.71.08-1.42.09-2.13.04Zm-1-1.42c-.11,0-.21,0-.32.02-.14.01-.26.09-.34.21-.14.19-.1.3-.06.36.29.47,2.03.61,3.32.55-.79-.54-1.68-.92-2.61-1.12Z"/>
            <path class="cls-4" d="m336.74,343.85s-.05,0-.07-.01c-.8-.43-2.35-2.05-2.14-2.81.03-.19.19-.4.64-.42.33-.01.65.11.89.35.83.79.87,2.66.88,2.75,0,.06-.03.11-.08.14-.04.01-.08.01-.11,0Zm-1.48-2.92l-.09-.02c-.3,0-.32.12-.34.16-.08.47.93,1.72,1.74,2.29-.02-.79-.29-1.55-.76-2.18-.15-.15-.34-.23-.55-.25h0Z"/>
            <path class="cls-6" d="m337.54,342.94l7.54.55c.28.02.52.24.56.52l.91,6.23c.08.55-.29,1.07-.85,1.15-.07.01-.14.01-.21,0-2.71-.25-5.12-.57-8.5-.82-3.99-.29-3.01.26-7.71-.02-2.83-.17-3.11-3.42-1.9-3.49,5.54-.29,6.23-1.9,8.49-3.71.49-.34,1.09-.5,1.68-.43Z"/>
          </g>
          <polygon class="cls-19" points="338.16 337.71 343.24 337.51 345.33 338.37 343.55 340.9 338 340.6 338.16 337.71"/>
        </g>
        <g>
          <path class="cls-4" d="m363.08,206.25l-12.06,72.95-3.96,61.24-10.23-1.26s-1.8-30.64-.08-62.8c1.55-29.04,6.58-59.36,7.31-69.04l3.78-6.69,7.53.93,7.72,4.67Z"/>
          <g>
            <path class="cls-12" d="m409.32,334.68l-5.21,2.67s-1.19-2.09-3.09-5.47c-.42-.75-.89-1.57-1.38-2.44l6.22-2.72.08-.04c.06.14.12.28.18.41.31.74.6,1.42.88,2.07,1.44,3.4,2.33,5.52,2.33,5.52Z"/>
            <g>
              <path class="cls-4" d="m400.38,337.17c-.79.36-1.66.58-2.08.36-.22-.14-.34-.4-.28-.66.03-.22.14-.42.31-.56.92-.77,3.7-.5,3.82-.49.07,0,.13.06.14.12.02.07-.01.14-.07.18-.59.4-1.21.76-1.85,1.05Zm-1.56-.78c-.1.04-.19.1-.27.17-.12.08-.19.2-.2.34-.03.24.05.31.12.34.48.28,2.08-.43,3.19-1.11-.95-.09-1.92,0-2.84.26Z"/>
              <path class="cls-4" d="m402.21,336.12s-.04.02-.06.02c-.91,0-3.05-.68-3.23-1.45-.06-.18-.03-.45.37-.67.29-.17.63-.21.95-.12,1.1.3,2.04,1.93,2.09,2,.03.05.03.12,0,.17-.03.03-.06.05-.1.05Zm-2.7-1.86l-.09.03c-.26.14-.23.26-.22.3.15.45,1.64,1.07,2.63,1.18-.4-.68-1-1.23-1.72-1.56-.2-.06-.41-.04-.6.05h0Z"/>
              <path class="cls-6" d="m402.92,334.82l5.46-2.53c.26-.12.57-.04.74.19l3.78,5.05c.34.45.25,1.08-.19,1.42-.06.04-.12.08-.18.11-2.51,1.08-3.34,1.35-6.43,2.76-3.65,1.65-2.53,1.67-6.8,3.67-2.57,1.2-4.38-1.53-3.34-2.17,4.74-2.9,6.42-8.28,6.98-8.51Z"/>
            </g>
            <path class="cls-19" d="m406.99,329.16l-5.98,2.72c-.42-.75-.89-1.57-1.38-2.44l6.22-2.72.26.37c.31.74.6,1.42.88,2.07Z"/>
            <path class="cls-4" d="m351.86,205.82s12.59,61.15,18.63,75.79c5.36,13,29.13,49.59,29.13,49.59l7.42-3.71s-8.26-23.36-16.18-38.36c-2.77-5.23-5.65-9.25-6.88-12.08-1.63-3.73-1.13-65.43-10.38-71.52l-21.73.29Z"/>
          </g>
          <path class="cls-19" d="m357.67,237.31l-4.16,26.16c-1.07-14.96,1-38.08,1-38.08l3.16,11.92Z"/>
        </g>
      </g>
      <path class="cls-6" d="m342.94,197.17c.25-2.71.43-5.35.21-7.87-2.13-24.95-2.16-27.39-1.95-31.78.04-.79.55-1.47,1.3-1.73,17.26-5.91,32.32-3.12,36.22-.93,5.2,2.92,3.13,6.05,3.07,6.95-.49,7.39-5.26,22.04-5.33,34.05-.01,1.76.19,6,.31,8.34.05.95-.6,1.79-1.54,1.99-3.87.81-22.48,1.04-25.67.94-3.04-.09-5.04-.28-6.32-.45-1.11-.15-1.86-1.22-1.62-2.32.47-2.18,1.18-5.62,1.33-7.18Z"/>
      <g>
        <path class="cls-12" d="m364.17,142.01c-.65,3.87-1.25,9.53,1.51,12.03,0,0-.04,3.94-10.84,8.47-4.08-5.53-1.19-8.15-1.19-8.15,4.29-1.14,4.12-2.89,3.3-5.86l7.22-6.48Z"/>
        <path class="cls-20" d="m361.24,144.62l-4.24,3.87c.2.69.35,1.4.42,2.11,1.65-.28,4.19-1.74,4.5-3.54-.02-.86-.26-1.7-.68-2.44Z"/>
        <path class="cls-12" d="m369.03,135.26c-1.56,6.36-2.09,9.08-5.94,11.79-5.79,4.08-13.27.76-13.64-5.94-.32-6.03,2.3-15.46,9.07-16.83,4.83-1.03,9.57,2.05,10.6,6.87.29,1.36.26,2.77-.09,4.11Z"/>
        <path class="cls-6" d="m358,134.46c-.1.52-.46.9-.79.84-.34-.06-.54-.54-.45-1.06.09-.52.46-.9.79-.84.34.06.52.56.45,1.06Z"/>
        <path class="cls-6" d="m352.13,133.45c-.1.53-.46.9-.79.84s-.54-.54-.45-1.06c.09-.52.46-.9.79-.83.34.07.54.53.45,1.06Z"/>
        <path class="cls-6" d="m356.01,141.55c-.26,0-.52-.03-.78-.08-.08-.01-.14-.09-.13-.17,0,0,0,0,0,0,.02-.08.1-.14.19-.12,1.32.27,2.68-.11,3.68-1.01.06-.06.16-.07.22,0,.06.06.07.16,0,.22-.86.81-2.01,1.23-3.18,1.18Z"/>
        <path class="cls-6" d="m360.78,133.66c-.14.02-.27-.05-.33-.17-.57-.86-1.46-1.45-2.48-1.62-.17-.03-.29-.19-.27-.36.03-.17.18-.28.35-.26,0,0,0,0,.01,0,1.22.19,2.3.91,2.95,1.97.07.15,0,.34-.15.41h0s-.06.03-.09.03Z"/>
        <path class="cls-6" d="m351.09,131.42c-.11.02-.23-.01-.31-.1-.12-.13-.11-.33.02-.44.73-.72,1.76-1.03,2.76-.83.16.03.26.19.23.35,0,0,0,.02,0,.02-.04.17-.21.27-.37.22,0,0,0,0,0,0h0c-.79-.13-1.59.12-2.16.68-.05.04-.1.07-.17.09Z"/>
        <path class="cls-6" d="m367.1,152.19l-1.13-.19-6.32,3.45-1.96.08-3.76-3.18-1.25.3h0c-1.17,3.62-1.39,7.48-.64,11.21l2.15,10.67,2.24,11.67h.05s.47-1.08.47-1.08l1.76-4.03,2.41-4.59,4.39-11.22,1.24-4.62c.74-2.76.87-5.65.37-8.47h0Z"/>
        <path class="cls-5" d="m360.27,155.54c-6.78.07-7.54-2.42-7.54-2.42v-.59s-2.03,3.85,3.86,4.52c5.88.67,9.8-2.12,10.64-3.8,0,0,0,0,0,0-.66.89-2.42,2.25-6.96,2.3Z"/>
        <path class="cls-6" d="m368.98,141.79c1.73-1.36,1.53-3.65,2.55-5.59,1.77-3.37.02-4.77.02-4.77,1.5-2.09.25-5.02-2.59-4.68-1.01-1.63-2.06-3.3-3.61-4.42-2.65-1.9-6.59-1.61-9.05.53-.78-.76-2.25-.62-2.87.29s-.22,2.32.77,2.78c.84,1.29,2.39,2.26,3.85,2.77,2.03.72,5.51.89,7.62,1.3-.03,1.59-.47,3.6-.71,5.17-.75,4.95-.03,10.33-.03,10.33,1.46-1.13,3.79-1.88,4.04-3.71Z"/>
        <path class="cls-12" d="m368.77,139.85c-.58,1.01-1.53,1.75-2.65,2.07-1.5.39-2.23-.95-1.8-2.36.4-1.27,1.65-3,3.14-2.8,1.08.18,1.81,1.2,1.63,2.29-.05.29-.16.56-.32.8Z"/>
        <path class="cls-16" d="m365.91,135.32l-4.34-.73c-.37-1.11-1.93-1.38-2.59-1.49-.69-.12-2.35-.39-3.02.67l-1.51-.26c-.28-1.22-1.94-1.51-2.63-1.63-.81-.14-2.95-.5-3.26,1.34-.25,1.46.88,2.87,2.51,3.15,1.63.27,3.15-.69,3.4-2.15.02-.1.02-.2.03-.29l1.29.22c-.03.09-.05.18-.07.29-.25,1.46.88,2.87,2.51,3.15,1.63.27,3.15-.69,3.4-2.15.03-.15.03-.29.02-.43l4.2.71c.57.1,1.1.39,1.48.83l.31-.27c-.44-.51-1.05-.85-1.72-.97Zm-14.78.66c-1.41-.24-2.38-1.44-2.17-2.67.17-1.01,1-1.31,2.79-1.01,1.79.3,2.48.86,2.31,1.87-.21,1.24-1.52,2.05-2.93,1.82Zm7.16,1.21c-1.41-.24-2.38-1.44-2.17-2.67.17-1.01,1-1.31,2.79-1.01,1.79.3,2.48.86,2.31,1.87-.21,1.24-1.52,2.05-2.93,1.82Z"/>
        <path class="cls-6" d="m352.75,150.94l-.02,2.5s.76,2.5,7.54,2.42c6.78-.07,7.35-3.06,7.35-3.06l.02-1.82c.01-1.31-1.17-2.3-2.46-2.05-1.95.37-5.17.61-10.11-.03-1.22-.16-2.31.8-2.32,2.04Z"/>
        <path class="cls-25" d="m354.55,134.24c-.89,1.43-1.96,2.73-3.2,3.87.61.62,1.46.94,2.33.89l.87-4.76Z"/>
      </g>
      <g>
        <path class="cls-12" d="m310.17,144.62s-.07-3.53-3.56-5.32c0,0-.5-3.72-2.54-4.53-2.04-.81-4.84,3.64-4.84,3.64,0,0,.63,5.18,4.58,6.49l4.31,2.4,2.05-2.69Z"/>
        <path class="cls-4" d="m312.33,146.51l-1.18-2.86s-3.72.59-6.08,4.03l2.76,2.28,4.5-3.45Z"/>
        <path class="cls-6" d="m312.3,145.92c6.57,8.81,14.7,13.47,14.7,13.47,11.13-4.29,20.38-3.45,20.38-3.45l-3.85,8.77s-13.05,4.53-19.38,2.91c-5.02-1.29-13.68-13.1-17.07-17.95,2.05-2.32,4.32-3.39,5.22-3.75Z"/>
      </g>
      <g>
        <path class="cls-12" d="m392.94,196.39s-2.16,2.8-.56,6.37c0,0-1.94,3.21-.86,5.12,1.08,1.91,6.05.2,6.05.2,0,0,2.76-4.43.5-7.93l-1.85-4.57-3.28.81Z"/>
        <path class="cls-4" d="m392.44,193.56l-.88,2.97s3.27,1.87,7.27.67l-.72-3.5-5.67-.13Z"/>
        <path class="cls-6" d="m392.09,194.04c.4-10.99-3.02-19.71-3.02-19.71,0,0-13.29-7.91-17.4-12.16-2.35-2.44-1.7-6.45,1.31-8.02h0c1.7-.89,3.75-.74,5.31.38,4.85,3.51,15.19,11.2,18.16,15.17,3.1,4.15,2.46,18.78,2.06,24.69-3.05.52-5.49-.06-6.41-.34Z"/>
        <path class="cls-6" d="m392.09,194.04c.4-10.99-3.02-19.71-3.02-19.71,0,0-13.29-7.91-17.4-12.16-2.35-2.44-1.7-6.45,1.31-8.02h0c1.7-.89,3.75-.74,5.31.38,4.85,3.51,15.19,11.2,18.16,15.17,3.1,4.15,2.46,18.78,2.06,24.69-3.05.52-5.49-.06-6.41-.34Z"/>
      </g>
    </g>
  </g>
  <g id="Lamp">
    <g class="cls-28">
      <g>
        <g>
          <path class="cls-4" d="m327.58,87.91c-.22-38.12-31.3-68.84-69.42-68.62-38.12.22-68.84,31.3-68.62,69.42.16,27.65,22.27,46.24,36.31,68.05,4.35,6.76,4.02,32.11,4.02,32.11l58.55-.34s-.62-25.35,3.65-32.16c13.78-21.97,35.68-40.82,35.52-68.47Z"/>
          <path class="cls-26" d="m327.58,87.91c-.22-38.12-31.3-68.84-69.42-68.62-38.12.22-68.84,31.3-68.62,69.42.16,27.65,22.27,46.24,36.31,68.05,4.35,6.76,4.02,32.11,4.02,32.11l58.55-.34s-.62-25.35,3.65-32.16c13.78-21.97,35.68-40.82,35.52-68.47Z"/>
        </g>
        <g>
          <g>
            <polygon class="cls-4" points="274.89 239.42 241.97 239.42 232.83 227.46 284.04 227.46 274.89 239.42"/>
            <polygon class="cls-26" points="274.89 239.42 241.97 239.42 232.83 227.46 284.04 227.46 274.89 239.42"/>
          </g>
          <path class="cls-4" d="m226.91,180.64h0c0-1.2.96-2.18,2.16-2.18l58.51-.31c1.2,0,2.17.96,2.18,2.16h0c0,1.2-.96,2.18-2.16,2.18l-58.51.31c-1.2,0-2.17-.96-2.18-2.16Z"/>
          <g>
            <path class="cls-4" d="m294.95,189.73c0,4.41-3.58,7.97-7.97,7.98h-8.11c-.57.16-1.19.24-1.81.24l-46.89.08c-4.41,0-7.99-3.56-8-7.97.01-4.34,3.47-7.87,7.79-7.97h.18s8.11-.02,8.11-.02c.52-.13,1.08-.21,1.63-.22h.18s46.89-.08,46.89-.08c4.41,0,7.99,3.56,8,7.97Z"/>
            <path class="cls-4" d="m294.95,189.73c0,4.41-3.58,7.97-7.97,7.98h-8.11c-.57.16-1.19.24-1.81.24l-46.89.08c-4.41,0-7.99-3.56-8-7.97.01-4.34,3.47-7.87,7.79-7.97h.18s8.11-.02,8.11-.02c.52-.13,1.08-.21,1.63-.22h.18s46.89-.08,46.89-.08c4.41,0,7.99,3.56,8,7.97Z"/>
            <g class="cls-27">
              <path class="cls-16" d="m294.95,189.73c0,4.41-3.58,7.97-7.97,7.98h-8.11c-.57.16-1.19.24-1.81.24l-46.89.08c-4.41,0-7.99-3.56-8-7.97.01-4.34,3.47-7.87,7.79-7.97h.18s8.11-.02,8.11-.02c.52-.13,1.08-.21,1.63-.22h.18s46.89-.08,46.89-.08c4.41,0,7.99,3.56,8,7.97Z"/>
            </g>
          </g>
          <g>
            <path class="cls-4" d="m292.17,205.28c0,4.41-3.32,7.97-7.4,7.96h-7.55c-.53.14-1.11.22-1.69.22h-43.6c-4.1,0-7.43-3.58-7.45-7.99,0-4.34,3.21-7.86,7.23-7.96h.17s7.55,0,7.55,0c.48-.13,1-.2,1.52-.22h.17s43.6,0,43.6,0c4.1,0,7.43,3.58,7.45,7.99Z"/>
            <path class="cls-11" d="m292.17,205.28c0,4.41-3.32,7.97-7.4,7.96h-7.55c-.53.14-1.11.22-1.69.22h-43.6c-4.1,0-7.43-3.58-7.45-7.99,0-4.34,3.21-7.86,7.23-7.96h.17s7.55,0,7.55,0c.48-.13,1-.2,1.52-.22h.17s43.6,0,43.6,0c4.1,0,7.43,3.58,7.45,7.99Z"/>
          </g>
          <g>
            <path class="cls-4" d="m289.38,220.43c0,4.41-3.05,7.96-6.83,7.95h-6.98c-.49.13-1.02.21-1.56.2l-40.32-.08c-3.79,0-6.88-3.59-6.9-8,0-4.34,2.95-7.86,6.67-7.95h.15s6.98,0,6.98,0c.45-.13.93-.2,1.4-.21h.15s40.32.08,40.32.08c3.79,0,6.88,3.59,6.9,8Z"/>
            <path class="cls-15" d="m289.38,220.43c0,4.41-3.05,7.96-6.83,7.95h-6.98c-.49.13-1.02.21-1.56.2l-40.32-.08c-3.79,0-6.88-3.59-6.9-8,0-4.34,2.95-7.86,6.67-7.95h.15s6.98,0,6.98,0c.45-.13.93-.2,1.4-.21h.15s40.32.08,40.32.08c3.79,0,6.88,3.59,6.9,8Z"/>
          </g>
          <path class="cls-4" d="m231.41,230.63h0c0-1.2.96-2.18,2.16-2.18l49.51-.1c1.19,0,2.17.96,2.17,2.16h0c0,1.2-.96,2.18-2.16,2.18l-49.51.1c-1.19,0-2.17-.96-2.17-2.16Z"/>
        </g>
      </g>
    </g>
  </g>
</svg>