<?xml version="1.0" encoding="UTF-8"?>
<svg id="Layer_1" data-name="Layer 1" xmlns="http://www.w3.org/2000/svg" xmlns:xlink="http://www.w3.org/1999/xlink" viewBox="0 0 126 126">
  <defs>
    <style>
      .cls-1 {
        filter: url(#drop-shadow-2);
      }

      .cls-1, .cls-2, .cls-3 {
        fill: #e4eff2;
        opacity: .25;
        stroke: #008bbe;
        stroke-miterlimit: 10;
      }

      .cls-2 {
        filter: url(#drop-shadow-1);
      }

      .cls-4 {
        fill: #008bbe;
        stroke-width: 0px;
      }

      .cls-3 {
        filter: url(#drop-shadow-3);
      }
    </style>
    <filter id="drop-shadow-1" filterUnits="userSpaceOnUse">
      <feOffset dx="7" dy="7"/>
      <feGaussianBlur result="blur" stdDeviation="5"/>
      <feFlood flood-color="#000" flood-opacity=".5"/>
      <feComposite in2="blur" operator="in"/>
      <feComposite in="SourceGraphic"/>
    </filter>
    <filter id="drop-shadow-2" filterUnits="userSpaceOnUse">
      <feOffset dx="7" dy="7"/>
      <feGaussianBlur result="blur-2" stdDeviation="5"/>
      <feFlood flood-color="#000" flood-opacity=".5"/>
      <feComposite in2="blur-2" operator="in"/>
      <feComposite in="SourceGraphic"/>
    </filter>
    <filter id="drop-shadow-3" filterUnits="userSpaceOnUse">
      <feOffset dx="7" dy="7"/>
      <feGaussianBlur result="blur-3" stdDeviation="5"/>
      <feFlood flood-color="#000" flood-opacity=".5"/>
      <feComposite in2="blur-3" operator="in"/>
      <feComposite in="SourceGraphic"/>
    </filter>
  </defs>
  <path class="cls-2" d="m9.44,47.22c-2.49,13.08.63,26.6,8.62,37.26,7.99,10.65,20.1,17.45,33.35,18.72,13.25,1.27,26.43-3.1,36.3-12.03l.36.18h0c1.06.48,2.2.74,3.37.75.97,0,1.93-.19,2.83-.54,3.06-1.15,5.13-4.03,5.24-7.31.11-3.27-1.76-6.28-4.74-7.63-2.98-1.35-6.48-.78-8.87,1.46-2.39,2.23-3.2,5.69-2.05,8.75.16.43.36.84.6,1.23-8.98,7.95-20.88,11.78-32.82,10.55-11.93-1.23-22.8-7.4-29.98-17.01-7.18-9.61-10-21.79-7.78-33.58.22-1.22-.59-2.39-1.81-2.61-1.22-.22-2.39.58-2.62,1.8h0Z"/>
  <path class="cls-1" d="m39.94,84c4.87,2.82,10.41,4.3,16.04,4.31,2.87,0,5.74-.38,8.52-1.15,8.29-2.24,15.36-7.68,19.64-15.13,4.28-7.45,5.42-16.29,3.18-24.59-2.25-8.29-7.7-15.35-15.14-19.62-7.45-4.27-16.3-5.41-24.59-3.16-8.29,2.25-15.34,7.7-19.62,15.16-4.27,7.45-5.4,16.3-3.14,24.59,2.2,8.3,7.65,15.36,15.11,19.6h0Zm-5.66-14.3c2.98-2.03,6.29-3.54,9.78-4.45,4.76-.88,8.61-4.34,9.99-8.97,1.79-3.39,4.07-6.5,6.77-9.21,3.61-4.06,6.74-7.55,5.57-10.99-.99-2.92-4.63-3.88-7.25-4.36-2.63-.28-5.09-1.46-6.95-3.34,1.28-.18,2.56-.27,3.85-.27,7.86.02,15.34,3.36,20.62,9.18-2.14,14.93-8.22,18.66-13.57,21.94-7.31,4.46-11.5,8.46-6.89,24.53-9.59.07-18.53-4.82-23.66-12.91.54-.36,1.12-.72,1.75-1.15h0Z"/>
  <path class="cls-3" d="m100.41,66.54c1.09-.01,2.03-.79,2.23-1.87,2.45-13.07-.71-26.57-8.7-37.2-7.99-10.63-20.08-17.41-33.31-18.7-13.24-1.29-26.41,3.05-36.29,11.95-.12-.06-.21-.12-.33-.18h0c-2.97-1.37-6.48-.81-8.88,1.42s-3.22,5.69-2.07,8.75c.74,2.03,2.27,3.67,4.24,4.54,3.2,1.47,6.99.69,9.35-1.93,2.36-2.62,2.76-6.47.97-9.51,8.98-7.95,20.88-11.78,32.82-10.56,11.93,1.23,22.8,7.4,29.98,17.01,7.18,9.61,10,21.79,7.78,33.58-.11.58.01,1.19.35,1.68.33.49.85.83,1.43.94.14.03.28.05.42.06h0Z"/>
  <path class="cls-4" d="m95.85,61.98c1.09-.01,2.03-.79,2.23-1.87,2.45-13.07-.71-26.57-8.7-37.2-7.99-10.63-20.08-17.41-33.31-18.7-13.24-1.29-26.41,3.05-36.29,11.95-.12-.06-.21-.12-.33-.18h0c-2.97-1.37-6.48-.81-8.88,1.42s-3.22,5.69-2.07,8.75c.74,2.03,2.27,3.67,4.24,4.54,3.2,1.47,6.99.69,9.35-1.93,2.36-2.62,2.76-6.47.97-9.51,8.98-7.95,20.88-11.78,32.82-10.56,11.93,1.23,22.8,7.4,29.98,17.01,7.18,9.61,10,21.79,7.78,33.58-.11.58.01,1.19.35,1.68.33.49.85.83,1.43.94.14.03.28.05.42.06h0Z"/>
  <path class="cls-4" d="m4.88,42.65c-2.49,13.08.63,26.6,8.62,37.26,7.99,10.65,20.1,17.45,33.35,18.72,13.25,1.27,26.43-3.1,36.3-12.03l.36.18h0c1.06.48,2.2.74,3.37.75.97,0,1.93-.19,2.83-.54,3.06-1.15,5.13-4.03,5.24-7.31.11-3.27-1.76-6.28-4.74-7.63-2.98-1.35-6.48-.78-8.87,1.46-2.39,2.23-3.2,5.69-2.05,8.75.16.43.36.84.6,1.23-8.98,7.95-20.88,11.78-32.82,10.55-11.93-1.23-22.8-7.4-29.98-17.01-7.18-9.61-10-21.79-7.78-33.58.22-1.22-.59-2.39-1.81-2.61-1.22-.22-2.39.58-2.62,1.8h0Z"/>
  <path class="cls-4" d="m35.38,79.43c4.87,2.82,10.41,4.3,16.04,4.31,2.87,0,5.74-.38,8.52-1.15,8.29-2.24,15.36-7.68,19.64-15.13,4.28-7.45,5.42-16.29,3.18-24.59-2.25-8.29-7.7-15.35-15.14-19.62-7.45-4.27-16.3-5.41-24.59-3.16-8.29,2.25-15.34,7.7-19.62,15.16-4.27,7.45-5.4,16.3-3.14,24.59,2.2,8.3,7.65,15.36,15.11,19.6h0Zm-5.66-14.3c2.98-2.03,6.29-3.54,9.78-4.45,4.76-.88,8.61-4.34,9.99-8.97,1.79-3.39,4.07-6.5,6.77-9.21,3.61-4.06,6.74-7.55,5.57-10.99-.99-2.92-4.63-3.88-7.25-4.36-2.63-.28-5.09-1.46-6.95-3.34,1.28-.18,2.56-.27,3.85-.27,7.86.02,15.34,3.36,20.62,9.18-2.14,14.93-8.22,18.66-13.57,21.94-7.31,4.46-11.5,8.46-6.89,24.53-9.59.07-18.53-4.82-23.66-12.91.54-.36,1.12-.72,1.75-1.15h0Z"/>
</svg>