<?xml version="1.0" encoding="utf-8"?>
<!-- Generator: Adobe Illustrator 28.0.0, SVG Export Plug-In . SVG Version: 6.00 Build 0)  -->
<svg version="1.1" id="Layer_1" xmlns="http://www.w3.org/2000/svg" xmlns:xlink="http://www.w3.org/1999/xlink" x="0px" y="0px"
	 viewBox="0 0 230.7 64" style="enable-background:new 0 0 230.7 64;" xml:space="preserve">
<style type="text/css">
	.st0{fill-rule:evenodd;clip-rule:evenodd;fill:#008BBE;}
	.st1{fill:#008BBE;}
</style>
<path class="st0" d="M23.2,13.3c-2.6,0-5.1,1-7,2.9c-4,4-3.8,10.4,0.3,14.2l0,0c1.8,1.7,4.2,2.6,6.7,2.6l0,13.3l-3.5,0l-1.4-5.5
	c-1.4-0.4-2.8-1-4.1-1.7l-4.9,2.9l-0.8-0.8c-1.1-1.1-2.2-2.2-3.4-3.4l-0.8-0.8l2.9-4.9c-0.7-1.3-1.3-2.7-1.7-4.1L0,26.7l0-7l5.5-1.4
	c0.4-1.4,1-2.8,1.7-4.1L4.3,9.3l4.9-4.9l4.9,2.9c1.3-0.7,2.7-1.3,4.1-1.7L19.7,0l3.5,0L23.2,13.3z"/>
<g>
	<path class="st1" d="M31.3,19.1V6.5h5.3c0.8,0,1.5,0.1,2.1,0.4C39.2,7.2,39.7,7.5,40,8c0.3,0.5,0.5,1.1,0.5,1.8V10
		c0,0.8-0.2,1.4-0.6,1.9c-0.4,0.5-0.8,0.8-1.4,1v0.3c0.5,0,0.8,0.2,1.1,0.5c0.3,0.3,0.4,0.7,0.4,1.2v4.2h-2v-3.9
		c0-0.3-0.1-0.6-0.3-0.8c-0.2-0.2-0.4-0.3-0.8-0.3h-3.8v5H31.3z M33.2,12.3h3.1c0.7,0,1.2-0.2,1.6-0.5c0.4-0.4,0.6-0.8,0.6-1.4v-0.1
		c0-0.6-0.2-1.1-0.6-1.4c-0.4-0.4-0.9-0.5-1.6-0.5h-3.1V12.3z"/>
	<path class="st1" d="M46.7,19.3c-0.9,0-1.7-0.2-2.4-0.6s-1.2-0.9-1.6-1.6s-0.6-1.5-0.6-2.4v-0.2c0-0.9,0.2-1.7,0.6-2.4
		c0.4-0.7,0.9-1.2,1.6-1.6s1.4-0.6,2.3-0.6c0.9,0,1.6,0.2,2.2,0.6c0.6,0.4,1.1,0.9,1.5,1.6c0.4,0.7,0.5,1.5,0.5,2.4v0.7h-6.8
		c0,0.8,0.3,1.4,0.8,1.9c0.5,0.5,1.1,0.7,1.9,0.7c0.7,0,1.2-0.2,1.6-0.5s0.6-0.7,0.8-1.1l1.5,0.8c-0.2,0.3-0.4,0.7-0.7,1.1
		c-0.3,0.4-0.7,0.7-1.3,0.9S47.6,19.3,46.7,19.3z M44.2,13.7h4.9c0-0.7-0.3-1.2-0.7-1.6s-1-0.6-1.7-0.6c-0.7,0-1.3,0.2-1.7,0.6
		C44.5,12.5,44.3,13.1,44.2,13.7z"/>
	<path class="st1" d="M56.8,19.3c-1.1,0-2.1-0.3-2.8-0.8c-0.7-0.5-1.2-1.3-1.4-2.3l1.7-0.4c0.1,0.5,0.3,0.9,0.5,1.2
		c0.2,0.3,0.5,0.5,0.9,0.6c0.3,0.1,0.7,0.2,1.1,0.2c0.6,0,1-0.1,1.4-0.3c0.3-0.2,0.5-0.5,0.5-0.9c0-0.4-0.2-0.6-0.5-0.8
		s-0.7-0.3-1.3-0.4l-0.6-0.1c-0.6-0.1-1.1-0.3-1.6-0.5s-0.9-0.5-1.2-0.8c-0.3-0.4-0.4-0.8-0.4-1.4c0-0.8,0.3-1.5,0.9-2
		c0.6-0.5,1.5-0.7,2.5-0.7c1,0,1.8,0.2,2.5,0.7c0.6,0.5,1.1,1.1,1.3,1.8l-1.7,0.5c-0.1-0.5-0.3-0.9-0.7-1.1s-0.8-0.3-1.3-0.3
		c-0.5,0-0.9,0.1-1.2,0.3c-0.3,0.2-0.4,0.4-0.4,0.8c0,0.4,0.1,0.6,0.4,0.8s0.7,0.3,1.1,0.4l0.6,0.1c0.6,0.1,1.2,0.3,1.7,0.4
		c0.5,0.2,0.9,0.5,1.3,0.8c0.3,0.4,0.5,0.8,0.5,1.4c0,0.9-0.3,1.6-1,2.1C58.8,19.1,57.9,19.3,56.8,19.3z"/>
	<path class="st1" d="M62.6,22.7V10.2h1.8v1.3h0.3c0.2-0.4,0.6-0.7,1-1.1c0.5-0.3,1.1-0.5,2-0.5c0.7,0,1.4,0.2,2,0.5
		s1.1,0.9,1.5,1.6c0.4,0.7,0.6,1.5,0.6,2.5v0.3c0,1-0.2,1.8-0.6,2.5c-0.4,0.7-0.9,1.2-1.5,1.6s-1.3,0.5-2.1,0.5
		c-0.6,0-1.1-0.1-1.5-0.2c-0.4-0.1-0.7-0.3-1-0.5c-0.2-0.2-0.4-0.5-0.6-0.7h-0.3v4.8H62.6z M67.2,17.7c0.8,0,1.5-0.3,2-0.8
		c0.5-0.5,0.8-1.3,0.8-2.2v-0.2c0-0.9-0.3-1.7-0.8-2.2c-0.5-0.5-1.2-0.8-2-0.8c-0.8,0-1.4,0.3-2,0.8c-0.5,0.5-0.8,1.2-0.8,2.2v0.2
		c0,1,0.3,1.7,0.8,2.2C65.8,17.5,66.4,17.7,67.2,17.7z"/>
	<path class="st1" d="M78.3,19.3c-0.9,0-1.7-0.2-2.4-0.5c-0.7-0.4-1.2-0.9-1.6-1.6c-0.4-0.7-0.6-1.5-0.6-2.4v-0.3
		c0-0.9,0.2-1.7,0.6-2.4c0.4-0.7,0.9-1.2,1.6-1.6c0.7-0.4,1.5-0.6,2.4-0.6c0.9,0,1.7,0.2,2.4,0.6c0.7,0.4,1.2,0.9,1.6,1.6
		c0.4,0.7,0.6,1.5,0.6,2.4v0.3c0,0.9-0.2,1.7-0.6,2.4c-0.4,0.7-0.9,1.2-1.6,1.6C80,19.2,79.2,19.3,78.3,19.3z M78.3,17.7
		c0.8,0,1.5-0.3,2-0.8c0.5-0.5,0.8-1.2,0.8-2.2v-0.2c0-0.9-0.3-1.6-0.8-2.2c-0.5-0.5-1.2-0.8-2-0.8c-0.8,0-1.5,0.3-2,0.8
		s-0.8,1.2-0.8,2.2v0.2c0,0.9,0.3,1.6,0.8,2.2S77.5,17.7,78.3,17.7z"/>
	<path class="st1" d="M85.3,19.1v-8.9h1.8v1.3h0.3c0.2-0.4,0.5-0.7,0.9-1s1.1-0.5,1.9-0.5c0.7,0,1.3,0.2,1.8,0.5
		c0.5,0.3,0.9,0.7,1.2,1.3c0.3,0.5,0.5,1.2,0.5,2v5.3h-1.9v-5.2c0-0.8-0.2-1.3-0.6-1.7c-0.4-0.4-0.9-0.5-1.6-0.5
		c-0.8,0-1.4,0.3-1.8,0.8c-0.5,0.5-0.7,1.2-0.7,2.2v4.5H85.3z"/>
	<path class="st1" d="M100,19.3c-1.1,0-2.1-0.3-2.8-0.8c-0.7-0.5-1.2-1.3-1.4-2.3l1.7-0.4c0.1,0.5,0.3,0.9,0.5,1.2
		c0.2,0.3,0.5,0.5,0.9,0.6c0.3,0.1,0.7,0.2,1.1,0.2c0.6,0,1-0.1,1.4-0.3c0.3-0.2,0.5-0.5,0.5-0.9c0-0.4-0.2-0.6-0.5-0.8
		s-0.7-0.3-1.3-0.4l-0.6-0.1c-0.6-0.1-1.1-0.3-1.6-0.5s-0.9-0.5-1.2-0.8c-0.3-0.4-0.4-0.8-0.4-1.4c0-0.8,0.3-1.5,0.9-2
		c0.6-0.5,1.5-0.7,2.5-0.7c1,0,1.8,0.2,2.5,0.7c0.6,0.5,1.1,1.1,1.3,1.8l-1.7,0.5c-0.1-0.5-0.3-0.9-0.7-1.1s-0.8-0.3-1.3-0.3
		c-0.5,0-0.9,0.1-1.2,0.3c-0.3,0.2-0.4,0.4-0.4,0.8c0,0.4,0.1,0.6,0.4,0.8s0.7,0.3,1.1,0.4l0.6,0.1c0.6,0.1,1.2,0.3,1.7,0.4
		c0.5,0.2,0.9,0.5,1.3,0.8c0.3,0.4,0.5,0.8,0.5,1.4c0,0.9-0.3,1.6-1,2.1C102,19.1,101.1,19.3,100,19.3z"/>
	<path class="st1" d="M106.7,9c-0.4,0-0.7-0.1-0.9-0.4c-0.2-0.2-0.4-0.5-0.4-0.9s0.1-0.7,0.4-0.9s0.5-0.4,0.9-0.4
		c0.4,0,0.7,0.1,0.9,0.4s0.4,0.5,0.4,0.9s-0.1,0.7-0.4,0.9C107.4,8.9,107.1,9,106.7,9z M105.8,19.1v-8.9h1.9v8.9H105.8z"/>
	<path class="st1" d="M115.5,19.3c-0.9,0-1.5-0.2-2-0.5c-0.5-0.3-0.8-0.7-1-1h-0.3v1.3h-1.8V6.5h1.9v4.9h0.3
		c0.1-0.2,0.3-0.5,0.6-0.7s0.6-0.4,1-0.5c0.4-0.1,0.9-0.2,1.5-0.2c0.7,0,1.4,0.2,2.1,0.5s1.1,0.9,1.5,1.6s0.6,1.5,0.6,2.4v0.3
		c0,1-0.2,1.8-0.6,2.5c-0.4,0.7-0.9,1.2-1.5,1.6S116.3,19.3,115.5,19.3z M115,17.7c0.8,0,1.5-0.3,2-0.8c0.5-0.5,0.8-1.3,0.8-2.2
		v-0.2c0-0.9-0.3-1.7-0.8-2.2c-0.5-0.5-1.2-0.8-2-0.8c-0.8,0-1.4,0.3-2,0.8c-0.5,0.5-0.8,1.2-0.8,2.2v0.2c0,1,0.3,1.7,0.8,2.2
		C113.5,17.5,114.2,17.7,115,17.7z"/>
	<path class="st1" d="M121.9,19.1V6.5h1.9v12.6H121.9z"/>
	<path class="st1" d="M130.6,19.3c-0.9,0-1.7-0.2-2.4-0.6s-1.2-0.9-1.6-1.6s-0.6-1.5-0.6-2.4v-0.2c0-0.9,0.2-1.7,0.6-2.4
		c0.4-0.7,0.9-1.2,1.6-1.6s1.4-0.6,2.3-0.6c0.9,0,1.6,0.2,2.2,0.6c0.6,0.4,1.1,0.9,1.5,1.6c0.4,0.7,0.5,1.5,0.5,2.4v0.7H128
		c0,0.8,0.3,1.4,0.8,1.9c0.5,0.5,1.1,0.7,1.9,0.7c0.7,0,1.2-0.2,1.6-0.5s0.6-0.7,0.8-1.1l1.5,0.8c-0.2,0.3-0.4,0.7-0.7,1.1
		c-0.3,0.4-0.7,0.7-1.3,0.9S131.4,19.3,130.6,19.3z M128,13.7h4.9c0-0.7-0.3-1.2-0.7-1.6s-1-0.6-1.7-0.6c-0.7,0-1.3,0.2-1.7,0.6
		C128.4,12.5,128.1,13.1,128,13.7z"/>
	<path class="st1" d="M141.6,19.1V6.5h1.9v12.6H141.6z"/>
	<path class="st1" d="M146.2,19.1v-8.9h1.8v1.3h0.3c0.2-0.4,0.5-0.7,0.9-1s1.1-0.5,1.9-0.5c0.7,0,1.3,0.2,1.8,0.5
		c0.5,0.3,0.9,0.7,1.2,1.3c0.3,0.5,0.5,1.2,0.5,2v5.3h-1.9v-5.2c0-0.8-0.2-1.3-0.6-1.7c-0.4-0.4-0.9-0.5-1.6-0.5
		c-0.8,0-1.4,0.3-1.8,0.8c-0.5,0.5-0.7,1.2-0.7,2.2v4.5H146.2z"/>
	<path class="st1" d="M157.3,19.1v-8.9h1.8v1.3h0.3c0.2-0.4,0.5-0.7,0.9-1s1.1-0.5,1.9-0.5c0.7,0,1.3,0.2,1.8,0.5
		c0.5,0.3,0.9,0.7,1.2,1.3c0.3,0.5,0.5,1.2,0.5,2v5.3h-1.9v-5.2c0-0.8-0.2-1.3-0.6-1.7c-0.4-0.4-0.9-0.5-1.6-0.5
		c-0.8,0-1.4,0.3-1.8,0.8c-0.5,0.5-0.7,1.2-0.7,2.2v4.5H157.3z"/>
	<path class="st1" d="M172.5,19.3c-0.9,0-1.7-0.2-2.4-0.5c-0.7-0.4-1.2-0.9-1.6-1.6c-0.4-0.7-0.6-1.5-0.6-2.4v-0.3
		c0-0.9,0.2-1.7,0.6-2.4c0.4-0.7,0.9-1.2,1.6-1.6c0.7-0.4,1.5-0.6,2.4-0.6c0.9,0,1.7,0.2,2.4,0.6c0.7,0.4,1.2,0.9,1.6,1.6
		c0.4,0.7,0.6,1.5,0.6,2.4v0.3c0,0.9-0.2,1.7-0.6,2.4c-0.4,0.7-0.9,1.2-1.6,1.6C174.2,19.2,173.4,19.3,172.5,19.3z M172.5,17.7
		c0.8,0,1.5-0.3,2-0.8c0.5-0.5,0.8-1.2,0.8-2.2v-0.2c0-0.9-0.3-1.6-0.8-2.2c-0.5-0.5-1.2-0.8-2-0.8c-0.8,0-1.5,0.3-2,0.8
		s-0.8,1.2-0.8,2.2v0.2c0,0.9,0.3,1.6,0.8,2.2S171.7,17.7,172.5,17.7z"/>
	<path class="st1" d="M181.2,19.1l-3-8.9h2l2.4,7.5h0.3l2.4-7.5h2l-3,8.9H181.2z"/>
	<path class="st1" d="M191.4,19.3c-0.6,0-1.2-0.1-1.7-0.3c-0.5-0.2-0.9-0.5-1.2-1c-0.3-0.4-0.4-0.9-0.4-1.5c0-0.6,0.1-1.1,0.4-1.5
		c0.3-0.4,0.7-0.7,1.2-0.9c0.5-0.2,1.1-0.3,1.7-0.3h2.7v-0.6c0-0.5-0.2-0.9-0.5-1.2c-0.3-0.3-0.8-0.5-1.4-0.5
		c-0.6,0-1.1,0.2-1.5,0.5s-0.6,0.7-0.7,1.2l-1.7-0.6c0.1-0.5,0.4-0.9,0.7-1.3c0.3-0.4,0.7-0.7,1.3-0.9c0.5-0.2,1.2-0.4,1.9-0.4
		c1.2,0,2.1,0.3,2.7,0.9c0.7,0.6,1,1.4,1,2.5V17c0,0.4,0.2,0.5,0.5,0.5h0.8v1.5h-1.4c-0.4,0-0.8-0.1-1-0.3c-0.3-0.2-0.4-0.5-0.4-0.9
		v-0.1h-0.3c-0.1,0.2-0.2,0.4-0.4,0.6c-0.2,0.2-0.5,0.4-0.8,0.6S192,19.3,191.4,19.3z M191.7,17.8c0.7,0,1.3-0.2,1.8-0.6
		c0.5-0.4,0.7-1,0.7-1.8v-0.2h-2.6c-0.5,0-0.9,0.1-1.2,0.3c-0.3,0.2-0.4,0.5-0.4,0.9s0.2,0.7,0.5,1
		C190.7,17.7,191.1,17.8,191.7,17.8z"/>
	<path class="st1" d="M201.7,19.1c-0.5,0-1-0.2-1.3-0.5c-0.3-0.3-0.5-0.8-0.5-1.3v-5.5h-2.4v-1.6h2.4V7.3h1.9v2.9h2.6v1.6h-2.6V17
		c0,0.4,0.2,0.5,0.5,0.5h1.9v1.6H201.7z"/>
	<path class="st1" d="M207.6,9c-0.4,0-0.7-0.1-0.9-0.4c-0.2-0.2-0.4-0.5-0.4-0.9s0.1-0.7,0.4-0.9s0.5-0.4,0.9-0.4
		c0.4,0,0.7,0.1,0.9,0.4s0.4,0.5,0.4,0.9s-0.1,0.7-0.4,0.9C208.3,8.9,208,9,207.6,9z M206.7,19.1v-8.9h1.9v8.9H206.7z"/>
	<path class="st1" d="M215.4,19.3c-0.9,0-1.7-0.2-2.4-0.5c-0.7-0.4-1.2-0.9-1.6-1.6c-0.4-0.7-0.6-1.5-0.6-2.4v-0.3
		c0-0.9,0.2-1.7,0.6-2.4c0.4-0.7,0.9-1.2,1.6-1.6c0.7-0.4,1.5-0.6,2.4-0.6c0.9,0,1.7,0.2,2.4,0.6c0.7,0.4,1.2,0.9,1.6,1.6
		c0.4,0.7,0.6,1.5,0.6,2.4v0.3c0,0.9-0.2,1.7-0.6,2.4c-0.4,0.7-0.9,1.2-1.6,1.6C217.1,19.2,216.3,19.3,215.4,19.3z M215.4,17.7
		c0.8,0,1.5-0.3,2-0.8c0.5-0.5,0.8-1.2,0.8-2.2v-0.2c0-0.9-0.3-1.6-0.8-2.2c-0.5-0.5-1.2-0.8-2-0.8c-0.8,0-1.5,0.3-2,0.8
		s-0.8,1.2-0.8,2.2v0.2c0,0.9,0.3,1.6,0.8,2.2S214.6,17.7,215.4,17.7z"/>
	<path class="st1" d="M222.3,19.1v-8.9h1.8v1.3h0.3c0.2-0.4,0.5-0.7,0.9-1s1.1-0.5,1.9-0.5c0.7,0,1.3,0.2,1.8,0.5
		c0.5,0.3,0.9,0.7,1.2,1.3c0.3,0.5,0.5,1.2,0.5,2v5.3h-1.9v-5.2c0-0.8-0.2-1.3-0.6-1.7c-0.4-0.4-0.9-0.5-1.6-0.5
		c-0.8,0-1.4,0.3-1.8,0.8c-0.5,0.5-0.7,1.2-0.7,2.2v4.5H222.3z"/>
	<path class="st1" d="M30.3,40.7l3.6-12.6h3.4l3.6,12.6h-2l-0.8-3h-4.9l-0.8,3H30.3z M33.6,35.9h4l-1.8-6.6h-0.3L33.6,35.9z"/>
	<path class="st1" d="M46.3,40.9c-1.1,0-2.1-0.3-2.8-0.8c-0.7-0.5-1.2-1.3-1.4-2.3l1.7-0.4c0.1,0.5,0.3,0.9,0.5,1.2
		c0.2,0.3,0.5,0.5,0.9,0.6c0.3,0.1,0.7,0.2,1.1,0.2c0.6,0,1-0.1,1.4-0.3c0.3-0.2,0.5-0.5,0.5-0.9c0-0.4-0.2-0.6-0.5-0.8
		S47,37.1,46.4,37l-0.6-0.1c-0.6-0.1-1.1-0.3-1.6-0.5s-0.9-0.5-1.2-0.8c-0.3-0.4-0.4-0.8-0.4-1.4c0-0.8,0.3-1.5,0.9-2
		c0.6-0.5,1.5-0.7,2.5-0.7c1,0,1.8,0.2,2.5,0.7c0.6,0.5,1.1,1.1,1.3,1.8l-1.7,0.5c-0.1-0.5-0.3-0.9-0.7-1.1
		c-0.3-0.2-0.8-0.3-1.3-0.3c-0.5,0-0.9,0.1-1.2,0.3c-0.3,0.2-0.4,0.4-0.4,0.8c0,0.4,0.1,0.6,0.4,0.8s0.7,0.3,1.1,0.4l0.6,0.1
		c0.6,0.1,1.2,0.3,1.7,0.5c0.5,0.2,0.9,0.5,1.3,0.8c0.3,0.4,0.5,0.8,0.5,1.4c0,0.9-0.3,1.6-1,2.1C48.3,40.7,47.4,40.9,46.3,40.9z"/>
	<path class="st1" d="M55.8,40.9c-1.1,0-2.1-0.3-2.8-0.8c-0.7-0.5-1.2-1.3-1.4-2.3l1.7-0.4c0.1,0.5,0.3,0.9,0.5,1.2
		c0.2,0.3,0.5,0.5,0.9,0.6c0.3,0.1,0.7,0.2,1.1,0.2c0.6,0,1-0.1,1.4-0.3c0.3-0.2,0.5-0.5,0.5-0.9c0-0.4-0.2-0.6-0.5-0.8
		s-0.7-0.3-1.3-0.4l-0.6-0.1c-0.6-0.1-1.1-0.3-1.6-0.5s-0.9-0.5-1.2-0.8c-0.3-0.4-0.4-0.8-0.4-1.4c0-0.8,0.3-1.5,0.9-2
		c0.6-0.5,1.5-0.7,2.5-0.7c1,0,1.8,0.2,2.5,0.7c0.6,0.5,1.1,1.1,1.3,1.8l-1.7,0.5c-0.1-0.5-0.3-0.9-0.7-1.1
		c-0.3-0.2-0.8-0.3-1.3-0.3c-0.5,0-0.9,0.1-1.2,0.3c-0.3,0.2-0.4,0.4-0.4,0.8c0,0.4,0.1,0.6,0.4,0.8s0.7,0.3,1.1,0.4l0.6,0.1
		c0.6,0.1,1.2,0.3,1.7,0.5c0.5,0.2,0.9,0.5,1.3,0.8c0.3,0.4,0.5,0.8,0.5,1.4c0,0.9-0.3,1.6-1,2.1C57.8,40.7,56.9,40.9,55.8,40.9z"/>
	<path class="st1" d="M65.6,40.9c-0.9,0-1.7-0.2-2.4-0.6c-0.7-0.4-1.2-0.9-1.6-1.6c-0.4-0.7-0.6-1.5-0.6-2.4v-0.2
		c0-0.9,0.2-1.7,0.6-2.4c0.4-0.7,0.9-1.2,1.6-1.6c0.7-0.4,1.4-0.6,2.3-0.6c0.9,0,1.6,0.2,2.2,0.6c0.6,0.4,1.1,0.9,1.5,1.6
		c0.4,0.7,0.5,1.5,0.5,2.4v0.7H63c0,0.8,0.3,1.4,0.8,1.9c0.5,0.5,1.1,0.7,1.9,0.7c0.7,0,1.2-0.2,1.6-0.5c0.4-0.3,0.6-0.7,0.8-1.1
		l1.5,0.8c-0.2,0.3-0.4,0.7-0.7,1.1c-0.3,0.4-0.7,0.7-1.3,0.9S66.5,40.9,65.6,40.9z M63.1,35.3H68c0-0.7-0.3-1.2-0.7-1.6
		s-1-0.6-1.7-0.6c-0.7,0-1.3,0.2-1.7,0.6C63.4,34.1,63.2,34.7,63.1,35.3z"/>
	<path class="st1" d="M75.7,40.9c-1.1,0-2.1-0.3-2.8-0.8c-0.7-0.5-1.2-1.3-1.4-2.3l1.7-0.4c0.1,0.5,0.3,0.9,0.5,1.2
		c0.2,0.3,0.5,0.5,0.9,0.6c0.3,0.1,0.7,0.2,1.1,0.2c0.6,0,1-0.1,1.4-0.3c0.3-0.2,0.5-0.5,0.5-0.9c0-0.4-0.2-0.6-0.5-0.8
		s-0.7-0.3-1.3-0.4l-0.6-0.1c-0.6-0.1-1.1-0.3-1.6-0.5s-0.9-0.5-1.2-0.8c-0.3-0.4-0.4-0.8-0.4-1.4c0-0.8,0.3-1.5,0.9-2
		c0.6-0.5,1.5-0.7,2.5-0.7c1,0,1.8,0.2,2.5,0.7c0.6,0.5,1.1,1.1,1.3,1.8l-1.7,0.5c-0.1-0.5-0.3-0.9-0.7-1.1
		c-0.3-0.2-0.8-0.3-1.3-0.3c-0.5,0-0.9,0.1-1.2,0.3c-0.3,0.2-0.4,0.4-0.4,0.8c0,0.4,0.1,0.6,0.4,0.8s0.7,0.3,1.1,0.4l0.6,0.1
		c0.6,0.1,1.2,0.3,1.7,0.5c0.5,0.2,0.9,0.5,1.3,0.8c0.3,0.4,0.5,0.8,0.5,1.4c0,0.9-0.3,1.6-1,2.1C77.7,40.7,76.8,40.9,75.7,40.9z"/>
	<path class="st1" d="M85.2,40.9c-1.1,0-2.1-0.3-2.8-0.8c-0.7-0.5-1.2-1.3-1.4-2.3l1.7-0.4c0.1,0.5,0.3,0.9,0.5,1.2
		c0.2,0.3,0.5,0.5,0.9,0.6c0.3,0.1,0.7,0.2,1.1,0.2c0.6,0,1-0.1,1.4-0.3c0.3-0.2,0.5-0.5,0.5-0.9c0-0.4-0.2-0.6-0.5-0.8
		s-0.7-0.3-1.3-0.4l-0.6-0.1c-0.6-0.1-1.1-0.3-1.6-0.5s-0.9-0.5-1.2-0.8c-0.3-0.4-0.4-0.8-0.4-1.4c0-0.8,0.3-1.5,0.9-2
		c0.6-0.5,1.5-0.7,2.5-0.7c1,0,1.8,0.2,2.5,0.7c0.6,0.5,1.1,1.1,1.3,1.8l-1.7,0.5c-0.1-0.5-0.3-0.9-0.7-1.1
		c-0.3-0.2-0.8-0.3-1.3-0.3c-0.5,0-0.9,0.1-1.2,0.3c-0.3,0.2-0.4,0.4-0.4,0.8c0,0.4,0.1,0.6,0.4,0.8s0.7,0.3,1.1,0.4l0.6,0.1
		c0.6,0.1,1.2,0.3,1.7,0.5c0.5,0.2,0.9,0.5,1.3,0.8c0.3,0.4,0.5,0.8,0.5,1.4c0,0.9-0.3,1.6-1,2.1C87.2,40.7,86.3,40.9,85.2,40.9z"/>
	<path class="st1" d="M91,40.7v-8.9h1.8v1h0.3c0.2-0.3,0.4-0.6,0.8-0.8c0.4-0.2,0.9-0.4,1.5-0.4c0.7,0,1.2,0.1,1.6,0.4
		c0.4,0.3,0.7,0.6,0.9,1h0.3c0.2-0.4,0.5-0.8,0.9-1c0.4-0.3,0.9-0.4,1.7-0.4c0.6,0,1.1,0.1,1.5,0.4c0.4,0.2,0.8,0.6,1.1,1
		c0.3,0.5,0.4,1,0.4,1.7v5.9h-1.9v-5.8c0-0.5-0.1-1-0.4-1.3s-0.7-0.4-1.3-0.4c-0.6,0-1,0.2-1.4,0.6c-0.3,0.4-0.5,0.9-0.5,1.6v5.3
		h-1.9v-5.8c0-0.5-0.1-1-0.4-1.3s-0.7-0.4-1.3-0.4c-0.6,0-1,0.2-1.4,0.6c-0.3,0.4-0.5,0.9-0.5,1.6v5.3H91z"/>
	<path class="st1" d="M110.5,40.9c-0.9,0-1.7-0.2-2.4-0.6c-0.7-0.4-1.2-0.9-1.6-1.6c-0.4-0.7-0.6-1.5-0.6-2.4v-0.2
		c0-0.9,0.2-1.7,0.6-2.4c0.4-0.7,0.9-1.2,1.6-1.6c0.7-0.4,1.4-0.6,2.3-0.6c0.9,0,1.6,0.2,2.2,0.6c0.6,0.4,1.1,0.9,1.5,1.6
		c0.4,0.7,0.5,1.5,0.5,2.4v0.7h-6.8c0,0.8,0.3,1.4,0.8,1.9c0.5,0.5,1.1,0.7,1.9,0.7c0.7,0,1.2-0.2,1.6-0.5c0.4-0.3,0.6-0.7,0.8-1.1
		l1.5,0.8c-0.2,0.3-0.4,0.7-0.7,1.1c-0.3,0.4-0.7,0.7-1.3,0.9S111.3,40.9,110.5,40.9z M107.9,35.3h4.9c0-0.7-0.3-1.2-0.7-1.6
		s-1-0.6-1.7-0.6c-0.7,0-1.3,0.2-1.7,0.6C108.3,34.1,108,34.7,107.9,35.3z"/>
	<path class="st1" d="M116.9,40.7v-8.9h1.8v1.3h0.3c0.2-0.4,0.5-0.7,0.9-1c0.4-0.3,1.1-0.5,1.9-0.5c0.7,0,1.3,0.1,1.8,0.4
		c0.5,0.3,0.9,0.7,1.2,1.3c0.3,0.5,0.5,1.2,0.5,2v5.3h-1.9v-5.2c0-0.8-0.2-1.3-0.6-1.7s-0.9-0.5-1.6-0.5c-0.8,0-1.4,0.3-1.8,0.8
		s-0.7,1.2-0.7,2.2v4.5H116.9z"/>
	<path class="st1" d="M131.1,40.7c-0.5,0-1-0.2-1.3-0.5c-0.3-0.3-0.5-0.8-0.5-1.3v-5.5h-2.4v-1.6h2.4v-2.9h1.9v2.9h2.6v1.6h-2.6v5.2
		c0,0.4,0.2,0.5,0.5,0.5h1.9v1.6H131.1z"/>
	<path class="st1" d="M143,40.7V29.8h-3.9v-1.8h9.7v1.8H145v10.8H143z"/>
	<path class="st1" d="M153.1,40.9c-0.9,0-1.7-0.2-2.4-0.5c-0.7-0.4-1.2-0.9-1.6-1.6c-0.4-0.7-0.6-1.5-0.6-2.4v-0.3
		c0-0.9,0.2-1.7,0.6-2.4c0.4-0.7,0.9-1.2,1.6-1.6c0.7-0.4,1.5-0.6,2.4-0.6c0.9,0,1.7,0.2,2.4,0.6c0.7,0.4,1.2,0.9,1.6,1.6
		c0.4,0.7,0.6,1.5,0.6,2.4v0.3c0,0.9-0.2,1.7-0.6,2.4c-0.4,0.7-0.9,1.2-1.6,1.6C154.8,40.8,154,40.9,153.1,40.9z M153.1,39.3
		c0.8,0,1.5-0.3,2-0.8c0.5-0.5,0.8-1.2,0.8-2.2v-0.2c0-0.9-0.3-1.6-0.8-2.2c-0.5-0.5-1.2-0.8-2-0.8c-0.8,0-1.5,0.3-2,0.8
		c-0.5,0.5-0.8,1.2-0.8,2.2v0.2c0,0.9,0.3,1.6,0.8,2.2C151.6,39,152.3,39.3,153.1,39.3z"/>
	<path class="st1" d="M164.1,40.9c-0.9,0-1.7-0.2-2.4-0.5c-0.7-0.4-1.2-0.9-1.6-1.6c-0.4-0.7-0.6-1.5-0.6-2.4v-0.3
		c0-0.9,0.2-1.7,0.6-2.4c0.4-0.7,0.9-1.2,1.6-1.6c0.7-0.4,1.5-0.6,2.4-0.6c0.9,0,1.7,0.2,2.4,0.6c0.7,0.4,1.2,0.9,1.6,1.6
		c0.4,0.7,0.6,1.5,0.6,2.4v0.3c0,0.9-0.2,1.7-0.6,2.4c-0.4,0.7-0.9,1.2-1.6,1.6C165.8,40.8,165,40.9,164.1,40.9z M164.1,39.3
		c0.8,0,1.5-0.3,2-0.8c0.5-0.5,0.8-1.2,0.8-2.2v-0.2c0-0.9-0.3-1.6-0.8-2.2c-0.5-0.5-1.2-0.8-2-0.8c-0.8,0-1.5,0.3-2,0.8
		c-0.5,0.5-0.8,1.2-0.8,2.2v0.2c0,0.9,0.3,1.6,0.8,2.2C162.7,39,163.3,39.3,164.1,39.3z"/>
	<path class="st1" d="M171.1,40.7V28.1h1.9v12.6H171.1z"/>
</g>
<g>
	<g>
		<path class="st1" d="M-388.2-84.7v-12.6h5.3c0.8,0,1.5,0.1,2.1,0.4s1.1,0.7,1.4,1.2c0.3,0.5,0.5,1.1,0.5,1.8v0.2
			c0,0.8-0.2,1.4-0.6,1.9c-0.4,0.5-0.8,0.8-1.4,1v0.3c0.5,0,0.8,0.2,1.1,0.5c0.3,0.3,0.4,0.7,0.4,1.2v4.2h-2v-3.9
			c0-0.3-0.1-0.6-0.3-0.8c-0.2-0.2-0.4-0.3-0.8-0.3h-3.8v5H-388.2z M-386.3-91.4h3.1c0.7,0,1.2-0.2,1.6-0.5c0.4-0.4,0.6-0.8,0.6-1.4
			v-0.1c0-0.6-0.2-1.1-0.6-1.4c-0.4-0.4-0.9-0.5-1.6-0.5h-3.1V-91.4z"/>
		<path class="st1" d="M-372.7-84.5c-0.9,0-1.7-0.2-2.4-0.6s-1.2-0.9-1.6-1.6s-0.6-1.5-0.6-2.4v-0.2c0-0.9,0.2-1.7,0.6-2.4
			c0.4-0.7,0.9-1.2,1.6-1.6s1.4-0.6,2.3-0.6c0.9,0,1.6,0.2,2.2,0.6c0.6,0.4,1.1,0.9,1.5,1.6c0.4,0.7,0.5,1.5,0.5,2.4v0.7h-6.8
			c0,0.8,0.3,1.4,0.8,1.9c0.5,0.5,1.1,0.7,1.9,0.7c0.7,0,1.2-0.2,1.6-0.5s0.6-0.7,0.8-1.1l1.5,0.8c-0.2,0.3-0.4,0.7-0.7,1.1
			c-0.3,0.4-0.7,0.7-1.3,0.9S-371.9-84.5-372.7-84.5z M-375.3-90.1h4.9c0-0.7-0.3-1.2-0.7-1.6s-1-0.6-1.7-0.6
			c-0.7,0-1.3,0.2-1.7,0.6C-375-91.3-375.2-90.7-375.3-90.1z"/>
		<path class="st1" d="M-362.7-84.5c-1.1,0-2.1-0.3-2.8-0.8c-0.7-0.5-1.2-1.3-1.4-2.3l1.7-0.4c0.1,0.5,0.3,0.9,0.5,1.2
			c0.2,0.3,0.5,0.5,0.9,0.6c0.3,0.1,0.7,0.2,1.1,0.2c0.6,0,1-0.1,1.4-0.3c0.3-0.2,0.5-0.5,0.5-0.9c0-0.4-0.2-0.6-0.5-0.8
			s-0.7-0.3-1.3-0.4l-0.6-0.1c-0.6-0.1-1.1-0.3-1.6-0.5s-0.9-0.5-1.2-0.8c-0.3-0.4-0.4-0.8-0.4-1.4c0-0.8,0.3-1.5,0.9-2
			c0.6-0.5,1.5-0.7,2.5-0.7c1,0,1.8,0.2,2.5,0.7c0.6,0.5,1.1,1.1,1.3,1.8l-1.7,0.5c-0.1-0.5-0.3-0.9-0.7-1.1s-0.8-0.3-1.3-0.3
			c-0.5,0-0.9,0.1-1.2,0.3c-0.3,0.2-0.4,0.4-0.4,0.8c0,0.4,0.1,0.6,0.4,0.8s0.7,0.3,1.1,0.4l0.6,0.1c0.6,0.1,1.2,0.3,1.7,0.4
			c0.5,0.2,0.9,0.5,1.3,0.8c0.3,0.4,0.5,0.8,0.5,1.4c0,0.9-0.3,1.6-1,2.1C-360.7-84.7-361.5-84.5-362.7-84.5z"/>
		<path class="st1" d="M-356.8-81.1v-12.5h1.8v1.3h0.3c0.2-0.4,0.6-0.7,1-1.1c0.5-0.3,1.1-0.5,2-0.5c0.7,0,1.4,0.2,2,0.5
			s1.1,0.9,1.5,1.6c0.4,0.7,0.6,1.5,0.6,2.5v0.3c0,1-0.2,1.8-0.6,2.5c-0.4,0.7-0.9,1.2-1.5,1.6s-1.3,0.5-2.1,0.5
			c-0.6,0-1.1-0.1-1.5-0.2c-0.4-0.1-0.7-0.3-1-0.5c-0.2-0.2-0.4-0.5-0.6-0.7h-0.3v4.8H-356.8z M-352.3-86.1c0.8,0,1.5-0.3,2-0.8
			c0.5-0.5,0.8-1.3,0.8-2.2v-0.2c0-0.9-0.3-1.7-0.8-2.2c-0.5-0.5-1.2-0.8-2-0.8c-0.8,0-1.4,0.3-2,0.8c-0.5,0.5-0.8,1.2-0.8,2.2v0.2
			c0,1,0.3,1.7,0.8,2.2C-353.7-86.3-353-86.1-352.3-86.1z"/>
		<path class="st1" d="M-341.1-84.5c-0.9,0-1.7-0.2-2.4-0.5c-0.7-0.4-1.2-0.9-1.6-1.6c-0.4-0.7-0.6-1.5-0.6-2.4v-0.3
			c0-0.9,0.2-1.7,0.6-2.4c0.4-0.7,0.9-1.2,1.6-1.6c0.7-0.4,1.5-0.6,2.4-0.6c0.9,0,1.7,0.2,2.4,0.6c0.7,0.4,1.2,0.9,1.6,1.6
			c0.4,0.7,0.6,1.5,0.6,2.4v0.3c0,0.9-0.2,1.7-0.6,2.4c-0.4,0.7-0.9,1.2-1.6,1.6C-339.5-84.6-340.3-84.5-341.1-84.5z M-341.1-86.1
			c0.8,0,1.5-0.3,2-0.8c0.5-0.5,0.8-1.2,0.8-2.2v-0.2c0-0.9-0.3-1.6-0.8-2.2c-0.5-0.5-1.2-0.8-2-0.8c-0.8,0-1.5,0.3-2,0.8
			s-0.8,1.2-0.8,2.2v0.2c0,0.9,0.3,1.6,0.8,2.2S-342-86.1-341.1-86.1z"/>
		<path class="st1" d="M-334.2-84.7v-8.9h1.8v1.3h0.3c0.2-0.4,0.5-0.7,0.9-1s1.1-0.5,1.9-0.5c0.7,0,1.3,0.2,1.8,0.5
			c0.5,0.3,0.9,0.7,1.2,1.3c0.3,0.5,0.5,1.2,0.5,2v5.3h-1.9v-5.2c0-0.8-0.2-1.3-0.6-1.7c-0.4-0.4-0.9-0.5-1.6-0.5
			c-0.8,0-1.4,0.3-1.8,0.8c-0.5,0.5-0.7,1.2-0.7,2.2v4.5H-334.2z"/>
		<path class="st1" d="M-319.5-84.5c-1.1,0-2.1-0.3-2.8-0.8c-0.7-0.5-1.2-1.3-1.4-2.3l1.7-0.4c0.1,0.5,0.3,0.9,0.5,1.2
			c0.2,0.3,0.5,0.5,0.9,0.6c0.3,0.1,0.7,0.2,1.1,0.2c0.6,0,1-0.1,1.4-0.3c0.3-0.2,0.5-0.5,0.5-0.9c0-0.4-0.2-0.6-0.5-0.8
			s-0.7-0.3-1.3-0.4l-0.6-0.1c-0.6-0.1-1.1-0.3-1.6-0.5s-0.9-0.5-1.2-0.8c-0.3-0.4-0.4-0.8-0.4-1.4c0-0.8,0.3-1.5,0.9-2
			c0.6-0.5,1.5-0.7,2.5-0.7c1,0,1.8,0.2,2.5,0.7c0.6,0.5,1.1,1.1,1.3,1.8l-1.7,0.5c-0.1-0.5-0.3-0.9-0.7-1.1s-0.8-0.3-1.3-0.3
			c-0.5,0-0.9,0.1-1.2,0.3c-0.3,0.2-0.4,0.4-0.4,0.8c0,0.4,0.1,0.6,0.4,0.8s0.7,0.3,1.1,0.4l0.6,0.1c0.6,0.1,1.2,0.3,1.7,0.4
			c0.5,0.2,0.9,0.5,1.3,0.8c0.3,0.4,0.5,0.8,0.5,1.4c0,0.9-0.3,1.6-1,2.1C-317.5-84.7-318.4-84.5-319.5-84.5z"/>
		<path class="st1" d="M-312.8-94.8c-0.4,0-0.7-0.1-0.9-0.4c-0.2-0.2-0.4-0.5-0.4-0.9s0.1-0.7,0.4-0.9s0.5-0.4,0.9-0.4
			c0.4,0,0.7,0.1,0.9,0.4s0.4,0.5,0.4,0.9s-0.1,0.7-0.4,0.9C-312.1-94.9-312.4-94.8-312.8-94.8z M-313.7-84.7v-8.9h1.9v8.9H-313.7z"
			/>
		<path class="st1" d="M-304-84.5c-0.9,0-1.5-0.2-2-0.5c-0.5-0.3-0.8-0.7-1-1h-0.3v1.3h-1.8v-12.6h1.9v4.9h0.3
			c0.1-0.2,0.3-0.5,0.6-0.7s0.6-0.4,1-0.5c0.4-0.1,0.9-0.2,1.5-0.2c0.7,0,1.4,0.2,2.1,0.5s1.1,0.9,1.5,1.6s0.6,1.5,0.6,2.4v0.3
			c0,1-0.2,1.8-0.6,2.5c-0.4,0.7-0.9,1.2-1.5,1.6S-303.2-84.5-304-84.5z M-304.5-86.1c0.8,0,1.5-0.3,2-0.8c0.5-0.5,0.8-1.3,0.8-2.2
			v-0.2c0-0.9-0.3-1.7-0.8-2.2c-0.5-0.5-1.2-0.8-2-0.8c-0.8,0-1.4,0.3-2,0.8c-0.5,0.5-0.8,1.2-0.8,2.2v0.2c0,1,0.3,1.7,0.8,2.2
			C-306-86.3-305.3-86.1-304.5-86.1z"/>
		<path class="st1" d="M-297.6-84.7v-12.6h1.9v12.6H-297.6z"/>
		<path class="st1" d="M-288.9-84.5c-0.9,0-1.7-0.2-2.4-0.6s-1.2-0.9-1.6-1.6s-0.6-1.5-0.6-2.4v-0.2c0-0.9,0.2-1.7,0.6-2.4
			c0.4-0.7,0.9-1.2,1.6-1.6s1.4-0.6,2.3-0.6c0.9,0,1.6,0.2,2.2,0.6c0.6,0.4,1.1,0.9,1.5,1.6c0.4,0.7,0.5,1.5,0.5,2.4v0.7h-6.8
			c0,0.8,0.3,1.4,0.8,1.9c0.5,0.5,1.1,0.7,1.9,0.7c0.7,0,1.2-0.2,1.6-0.5s0.6-0.7,0.8-1.1l1.5,0.8c-0.2,0.3-0.4,0.7-0.7,1.1
			c-0.3,0.4-0.7,0.7-1.3,0.9S-288.1-84.5-288.9-84.5z M-291.5-90.1h4.9c0-0.7-0.3-1.2-0.7-1.6s-1-0.6-1.7-0.6
			c-0.7,0-1.3,0.2-1.7,0.6C-291.1-91.3-291.4-90.7-291.5-90.1z"/>
		<path class="st1" d="M-277.9-84.7v-12.6h1.9v12.6H-277.9z"/>
		<path class="st1" d="M-273.3-84.7v-8.9h1.8v1.3h0.3c0.2-0.4,0.5-0.7,0.9-1s1.1-0.5,1.9-0.5c0.7,0,1.3,0.2,1.8,0.5
			c0.5,0.3,0.9,0.7,1.2,1.3c0.3,0.5,0.5,1.2,0.5,2v5.3h-1.9v-5.2c0-0.8-0.2-1.3-0.6-1.7c-0.4-0.4-0.9-0.5-1.6-0.5
			c-0.8,0-1.4,0.3-1.8,0.8c-0.5,0.5-0.7,1.2-0.7,2.2v4.5H-273.3z"/>
		<path class="st1" d="M-262.2-84.7v-8.9h1.8v1.3h0.3c0.2-0.4,0.5-0.7,0.9-1s1.1-0.5,1.9-0.5c0.7,0,1.3,0.2,1.8,0.5
			c0.5,0.3,0.9,0.7,1.2,1.3c0.3,0.5,0.5,1.2,0.5,2v5.3h-1.9v-5.2c0-0.8-0.2-1.3-0.6-1.7c-0.4-0.4-0.9-0.5-1.6-0.5
			c-0.8,0-1.4,0.3-1.8,0.8c-0.5,0.5-0.7,1.2-0.7,2.2v4.5H-262.2z"/>
		<path class="st1" d="M-247-84.5c-0.9,0-1.7-0.2-2.4-0.5c-0.7-0.4-1.2-0.9-1.6-1.6c-0.4-0.7-0.6-1.5-0.6-2.4v-0.3
			c0-0.9,0.2-1.7,0.6-2.4c0.4-0.7,0.9-1.2,1.6-1.6c0.7-0.4,1.5-0.6,2.4-0.6c0.9,0,1.7,0.2,2.4,0.6c0.7,0.4,1.2,0.9,1.6,1.6
			c0.4,0.7,0.6,1.5,0.6,2.4v0.3c0,0.9-0.2,1.7-0.6,2.4c-0.4,0.7-0.9,1.2-1.6,1.6C-245.3-84.6-246.1-84.5-247-84.5z M-247-86.1
			c0.8,0,1.5-0.3,2-0.8c0.5-0.5,0.8-1.2,0.8-2.2v-0.2c0-0.9-0.3-1.6-0.8-2.2c-0.5-0.5-1.2-0.8-2-0.8c-0.8,0-1.5,0.3-2,0.8
			s-0.8,1.2-0.8,2.2v0.2c0,0.9,0.3,1.6,0.8,2.2S-247.8-86.1-247-86.1z"/>
		<path class="st1" d="M-238-84.7l-3-8.9h2l2.4,7.5h0.3l2.4-7.5h2l-3,8.9H-238z"/>
		<path class="st1" d="M-227.5-84.5c-0.6,0-1.2-0.1-1.7-0.3c-0.5-0.2-0.9-0.5-1.2-1c-0.3-0.4-0.4-0.9-0.4-1.5c0-0.6,0.1-1.1,0.4-1.5
			c0.3-0.4,0.7-0.7,1.2-0.9c0.5-0.2,1.1-0.3,1.7-0.3h2.7v-0.6c0-0.5-0.2-0.9-0.5-1.2c-0.3-0.3-0.8-0.5-1.4-0.5
			c-0.6,0-1.1,0.2-1.5,0.5s-0.6,0.7-0.7,1.2l-1.7-0.6c0.1-0.5,0.4-0.9,0.7-1.3c0.3-0.4,0.7-0.7,1.3-0.9c0.5-0.2,1.2-0.4,1.9-0.4
			c1.2,0,2.1,0.3,2.7,0.9c0.7,0.6,1,1.4,1,2.5v3.7c0,0.4,0.2,0.5,0.5,0.5h0.8v1.5h-1.4c-0.4,0-0.8-0.1-1-0.3
			c-0.3-0.2-0.4-0.5-0.4-0.9V-86h-0.3c-0.1,0.2-0.2,0.4-0.4,0.6c-0.2,0.2-0.5,0.4-0.8,0.6S-226.9-84.5-227.5-84.5z M-227.3-86
			c0.7,0,1.3-0.2,1.8-0.6c0.5-0.4,0.7-1,0.7-1.8v-0.2h-2.6c-0.5,0-0.9,0.1-1.2,0.3c-0.3,0.2-0.4,0.5-0.4,0.9s0.2,0.7,0.5,1
			C-228.2-86.1-227.8-86-227.3-86z"/>
		<path class="st1" d="M-216.6-84.7c-0.5,0-1-0.2-1.3-0.5c-0.3-0.3-0.5-0.8-0.5-1.3V-92h-2.4v-1.6h2.4v-2.9h1.9v2.9h2.6v1.6h-2.6
			v5.2c0,0.4,0.2,0.5,0.5,0.5h1.9v1.6H-216.6z"/>
		<path class="st1" d="M-210.7-94.8c-0.4,0-0.7-0.1-0.9-0.4c-0.2-0.2-0.4-0.5-0.4-0.9s0.1-0.7,0.4-0.9s0.5-0.4,0.9-0.4
			c0.4,0,0.7,0.1,0.9,0.4s0.4,0.5,0.4,0.9s-0.1,0.7-0.4,0.9C-210-94.9-210.4-94.8-210.7-94.8z M-211.7-84.7v-8.9h1.9v8.9H-211.7z"/>
		<path class="st1" d="M-202.9-84.5c-0.9,0-1.7-0.2-2.4-0.5c-0.7-0.4-1.2-0.9-1.6-1.6c-0.4-0.7-0.6-1.5-0.6-2.4v-0.3
			c0-0.9,0.2-1.7,0.6-2.4c0.4-0.7,0.9-1.2,1.6-1.6c0.7-0.4,1.5-0.6,2.4-0.6c0.9,0,1.7,0.2,2.4,0.6c0.7,0.4,1.2,0.9,1.6,1.6
			c0.4,0.7,0.6,1.5,0.6,2.4v0.3c0,0.9-0.2,1.7-0.6,2.4c-0.4,0.7-0.9,1.2-1.6,1.6C-201.2-84.6-202-84.5-202.9-84.5z M-202.9-86.1
			c0.8,0,1.5-0.3,2-0.8c0.5-0.5,0.8-1.2,0.8-2.2v-0.2c0-0.9-0.3-1.6-0.8-2.2c-0.5-0.5-1.2-0.8-2-0.8c-0.8,0-1.5,0.3-2,0.8
			s-0.8,1.2-0.8,2.2v0.2c0,0.9,0.3,1.6,0.8,2.2S-203.7-86.1-202.9-86.1z"/>
		<path class="st1" d="M-196-84.7v-8.9h1.8v1.3h0.3c0.2-0.4,0.5-0.7,0.9-1s1.1-0.5,1.9-0.5c0.7,0,1.3,0.2,1.8,0.5
			c0.5,0.3,0.9,0.7,1.2,1.3c0.3,0.5,0.5,1.2,0.5,2v5.3h-1.9v-5.2c0-0.8-0.2-1.3-0.6-1.7c-0.4-0.4-0.9-0.5-1.6-0.5
			c-0.8,0-1.4,0.3-1.8,0.8c-0.5,0.5-0.7,1.2-0.7,2.2v4.5H-196z"/>
		<path class="st1" d="M-389.2-63.1l3.6-12.6h3.4l3.6,12.6h-2l-0.8-3h-4.9l-0.8,3H-389.2z M-385.8-67.9h4l-1.8-6.6h-0.3L-385.8-67.9
			z"/>
		<path class="st1" d="M-373.2-62.9c-1.1,0-2.1-0.3-2.8-0.8c-0.7-0.5-1.2-1.3-1.4-2.3l1.7-0.4c0.1,0.5,0.3,0.9,0.5,1.2
			c0.2,0.3,0.5,0.5,0.9,0.6c0.3,0.1,0.7,0.2,1.1,0.2c0.6,0,1-0.1,1.4-0.3c0.3-0.2,0.5-0.5,0.5-0.9c0-0.4-0.2-0.6-0.5-0.8
			s-0.7-0.3-1.3-0.4l-0.6-0.1c-0.6-0.1-1.1-0.3-1.6-0.5s-0.9-0.5-1.2-0.8c-0.3-0.4-0.4-0.8-0.4-1.4c0-0.8,0.3-1.5,0.9-2
			s1.5-0.7,2.5-0.7c1,0,1.8,0.2,2.5,0.7c0.6,0.5,1.1,1.1,1.3,1.8l-1.7,0.5c-0.1-0.5-0.3-0.9-0.7-1.1c-0.3-0.2-0.8-0.3-1.3-0.3
			c-0.5,0-0.9,0.1-1.2,0.3c-0.3,0.2-0.4,0.4-0.4,0.8c0,0.4,0.1,0.6,0.4,0.8s0.7,0.3,1.1,0.4l0.6,0.1c0.6,0.1,1.2,0.3,1.7,0.5
			c0.5,0.2,0.9,0.5,1.3,0.8c0.3,0.4,0.5,0.8,0.5,1.4c0,0.9-0.3,1.6-1,2.1C-371.2-63.1-372.1-62.9-373.2-62.9z"/>
		<path class="st1" d="M-363.7-62.9c-1.1,0-2.1-0.3-2.8-0.8c-0.7-0.5-1.2-1.3-1.4-2.3l1.7-0.4c0.1,0.5,0.3,0.9,0.5,1.2
			c0.2,0.3,0.5,0.5,0.9,0.6c0.3,0.1,0.7,0.2,1.1,0.2c0.6,0,1-0.1,1.4-0.3c0.3-0.2,0.5-0.5,0.5-0.9c0-0.4-0.2-0.6-0.5-0.8
			s-0.7-0.3-1.3-0.4l-0.6-0.1c-0.6-0.1-1.1-0.3-1.6-0.5s-0.9-0.5-1.2-0.8c-0.3-0.4-0.4-0.8-0.4-1.4c0-0.8,0.3-1.5,0.9-2
			s1.5-0.7,2.5-0.7c1,0,1.8,0.2,2.5,0.7c0.6,0.5,1.1,1.1,1.3,1.8l-1.7,0.5c-0.1-0.5-0.3-0.9-0.7-1.1c-0.3-0.2-0.8-0.3-1.3-0.3
			c-0.5,0-0.9,0.1-1.2,0.3c-0.3,0.2-0.4,0.4-0.4,0.8c0,0.4,0.1,0.6,0.4,0.8s0.7,0.3,1.1,0.4l0.6,0.1c0.6,0.1,1.2,0.3,1.7,0.5
			c0.5,0.2,0.9,0.5,1.3,0.8c0.3,0.4,0.5,0.8,0.5,1.4c0,0.9-0.3,1.6-1,2.1C-361.7-63.1-362.6-62.9-363.7-62.9z"/>
		<path class="st1" d="M-353.8-62.9c-0.9,0-1.7-0.2-2.4-0.6c-0.7-0.4-1.2-0.9-1.6-1.6c-0.4-0.7-0.6-1.5-0.6-2.4v-0.2
			c0-0.9,0.2-1.7,0.6-2.4c0.4-0.7,0.9-1.2,1.6-1.6s1.4-0.6,2.3-0.6c0.9,0,1.6,0.2,2.2,0.6c0.6,0.4,1.1,0.9,1.5,1.6
			c0.4,0.7,0.5,1.5,0.5,2.4v0.7h-6.8c0,0.8,0.3,1.4,0.8,1.9c0.5,0.5,1.1,0.7,1.9,0.7c0.7,0,1.2-0.2,1.6-0.5c0.4-0.3,0.6-0.7,0.8-1.1
			l1.5,0.8c-0.2,0.3-0.4,0.7-0.7,1.1c-0.3,0.4-0.7,0.7-1.3,0.9S-353-62.9-353.8-62.9z M-356.4-68.5h4.9c0-0.7-0.3-1.2-0.7-1.6
			s-1-0.6-1.7-0.6c-0.7,0-1.3,0.2-1.7,0.6C-356.1-69.7-356.3-69.1-356.4-68.5z"/>
		<path class="st1" d="M-343.8-62.9c-1.1,0-2.1-0.3-2.8-0.8c-0.7-0.5-1.2-1.3-1.4-2.3l1.7-0.4c0.1,0.5,0.3,0.9,0.5,1.2
			c0.2,0.3,0.5,0.5,0.9,0.6c0.3,0.1,0.7,0.2,1.1,0.2c0.6,0,1-0.1,1.4-0.3c0.3-0.2,0.5-0.5,0.5-0.9c0-0.4-0.2-0.6-0.5-0.8
			s-0.7-0.3-1.3-0.4l-0.6-0.1c-0.6-0.1-1.1-0.3-1.6-0.5s-0.9-0.5-1.2-0.8c-0.3-0.4-0.4-0.8-0.4-1.4c0-0.8,0.3-1.5,0.9-2
			s1.5-0.7,2.5-0.7c1,0,1.8,0.2,2.5,0.7c0.6,0.5,1.1,1.1,1.3,1.8l-1.7,0.5c-0.1-0.5-0.3-0.9-0.7-1.1c-0.3-0.2-0.8-0.3-1.3-0.3
			c-0.5,0-0.9,0.1-1.2,0.3c-0.3,0.2-0.4,0.4-0.4,0.8c0,0.4,0.1,0.6,0.4,0.8s0.7,0.3,1.1,0.4l0.6,0.1c0.6,0.1,1.2,0.3,1.7,0.5
			c0.5,0.2,0.9,0.5,1.3,0.8c0.3,0.4,0.5,0.8,0.5,1.4c0,0.9-0.3,1.6-1,2.1C-341.8-63.1-342.6-62.9-343.8-62.9z"/>
		<path class="st1" d="M-334.3-62.9c-1.1,0-2.1-0.3-2.8-0.8c-0.7-0.5-1.2-1.3-1.4-2.3l1.7-0.4c0.1,0.5,0.3,0.9,0.5,1.2
			c0.2,0.3,0.5,0.5,0.9,0.6c0.3,0.1,0.7,0.2,1.1,0.2c0.6,0,1-0.1,1.4-0.3c0.3-0.2,0.5-0.5,0.5-0.9c0-0.4-0.2-0.6-0.5-0.8
			s-0.7-0.3-1.3-0.4l-0.6-0.1c-0.6-0.1-1.1-0.3-1.6-0.5s-0.9-0.5-1.2-0.8c-0.3-0.4-0.4-0.8-0.4-1.4c0-0.8,0.3-1.5,0.9-2
			s1.5-0.7,2.5-0.7c1,0,1.8,0.2,2.5,0.7c0.6,0.5,1.1,1.1,1.3,1.8l-1.7,0.5c-0.1-0.5-0.3-0.9-0.7-1.1c-0.3-0.2-0.8-0.3-1.3-0.3
			c-0.5,0-0.9,0.1-1.2,0.3c-0.3,0.2-0.4,0.4-0.4,0.8c0,0.4,0.1,0.6,0.4,0.8s0.7,0.3,1.1,0.4l0.6,0.1c0.6,0.1,1.2,0.3,1.7,0.5
			c0.5,0.2,0.9,0.5,1.3,0.8c0.3,0.4,0.5,0.8,0.5,1.4c0,0.9-0.3,1.6-1,2.1C-332.3-63.1-333.2-62.9-334.3-62.9z"/>
		<path class="st1" d="M-328.5-63.1V-72h1.8v1h0.3c0.2-0.3,0.4-0.6,0.8-0.8c0.4-0.2,0.9-0.4,1.5-0.4c0.7,0,1.2,0.1,1.6,0.4
			c0.4,0.3,0.7,0.6,0.9,1h0.3c0.2-0.4,0.5-0.8,0.9-1c0.4-0.3,0.9-0.4,1.7-0.4c0.6,0,1.1,0.1,1.5,0.4s0.8,0.6,1.1,1
			c0.3,0.5,0.4,1,0.4,1.7v5.9h-1.9v-5.8c0-0.5-0.1-1-0.4-1.3s-0.7-0.4-1.3-0.4c-0.6,0-1,0.2-1.4,0.6c-0.3,0.4-0.5,0.9-0.5,1.6v5.3
			h-1.9v-5.8c0-0.5-0.1-1-0.4-1.3s-0.7-0.4-1.3-0.4c-0.6,0-1,0.2-1.4,0.6c-0.3,0.4-0.5,0.9-0.5,1.6v5.3H-328.5z"/>
		<path class="st1" d="M-309-62.9c-0.9,0-1.7-0.2-2.4-0.6c-0.7-0.4-1.2-0.9-1.6-1.6c-0.4-0.7-0.6-1.5-0.6-2.4v-0.2
			c0-0.9,0.2-1.7,0.6-2.4c0.4-0.7,0.9-1.2,1.6-1.6s1.4-0.6,2.3-0.6c0.9,0,1.6,0.2,2.2,0.6c0.6,0.4,1.1,0.9,1.5,1.6
			c0.4,0.7,0.5,1.5,0.5,2.4v0.7h-6.8c0,0.8,0.3,1.4,0.8,1.9c0.5,0.5,1.1,0.7,1.9,0.7c0.7,0,1.2-0.2,1.6-0.5c0.4-0.3,0.6-0.7,0.8-1.1
			l1.5,0.8c-0.2,0.3-0.4,0.7-0.7,1.1c-0.3,0.4-0.7,0.7-1.3,0.9S-308.2-62.9-309-62.9z M-311.6-68.5h4.9c0-0.7-0.3-1.2-0.7-1.6
			s-1-0.6-1.7-0.6c-0.7,0-1.3,0.2-1.7,0.6C-311.2-69.7-311.5-69.1-311.6-68.5z"/>
		<path class="st1" d="M-302.6-63.1V-72h1.8v1.3h0.3c0.2-0.4,0.5-0.7,0.9-1c0.4-0.3,1.1-0.5,1.9-0.5c0.7,0,1.3,0.1,1.8,0.4
			c0.5,0.3,0.9,0.7,1.2,1.3c0.3,0.5,0.5,1.2,0.5,2v5.3h-1.9v-5.2c0-0.8-0.2-1.3-0.6-1.7s-0.9-0.5-1.6-0.5c-0.8,0-1.4,0.3-1.8,0.8
			s-0.7,1.2-0.7,2.2v4.5H-302.6z"/>
		<path class="st1" d="M-288.2-63.1c-0.5,0-1-0.2-1.3-0.5c-0.3-0.3-0.5-0.8-0.5-1.3v-5.5h-2.4V-72h2.4v-2.9h1.9v2.9h2.6v1.6h-2.6
			v5.2c0,0.4,0.2,0.5,0.5,0.5h1.9v1.6H-288.2z"/>
		<path class="st1" d="M-275.7-63.1v-10.8h-3.9v-1.8h9.7v1.8h-3.9v10.8H-275.7z"/>
		<path class="st1" d="M-263.9-62.9c-0.9,0-1.7-0.2-2.4-0.5c-0.7-0.4-1.2-0.9-1.6-1.6c-0.4-0.7-0.6-1.5-0.6-2.4v-0.3
			c0-0.9,0.2-1.7,0.6-2.4c0.4-0.7,0.9-1.2,1.6-1.6c0.7-0.4,1.5-0.6,2.4-0.6c0.9,0,1.7,0.2,2.4,0.6c0.7,0.4,1.2,0.9,1.6,1.6
			c0.4,0.7,0.6,1.5,0.6,2.4v0.3c0,0.9-0.2,1.7-0.6,2.4c-0.4,0.7-0.9,1.2-1.6,1.6C-262.2-63-263-62.9-263.9-62.9z M-263.9-64.5
			c0.8,0,1.5-0.3,2-0.8c0.5-0.5,0.8-1.2,0.8-2.2v-0.2c0-0.9-0.3-1.6-0.8-2.2c-0.5-0.5-1.2-0.8-2-0.8c-0.8,0-1.5,0.3-2,0.8
			c-0.5,0.5-0.8,1.2-0.8,2.2v0.2c0,0.9,0.3,1.6,0.8,2.2C-265.4-64.8-264.7-64.5-263.9-64.5z"/>
		<path class="st1" d="M-252.8-62.9c-0.9,0-1.7-0.2-2.4-0.5c-0.7-0.4-1.2-0.9-1.6-1.6c-0.4-0.7-0.6-1.5-0.6-2.4v-0.3
			c0-0.9,0.2-1.7,0.6-2.4c0.4-0.7,0.9-1.2,1.6-1.6c0.7-0.4,1.5-0.6,2.4-0.6c0.9,0,1.7,0.2,2.4,0.6c0.7,0.4,1.2,0.9,1.6,1.6
			c0.4,0.7,0.6,1.5,0.6,2.4v0.3c0,0.9-0.2,1.7-0.6,2.4c-0.4,0.7-0.9,1.2-1.6,1.6C-251.2-63-252-62.9-252.8-62.9z M-252.8-64.5
			c0.8,0,1.5-0.3,2-0.8c0.5-0.5,0.8-1.2,0.8-2.2v-0.2c0-0.9-0.3-1.6-0.8-2.2c-0.5-0.5-1.2-0.8-2-0.8c-0.8,0-1.5,0.3-2,0.8
			c-0.5,0.5-0.8,1.2-0.8,2.2v0.2c0,0.9,0.3,1.6,0.8,2.2C-254.3-64.8-253.6-64.5-252.8-64.5z"/>
		<path class="st1" d="M-245.9-63.1v-12.6h1.9v12.6H-245.9z"/>
	</g>
</g>
<g>
	<path d="M31.1,61.5v-8.7h0.8v3.4h0.1c0.1-0.2,0.2-0.4,0.4-0.6c0.2-0.2,0.4-0.4,0.6-0.5s0.6-0.2,1-0.2c0.5,0,1,0.1,1.4,0.4
		c0.4,0.3,0.7,0.7,1,1.2c0.2,0.5,0.3,1.1,0.3,1.8c0,0.7-0.1,1.3-0.3,1.8c-0.2,0.5-0.5,0.9-0.9,1.2c-0.4,0.3-0.9,0.4-1.4,0.4
		c-0.4,0-0.7-0.1-1-0.2c-0.3-0.1-0.5-0.3-0.6-0.5s-0.3-0.4-0.4-0.6h-0.1v1.2H31.1z M31.8,58.3c0,0.5,0.1,1,0.2,1.4
		c0.2,0.4,0.4,0.7,0.7,1s0.7,0.3,1.1,0.3c0.4,0,0.8-0.1,1.1-0.4c0.3-0.2,0.5-0.6,0.7-1s0.2-0.9,0.2-1.4c0-0.5-0.1-1-0.2-1.4
		c-0.2-0.4-0.4-0.7-0.7-1s-0.7-0.4-1.1-0.4c-0.4,0-0.8,0.1-1.1,0.3s-0.5,0.5-0.7,0.9C31.9,57.3,31.8,57.8,31.8,58.3z"/>
	<path d="M38.6,64c-0.2,0-0.3,0-0.4,0c-0.1,0-0.2-0.1-0.3-0.1l0.2-0.7c0.3,0.1,0.5,0.1,0.7,0.1c0.2,0,0.4-0.1,0.5-0.3
		s0.3-0.4,0.4-0.7l0.2-0.7L37.5,55h0.8l1.9,5.5h0.1l1.9-5.5h0.8l-2.8,7.6c-0.1,0.3-0.3,0.6-0.4,0.8c-0.2,0.2-0.4,0.4-0.6,0.5
		C39.1,63.9,38.8,64,38.6,64z"/>
	<path d="M48.9,52.8v8.7h-0.8v-8.7H48.9z"/>
	<path d="M58,52.8v8.7h-0.8l-5.2-7.3H52v7.3h-0.8v-8.7H52l5.2,7.3h0.1v-7.3H58z"/>
	<path d="M60.3,61.5v-8.7h5.1v0.7h-4.3v3.3h4v0.7h-4v3.3h4.4v0.7H60.3z"/>
	<path d="M72.2,55c0-0.5-0.3-0.9-0.6-1.2s-0.9-0.4-1.4-0.4c-0.4,0-0.8,0.1-1.1,0.2c-0.3,0.1-0.5,0.3-0.7,0.6
		c-0.2,0.2-0.3,0.5-0.3,0.8c0,0.2,0,0.4,0.1,0.6c0.1,0.2,0.2,0.3,0.4,0.4c0.2,0.1,0.4,0.2,0.6,0.3c0.2,0.1,0.4,0.2,0.6,0.2l0.9,0.3
		c0.3,0.1,0.6,0.2,0.8,0.3s0.5,0.3,0.8,0.4c0.2,0.2,0.4,0.4,0.6,0.7c0.1,0.3,0.2,0.6,0.2,0.9c0,0.5-0.1,0.9-0.4,1.3
		c-0.2,0.4-0.6,0.7-1,0.9c-0.5,0.2-1,0.3-1.6,0.3c-0.6,0-1.1-0.1-1.5-0.3s-0.8-0.5-1-0.8s-0.4-0.8-0.4-1.2h0.8
		c0,0.3,0.1,0.6,0.3,0.9c0.2,0.2,0.5,0.4,0.8,0.5s0.7,0.2,1.1,0.2c0.4,0,0.8-0.1,1.2-0.2c0.3-0.1,0.6-0.4,0.8-0.6
		c0.2-0.3,0.3-0.6,0.3-0.9c0-0.3-0.1-0.5-0.2-0.7s-0.4-0.4-0.6-0.5c-0.3-0.1-0.6-0.3-1-0.4l-1-0.3c-0.7-0.2-1.2-0.5-1.6-0.8
		c-0.4-0.4-0.6-0.8-0.6-1.4c0-0.5,0.1-0.9,0.4-1.2c0.3-0.4,0.6-0.6,1-0.8s0.9-0.3,1.5-0.3c0.5,0,1,0.1,1.4,0.3
		c0.4,0.2,0.7,0.5,1,0.8c0.2,0.3,0.4,0.7,0.4,1.2H72.2z"/>
	<path d="M81.9,55.5h-0.8c-0.1-0.3-0.2-0.6-0.3-0.8c-0.2-0.3-0.3-0.5-0.6-0.7c-0.2-0.2-0.5-0.3-0.8-0.4c-0.3-0.1-0.6-0.2-1-0.2
		c-0.6,0-1.1,0.1-1.5,0.4s-0.8,0.7-1.1,1.3s-0.4,1.2-0.4,2c0,0.8,0.1,1.5,0.4,2c0.3,0.6,0.6,1,1.1,1.3s1,0.4,1.5,0.4
		c0.3,0,0.7-0.1,1-0.2s0.6-0.3,0.8-0.4c0.2-0.2,0.4-0.4,0.6-0.7c0.2-0.3,0.3-0.5,0.3-0.8h0.8c-0.1,0.4-0.2,0.8-0.4,1.1
		s-0.4,0.6-0.7,0.9c-0.3,0.3-0.6,0.5-1,0.6c-0.4,0.1-0.8,0.2-1.3,0.2c-0.7,0-1.4-0.2-2-0.6c-0.6-0.4-1-0.9-1.3-1.6
		c-0.3-0.7-0.5-1.5-0.5-2.4s0.2-1.7,0.5-2.4c0.3-0.7,0.8-1.2,1.3-1.6c0.6-0.4,1.2-0.6,2-0.6c0.5,0,0.9,0.1,1.3,0.2
		c0.4,0.1,0.7,0.3,1,0.6c0.3,0.3,0.5,0.6,0.7,0.9S81.8,55.1,81.9,55.5z"/>
	<path d="M86.6,53.5v-0.7h6.3v0.7h-2.8v8h-0.8v-8H86.6z"/>
	<path d="M94.7,61.5v-8.7h5.1v0.7h-4.3v3.3h4v0.7h-4v3.3h4.4v0.7H94.7z"/>
	<path d="M108.6,55.5h-0.8c-0.1-0.3-0.2-0.6-0.3-0.8c-0.2-0.3-0.3-0.5-0.6-0.7c-0.2-0.2-0.5-0.3-0.8-0.4c-0.3-0.1-0.6-0.2-1-0.2
		c-0.6,0-1.1,0.1-1.5,0.4s-0.8,0.7-1.1,1.3s-0.4,1.2-0.4,2c0,0.8,0.1,1.5,0.4,2c0.3,0.6,0.6,1,1.1,1.3s1,0.4,1.5,0.4
		c0.3,0,0.7-0.1,1-0.2s0.6-0.3,0.8-0.4c0.2-0.2,0.4-0.4,0.6-0.7c0.2-0.3,0.3-0.5,0.3-0.8h0.8c-0.1,0.4-0.2,0.8-0.4,1.1
		s-0.4,0.6-0.7,0.9c-0.3,0.3-0.6,0.5-1,0.6c-0.4,0.1-0.8,0.2-1.3,0.2c-0.7,0-1.4-0.2-2-0.6c-0.6-0.4-1-0.9-1.3-1.6
		c-0.3-0.7-0.5-1.5-0.5-2.4s0.2-1.7,0.5-2.4c0.3-0.7,0.8-1.2,1.3-1.6c0.6-0.4,1.2-0.6,2-0.6c0.5,0,0.9,0.1,1.3,0.2
		c0.4,0.1,0.7,0.3,1,0.6c0.3,0.3,0.5,0.6,0.7,0.9S108.6,55.1,108.6,55.5z"/>
</g>
<text transform="matrix(1 0 0 1 -288.7152 72.0127)" style="font-family:'Inter-Light'; font-size:12px;">by INESC TEC</text>
<image style="overflow:visible;" width="1248" height="400" xlink:href="logo_draft01.png"  transform="matrix(0.2617 0 0 0.2617 -486.6093 102.0383)">
</image>
</svg>
