<?xml version="1.0" encoding="utf-8"?>
<!-- Generator: Adobe Illustrator 28.0.0, SVG Export Plug-In . SVG Version: 6.00 Build 0)  -->
<svg version="1.1" id="Layer_1" xmlns="http://www.w3.org/2000/svg" xmlns:xlink="http://www.w3.org/1999/xlink" x="0px" y="0px"
	 viewBox="0 0 233.1 64" style="enable-background:new 0 0 233.1 64;" xml:space="preserve">
<style type="text/css">
	.st0{fill:#008BBE;}
	.st1{fill:#008BBE;stroke:#008BBE;stroke-width:0.75;stroke-miterlimit:10;}
</style>
<g>
	<path class="st0" d="M33.1,19.1V6.5h5.3c0.8,0,1.5,0.1,2.1,0.4s1.1,0.7,1.4,1.2c0.3,0.5,0.5,1.1,0.5,1.8V10c0,0.8-0.2,1.4-0.6,1.9
		c-0.4,0.5-0.8,0.8-1.4,1v0.3c0.5,0,0.8,0.2,1.1,0.5c0.3,0.3,0.4,0.7,0.4,1.2v4.2h-2v-3.9c0-0.3-0.1-0.6-0.3-0.8
		c-0.2-0.2-0.4-0.3-0.8-0.3h-3.8v5H33.1z M35.1,12.3h3.1c0.7,0,1.2-0.2,1.6-0.5c0.4-0.4,0.6-0.8,0.6-1.4v-0.1c0-0.6-0.2-1.1-0.6-1.4
		c-0.4-0.4-0.9-0.5-1.6-0.5h-3.1V12.3z"/>
	<path class="st0" d="M48.6,19.3c-0.9,0-1.7-0.2-2.4-0.6s-1.2-0.9-1.6-1.6s-0.6-1.5-0.6-2.4v-0.2c0-0.9,0.2-1.7,0.6-2.4
		c0.4-0.7,0.9-1.2,1.6-1.6s1.4-0.6,2.3-0.6c0.9,0,1.6,0.2,2.2,0.6c0.6,0.4,1.1,0.9,1.5,1.6c0.4,0.7,0.5,1.5,0.5,2.4v0.7H46
		c0,0.8,0.3,1.4,0.8,1.9c0.5,0.5,1.1,0.7,1.9,0.7c0.7,0,1.2-0.2,1.6-0.5s0.6-0.7,0.8-1.1l1.5,0.8c-0.2,0.3-0.4,0.7-0.7,1.1
		c-0.3,0.4-0.7,0.7-1.3,0.9S49.4,19.3,48.6,19.3z M46,13.7H51c0-0.7-0.3-1.2-0.7-1.6s-1-0.6-1.7-0.6c-0.7,0-1.3,0.2-1.7,0.6
		C46.4,12.5,46.1,13.1,46,13.7z"/>
	<path class="st0" d="M58.7,19.3c-1.1,0-2.1-0.3-2.8-0.8c-0.7-0.5-1.2-1.3-1.4-2.3l1.7-0.4c0.1,0.5,0.3,0.9,0.5,1.2
		c0.2,0.3,0.5,0.5,0.9,0.6c0.3,0.1,0.7,0.2,1.1,0.2c0.6,0,1-0.1,1.4-0.3c0.3-0.2,0.5-0.5,0.5-0.9c0-0.4-0.2-0.6-0.5-0.8
		s-0.7-0.3-1.3-0.4l-0.6-0.1c-0.6-0.1-1.1-0.3-1.6-0.5s-0.9-0.5-1.2-0.8c-0.3-0.4-0.4-0.8-0.4-1.4c0-0.8,0.3-1.5,0.9-2
		c0.6-0.5,1.5-0.7,2.5-0.7c1,0,1.8,0.2,2.5,0.7c0.6,0.5,1.1,1.1,1.3,1.8l-1.7,0.5c-0.1-0.5-0.3-0.9-0.7-1.1s-0.8-0.3-1.3-0.3
		c-0.5,0-0.9,0.1-1.2,0.3c-0.3,0.2-0.4,0.4-0.4,0.8c0,0.4,0.1,0.6,0.4,0.8s0.7,0.3,1.1,0.4l0.6,0.1c0.6,0.1,1.2,0.3,1.7,0.4
		c0.5,0.2,0.9,0.5,1.3,0.8c0.3,0.4,0.5,0.8,0.5,1.4c0,0.9-0.3,1.6-1,2.1C60.7,19.1,59.8,19.3,58.7,19.3z"/>
	<path class="st0" d="M64.5,22.7V10.2h1.8v1.3h0.3c0.2-0.4,0.6-0.7,1-1.1c0.5-0.3,1.1-0.5,2-0.5c0.7,0,1.4,0.2,2,0.5
		s1.1,0.9,1.5,1.6c0.4,0.7,0.6,1.5,0.6,2.5v0.3c0,1-0.2,1.8-0.6,2.5c-0.4,0.7-0.9,1.2-1.5,1.6s-1.3,0.5-2.1,0.5
		c-0.6,0-1.1-0.1-1.5-0.2c-0.4-0.1-0.7-0.3-1-0.5c-0.2-0.2-0.4-0.5-0.6-0.7h-0.3v4.8H64.5z M69.1,17.7c0.8,0,1.5-0.3,2-0.8
		c0.5-0.5,0.8-1.3,0.8-2.2v-0.2c0-0.9-0.3-1.7-0.8-2.2c-0.5-0.5-1.2-0.8-2-0.8c-0.8,0-1.4,0.3-2,0.8c-0.5,0.5-0.8,1.2-0.8,2.2v0.2
		c0,1,0.3,1.7,0.8,2.2C67.7,17.5,68.3,17.7,69.1,17.7z"/>
	<path class="st0" d="M80.2,19.3c-0.9,0-1.7-0.2-2.4-0.5c-0.7-0.4-1.2-0.9-1.6-1.6c-0.4-0.7-0.6-1.5-0.6-2.4v-0.3
		c0-0.9,0.2-1.7,0.6-2.4c0.4-0.7,0.9-1.2,1.6-1.6c0.7-0.4,1.5-0.6,2.4-0.6c0.9,0,1.7,0.2,2.4,0.6c0.7,0.4,1.2,0.9,1.6,1.6
		c0.4,0.7,0.6,1.5,0.6,2.4v0.3c0,0.9-0.2,1.7-0.6,2.4c-0.4,0.7-0.9,1.2-1.6,1.6C81.9,19.2,81.1,19.3,80.2,19.3z M80.2,17.7
		c0.8,0,1.5-0.3,2-0.8c0.5-0.5,0.8-1.2,0.8-2.2v-0.2c0-0.9-0.3-1.6-0.8-2.2c-0.5-0.5-1.2-0.8-2-0.8c-0.8,0-1.5,0.3-2,0.8
		s-0.8,1.2-0.8,2.2v0.2c0,0.9,0.3,1.6,0.8,2.2S79.4,17.7,80.2,17.7z"/>
	<path class="st0" d="M87.1,19.1v-8.9H89v1.3h0.3c0.2-0.4,0.5-0.7,0.9-1s1.1-0.5,1.9-0.5c0.7,0,1.3,0.2,1.8,0.5
		c0.5,0.3,0.9,0.7,1.2,1.3c0.3,0.5,0.5,1.2,0.5,2v5.3h-1.9v-5.2c0-0.8-0.2-1.3-0.6-1.7c-0.4-0.4-0.9-0.5-1.6-0.5
		c-0.8,0-1.4,0.3-1.8,0.8c-0.5,0.5-0.7,1.2-0.7,2.2v4.5H87.1z"/>
	<path class="st0" d="M101.8,19.3c-1.1,0-2.1-0.3-2.8-0.8c-0.7-0.5-1.2-1.3-1.4-2.3l1.7-0.4c0.1,0.5,0.3,0.9,0.5,1.2
		c0.2,0.3,0.5,0.5,0.9,0.6c0.3,0.1,0.7,0.2,1.1,0.2c0.6,0,1-0.1,1.4-0.3c0.3-0.2,0.5-0.5,0.5-0.9c0-0.4-0.2-0.6-0.5-0.8
		s-0.7-0.3-1.3-0.4l-0.6-0.1c-0.6-0.1-1.1-0.3-1.6-0.5s-0.9-0.5-1.2-0.8c-0.3-0.4-0.4-0.8-0.4-1.4c0-0.8,0.3-1.5,0.9-2
		c0.6-0.5,1.5-0.7,2.5-0.7c1,0,1.8,0.2,2.5,0.7c0.6,0.5,1.1,1.1,1.3,1.8l-1.7,0.5c-0.1-0.5-0.3-0.9-0.7-1.1s-0.8-0.3-1.3-0.3
		c-0.5,0-0.9,0.1-1.2,0.3c-0.3,0.2-0.4,0.4-0.4,0.8c0,0.4,0.1,0.6,0.4,0.8s0.7,0.3,1.1,0.4l0.6,0.1c0.6,0.1,1.2,0.3,1.7,0.4
		c0.5,0.2,0.9,0.5,1.3,0.8c0.3,0.4,0.5,0.8,0.5,1.4c0,0.9-0.3,1.6-1,2.1C103.8,19.1,103,19.3,101.8,19.3z"/>
	<path class="st0" d="M108.6,9c-0.4,0-0.7-0.1-0.9-0.4c-0.2-0.2-0.4-0.5-0.4-0.9s0.1-0.7,0.4-0.9s0.5-0.4,0.9-0.4
		c0.4,0,0.7,0.1,0.9,0.4s0.4,0.5,0.4,0.9s-0.1,0.7-0.4,0.9C109.3,8.9,109,9,108.6,9z M107.7,19.1v-8.9h1.9v8.9H107.7z"/>
	<path class="st0" d="M117.4,19.3c-0.9,0-1.5-0.2-2-0.5c-0.5-0.3-0.8-0.7-1-1h-0.3v1.3h-1.8V6.5h1.9v4.9h0.3
		c0.1-0.2,0.3-0.5,0.6-0.7s0.6-0.4,1-0.5c0.4-0.1,0.9-0.2,1.5-0.2c0.7,0,1.4,0.2,2.1,0.5s1.1,0.9,1.5,1.6s0.6,1.5,0.6,2.4v0.3
		c0,1-0.2,1.8-0.6,2.5c-0.4,0.7-0.9,1.2-1.5,1.6S118.1,19.3,117.4,19.3z M116.9,17.7c0.8,0,1.5-0.3,2-0.8c0.5-0.5,0.8-1.3,0.8-2.2
		v-0.2c0-0.9-0.3-1.7-0.8-2.2c-0.5-0.5-1.2-0.8-2-0.8c-0.8,0-1.4,0.3-2,0.8c-0.5,0.5-0.8,1.2-0.8,2.2v0.2c0,1,0.3,1.7,0.8,2.2
		C115.4,17.5,116.1,17.7,116.9,17.7z"/>
	<path class="st0" d="M123.8,19.1V6.5h1.9v12.6H123.8z"/>
	<path class="st0" d="M132.5,19.3c-0.9,0-1.7-0.2-2.4-0.6s-1.2-0.9-1.6-1.6s-0.6-1.5-0.6-2.4v-0.2c0-0.9,0.2-1.7,0.6-2.4
		c0.4-0.7,0.9-1.2,1.6-1.6s1.4-0.6,2.3-0.6c0.9,0,1.6,0.2,2.2,0.6c0.6,0.4,1.1,0.9,1.5,1.6c0.4,0.7,0.5,1.5,0.5,2.4v0.7h-6.8
		c0,0.8,0.3,1.4,0.8,1.9c0.5,0.5,1.1,0.7,1.9,0.7c0.7,0,1.2-0.2,1.6-0.5s0.6-0.7,0.8-1.1l1.5,0.8c-0.2,0.3-0.4,0.7-0.7,1.1
		c-0.3,0.4-0.7,0.7-1.3,0.9S133.3,19.3,132.5,19.3z M129.9,13.7h4.9c0-0.7-0.3-1.2-0.7-1.6s-1-0.6-1.7-0.6c-0.7,0-1.3,0.2-1.7,0.6
		C130.2,12.5,130,13.1,129.9,13.7z"/>
	<path class="st0" d="M143.5,19.1V6.5h1.9v12.6H143.5z"/>
	<path class="st0" d="M148.1,19.1v-8.9h1.8v1.3h0.3c0.2-0.4,0.5-0.7,0.9-1s1.1-0.5,1.9-0.5c0.7,0,1.3,0.2,1.8,0.5
		c0.5,0.3,0.9,0.7,1.2,1.3c0.3,0.5,0.5,1.2,0.5,2v5.3h-1.9v-5.2c0-0.8-0.2-1.3-0.6-1.7c-0.4-0.4-0.9-0.5-1.6-0.5
		c-0.8,0-1.4,0.3-1.8,0.8c-0.5,0.5-0.7,1.2-0.7,2.2v4.5H148.1z"/>
	<path class="st0" d="M159.2,19.1v-8.9h1.8v1.3h0.3c0.2-0.4,0.5-0.7,0.9-1s1.1-0.5,1.9-0.5c0.7,0,1.3,0.2,1.8,0.5
		c0.5,0.3,0.9,0.7,1.2,1.3c0.3,0.5,0.5,1.2,0.5,2v5.3h-1.9v-5.2c0-0.8-0.2-1.3-0.6-1.7c-0.4-0.4-0.9-0.5-1.6-0.5
		c-0.8,0-1.4,0.3-1.8,0.8c-0.5,0.5-0.7,1.2-0.7,2.2v4.5H159.2z"/>
	<path class="st0" d="M174.4,19.3c-0.9,0-1.7-0.2-2.4-0.5c-0.7-0.4-1.2-0.9-1.6-1.6c-0.4-0.7-0.6-1.5-0.6-2.4v-0.3
		c0-0.9,0.2-1.7,0.6-2.4c0.4-0.7,0.9-1.2,1.6-1.6c0.7-0.4,1.5-0.6,2.4-0.6c0.9,0,1.7,0.2,2.4,0.6c0.7,0.4,1.2,0.9,1.6,1.6
		c0.4,0.7,0.6,1.5,0.6,2.4v0.3c0,0.9-0.2,1.7-0.6,2.4c-0.4,0.7-0.9,1.2-1.6,1.6C176.1,19.2,175.3,19.3,174.4,19.3z M174.4,17.7
		c0.8,0,1.5-0.3,2-0.8c0.5-0.5,0.8-1.2,0.8-2.2v-0.2c0-0.9-0.3-1.6-0.8-2.2c-0.5-0.5-1.2-0.8-2-0.8c-0.8,0-1.5,0.3-2,0.8
		s-0.8,1.2-0.8,2.2v0.2c0,0.9,0.3,1.6,0.8,2.2S173.6,17.7,174.4,17.7z"/>
	<path class="st0" d="M183,19.1l-3-8.9h2l2.4,7.5h0.3l2.4-7.5h2l-3,8.9H183z"/>
	<path class="st0" d="M193.3,19.3c-0.6,0-1.2-0.1-1.7-0.3c-0.5-0.2-0.9-0.5-1.2-1c-0.3-0.4-0.4-0.9-0.4-1.5c0-0.6,0.1-1.1,0.4-1.5
		c0.3-0.4,0.7-0.7,1.2-0.9c0.5-0.2,1.1-0.3,1.7-0.3h2.7v-0.6c0-0.5-0.2-0.9-0.5-1.2c-0.3-0.3-0.8-0.5-1.4-0.5
		c-0.6,0-1.1,0.2-1.5,0.5s-0.6,0.7-0.7,1.2l-1.7-0.6c0.1-0.5,0.4-0.9,0.7-1.3c0.3-0.4,0.7-0.7,1.3-0.9c0.5-0.2,1.2-0.4,1.9-0.4
		c1.2,0,2.1,0.3,2.7,0.9c0.7,0.6,1,1.4,1,2.5V17c0,0.4,0.2,0.5,0.5,0.5h0.8v1.5h-1.4c-0.4,0-0.8-0.1-1-0.3c-0.3-0.2-0.4-0.5-0.4-0.9
		v-0.1H196c-0.1,0.2-0.2,0.4-0.4,0.6c-0.2,0.2-0.5,0.4-0.8,0.6S193.9,19.3,193.3,19.3z M193.6,17.8c0.7,0,1.3-0.2,1.8-0.6
		c0.5-0.4,0.7-1,0.7-1.8v-0.2h-2.6c-0.5,0-0.9,0.1-1.2,0.3c-0.3,0.2-0.4,0.5-0.4,0.9s0.2,0.7,0.5,1C192.6,17.7,193,17.8,193.6,17.8z
		"/>
	<path class="st0" d="M203.6,19.1c-0.5,0-1-0.2-1.3-0.5c-0.3-0.3-0.5-0.8-0.5-1.3v-5.5h-2.4v-1.6h2.4V7.3h1.9v2.9h2.6v1.6h-2.6V17
		c0,0.4,0.2,0.5,0.5,0.5h1.9v1.6H203.6z"/>
	<path class="st0" d="M209.5,9c-0.4,0-0.7-0.1-0.9-0.4c-0.2-0.2-0.4-0.5-0.4-0.9s0.1-0.7,0.4-0.9s0.5-0.4,0.9-0.4
		c0.4,0,0.7,0.1,0.9,0.4s0.4,0.5,0.4,0.9s-0.1,0.7-0.4,0.9C210.2,8.9,209.9,9,209.5,9z M208.5,19.1v-8.9h1.9v8.9H208.5z"/>
	<path class="st0" d="M217.3,19.3c-0.9,0-1.7-0.2-2.4-0.5c-0.7-0.4-1.2-0.9-1.6-1.6c-0.4-0.7-0.6-1.5-0.6-2.4v-0.3
		c0-0.9,0.2-1.7,0.6-2.4c0.4-0.7,0.9-1.2,1.6-1.6c0.7-0.4,1.5-0.6,2.4-0.6c0.9,0,1.7,0.2,2.4,0.6c0.7,0.4,1.2,0.9,1.6,1.6
		c0.4,0.7,0.6,1.5,0.6,2.4v0.3c0,0.9-0.2,1.7-0.6,2.4c-0.4,0.7-0.9,1.2-1.6,1.6C219,19.2,218.2,19.3,217.3,19.3z M217.3,17.7
		c0.8,0,1.5-0.3,2-0.8c0.5-0.5,0.8-1.2,0.8-2.2v-0.2c0-0.9-0.3-1.6-0.8-2.2c-0.5-0.5-1.2-0.8-2-0.8c-0.8,0-1.5,0.3-2,0.8
		s-0.8,1.2-0.8,2.2v0.2c0,0.9,0.3,1.6,0.8,2.2S216.5,17.7,217.3,17.7z"/>
	<path class="st0" d="M224.2,19.1v-8.9h1.8v1.3h0.3c0.2-0.4,0.5-0.7,0.9-1s1.1-0.5,1.9-0.5c0.7,0,1.3,0.2,1.8,0.5
		c0.5,0.3,0.9,0.7,1.2,1.3c0.3,0.5,0.5,1.2,0.5,2v5.3h-1.9v-5.2c0-0.8-0.2-1.3-0.6-1.7c-0.4-0.4-0.9-0.5-1.6-0.5
		c-0.8,0-1.4,0.3-1.8,0.8c-0.5,0.5-0.7,1.2-0.7,2.2v4.5H224.2z"/>
	<path class="st0" d="M32.2,40.7l3.6-12.6h3.4l3.6,12.6h-2l-0.8-3H35l-0.8,3H32.2z M35.5,35.9h4l-1.8-6.6h-0.3L35.5,35.9z"/>
	<path class="st0" d="M48.2,40.9c-1.1,0-2.1-0.3-2.8-0.8c-0.7-0.5-1.2-1.3-1.4-2.3l1.7-0.4c0.1,0.5,0.3,0.9,0.5,1.2
		c0.2,0.3,0.5,0.5,0.9,0.6c0.3,0.1,0.7,0.2,1.1,0.2c0.6,0,1-0.1,1.4-0.3c0.3-0.2,0.5-0.5,0.5-0.9c0-0.4-0.2-0.6-0.5-0.8
		s-0.7-0.3-1.3-0.4l-0.6-0.1c-0.6-0.1-1.1-0.3-1.6-0.5s-0.9-0.5-1.2-0.8c-0.3-0.4-0.4-0.8-0.4-1.4c0-0.8,0.3-1.5,0.9-2
		c0.6-0.5,1.5-0.7,2.5-0.7c1,0,1.8,0.2,2.5,0.7c0.6,0.5,1.1,1.1,1.3,1.8l-1.7,0.5c-0.1-0.5-0.3-0.9-0.7-1.1
		c-0.3-0.2-0.8-0.3-1.3-0.3c-0.5,0-0.9,0.1-1.2,0.3c-0.3,0.2-0.4,0.4-0.4,0.8c0,0.4,0.1,0.6,0.4,0.8s0.7,0.3,1.1,0.4l0.6,0.1
		c0.6,0.1,1.2,0.3,1.7,0.5c0.5,0.2,0.9,0.5,1.3,0.8c0.3,0.4,0.5,0.8,0.5,1.4c0,0.9-0.3,1.6-1,2.1C50.2,40.7,49.3,40.9,48.2,40.9z"/>
	<path class="st0" d="M57.7,40.9c-1.1,0-2.1-0.3-2.8-0.8c-0.7-0.5-1.2-1.3-1.4-2.3l1.7-0.4c0.1,0.5,0.3,0.9,0.5,1.2
		c0.2,0.3,0.5,0.5,0.9,0.6c0.3,0.1,0.7,0.2,1.1,0.2c0.6,0,1-0.1,1.4-0.3c0.3-0.2,0.5-0.5,0.5-0.9c0-0.4-0.2-0.6-0.5-0.8
		s-0.7-0.3-1.3-0.4l-0.6-0.1c-0.6-0.1-1.1-0.3-1.6-0.5s-0.9-0.5-1.2-0.8c-0.3-0.4-0.4-0.8-0.4-1.4c0-0.8,0.3-1.5,0.9-2
		c0.6-0.5,1.5-0.7,2.5-0.7c1,0,1.8,0.2,2.5,0.7c0.6,0.5,1.1,1.1,1.3,1.8l-1.7,0.5c-0.1-0.5-0.3-0.9-0.7-1.1
		c-0.3-0.2-0.8-0.3-1.3-0.3c-0.5,0-0.9,0.1-1.2,0.3c-0.3,0.2-0.4,0.4-0.4,0.8c0,0.4,0.1,0.6,0.4,0.8s0.7,0.3,1.1,0.4l0.6,0.1
		c0.6,0.1,1.2,0.3,1.7,0.5c0.5,0.2,0.9,0.5,1.3,0.8c0.3,0.4,0.5,0.8,0.5,1.4c0,0.9-0.3,1.6-1,2.1C59.7,40.7,58.8,40.9,57.7,40.9z"/>
	<path class="st0" d="M67.5,40.9c-0.9,0-1.7-0.2-2.4-0.6c-0.7-0.4-1.2-0.9-1.6-1.6c-0.4-0.7-0.6-1.5-0.6-2.4v-0.2
		c0-0.9,0.2-1.7,0.6-2.4c0.4-0.7,0.9-1.2,1.6-1.6c0.7-0.4,1.4-0.6,2.3-0.6c0.9,0,1.6,0.2,2.2,0.6c0.6,0.4,1.1,0.9,1.5,1.6
		c0.4,0.7,0.5,1.5,0.5,2.4v0.7h-6.8c0,0.8,0.3,1.4,0.8,1.9c0.5,0.5,1.1,0.7,1.9,0.7c0.7,0,1.2-0.2,1.6-0.5c0.4-0.3,0.6-0.7,0.8-1.1
		l1.5,0.8c-0.2,0.3-0.4,0.7-0.7,1.1c-0.3,0.4-0.7,0.7-1.3,0.9S68.3,40.9,67.5,40.9z M64.9,35.3h4.9c0-0.7-0.3-1.2-0.7-1.6
		s-1-0.6-1.7-0.6c-0.7,0-1.3,0.2-1.7,0.6C65.3,34.1,65,34.7,64.9,35.3z"/>
	<path class="st0" d="M77.6,40.9c-1.1,0-2.1-0.3-2.8-0.8c-0.7-0.5-1.2-1.3-1.4-2.3l1.7-0.4c0.1,0.5,0.3,0.9,0.5,1.2
		c0.2,0.3,0.5,0.5,0.9,0.6c0.3,0.1,0.7,0.2,1.1,0.2c0.6,0,1-0.1,1.4-0.3c0.3-0.2,0.5-0.5,0.5-0.9c0-0.4-0.2-0.6-0.5-0.8
		s-0.7-0.3-1.3-0.4l-0.6-0.1c-0.6-0.1-1.1-0.3-1.6-0.5s-0.9-0.5-1.2-0.8c-0.3-0.4-0.4-0.8-0.4-1.4c0-0.8,0.3-1.5,0.9-2
		c0.6-0.5,1.5-0.7,2.5-0.7c1,0,1.8,0.2,2.5,0.7c0.6,0.5,1.1,1.1,1.3,1.8l-1.7,0.5c-0.1-0.5-0.3-0.9-0.7-1.1
		c-0.3-0.2-0.8-0.3-1.3-0.3c-0.5,0-0.9,0.1-1.2,0.3c-0.3,0.2-0.4,0.4-0.4,0.8c0,0.4,0.1,0.6,0.4,0.8s0.7,0.3,1.1,0.4l0.6,0.1
		c0.6,0.1,1.2,0.3,1.7,0.5c0.5,0.2,0.9,0.5,1.3,0.8c0.3,0.4,0.5,0.8,0.5,1.4c0,0.9-0.3,1.6-1,2.1C79.6,40.7,78.7,40.9,77.6,40.9z"/>
	<path class="st0" d="M87.1,40.9c-1.1,0-2.1-0.3-2.8-0.8c-0.7-0.5-1.2-1.3-1.4-2.3l1.7-0.4c0.1,0.5,0.3,0.9,0.5,1.2
		c0.2,0.3,0.5,0.5,0.9,0.6c0.3,0.1,0.7,0.2,1.1,0.2c0.6,0,1-0.1,1.4-0.3c0.3-0.2,0.5-0.5,0.5-0.9c0-0.4-0.2-0.6-0.5-0.8
		s-0.7-0.3-1.3-0.4l-0.6-0.1c-0.6-0.1-1.1-0.3-1.6-0.5s-0.9-0.5-1.2-0.8c-0.3-0.4-0.4-0.8-0.4-1.4c0-0.8,0.3-1.5,0.9-2
		c0.6-0.5,1.5-0.7,2.5-0.7c1,0,1.8,0.2,2.5,0.7c0.6,0.5,1.1,1.1,1.3,1.8l-1.7,0.5c-0.1-0.5-0.3-0.9-0.7-1.1
		c-0.3-0.2-0.8-0.3-1.3-0.3c-0.5,0-0.9,0.1-1.2,0.3c-0.3,0.2-0.4,0.4-0.4,0.8c0,0.4,0.1,0.6,0.4,0.8s0.7,0.3,1.1,0.4l0.6,0.1
		c0.6,0.1,1.2,0.3,1.7,0.5c0.5,0.2,0.9,0.5,1.3,0.8c0.3,0.4,0.5,0.8,0.5,1.4c0,0.9-0.3,1.6-1,2.1C89.1,40.7,88.2,40.9,87.1,40.9z"/>
	<path class="st0" d="M92.9,40.7v-8.9h1.8v1H95c0.2-0.3,0.4-0.6,0.8-0.8c0.4-0.2,0.9-0.4,1.5-0.4c0.7,0,1.2,0.1,1.6,0.4
		c0.4,0.3,0.7,0.6,0.9,1h0.3c0.2-0.4,0.5-0.8,0.9-1c0.4-0.3,0.9-0.4,1.7-0.4c0.6,0,1.1,0.1,1.5,0.4c0.4,0.2,0.8,0.6,1.1,1
		c0.3,0.5,0.4,1,0.4,1.7v5.9h-1.9v-5.8c0-0.5-0.1-1-0.4-1.3s-0.7-0.4-1.3-0.4c-0.6,0-1,0.2-1.4,0.6c-0.3,0.4-0.5,0.9-0.5,1.6v5.3
		h-1.9v-5.8c0-0.5-0.1-1-0.4-1.3s-0.7-0.4-1.3-0.4c-0.6,0-1,0.2-1.4,0.6c-0.3,0.4-0.5,0.9-0.5,1.6v5.3H92.9z"/>
	<path class="st0" d="M112.4,40.9c-0.9,0-1.7-0.2-2.4-0.6c-0.7-0.4-1.2-0.9-1.6-1.6c-0.4-0.7-0.6-1.5-0.6-2.4v-0.2
		c0-0.9,0.2-1.7,0.6-2.4c0.4-0.7,0.9-1.2,1.6-1.6c0.7-0.4,1.4-0.6,2.3-0.6c0.9,0,1.6,0.2,2.2,0.6c0.6,0.4,1.1,0.9,1.5,1.6
		c0.4,0.7,0.5,1.5,0.5,2.4v0.7h-6.8c0,0.8,0.3,1.4,0.8,1.9c0.5,0.5,1.1,0.7,1.9,0.7c0.7,0,1.2-0.2,1.6-0.5c0.4-0.3,0.6-0.7,0.8-1.1
		l1.5,0.8c-0.2,0.3-0.4,0.7-0.7,1.1c-0.3,0.4-0.7,0.7-1.3,0.9S113.2,40.9,112.4,40.9z M109.8,35.3h4.9c0-0.7-0.3-1.2-0.7-1.6
		s-1-0.6-1.7-0.6c-0.7,0-1.3,0.2-1.7,0.6C110.1,34.1,109.9,34.7,109.8,35.3z"/>
	<path class="st0" d="M118.8,40.7v-8.9h1.8v1.3h0.3c0.2-0.4,0.5-0.7,0.9-1c0.4-0.3,1.1-0.5,1.9-0.5c0.7,0,1.3,0.1,1.8,0.4
		c0.5,0.3,0.9,0.7,1.2,1.3c0.3,0.5,0.5,1.2,0.5,2v5.3h-1.9v-5.2c0-0.8-0.2-1.3-0.6-1.7s-0.9-0.5-1.6-0.5c-0.8,0-1.4,0.3-1.8,0.8
		s-0.7,1.2-0.7,2.2v4.5H118.8z"/>
	<path class="st0" d="M133,40.7c-0.5,0-1-0.2-1.3-0.5c-0.3-0.3-0.5-0.8-0.5-1.3v-5.5h-2.4v-1.6h2.4v-2.9h1.9v2.9h2.6v1.6h-2.6v5.2
		c0,0.4,0.2,0.5,0.5,0.5h1.9v1.6H133z"/>
	<path class="st0" d="M144.9,40.7V29.8H141v-1.8h9.7v1.8h-3.9v10.8H144.9z"/>
	<path class="st0" d="M155,40.9c-0.9,0-1.7-0.2-2.4-0.5c-0.7-0.4-1.2-0.9-1.6-1.6c-0.4-0.7-0.6-1.5-0.6-2.4v-0.3
		c0-0.9,0.2-1.7,0.6-2.4c0.4-0.7,0.9-1.2,1.6-1.6c0.7-0.4,1.5-0.6,2.4-0.6c0.9,0,1.7,0.2,2.4,0.6c0.7,0.4,1.2,0.9,1.6,1.6
		c0.4,0.7,0.6,1.5,0.6,2.4v0.3c0,0.9-0.2,1.7-0.6,2.4c-0.4,0.7-0.9,1.2-1.6,1.6C156.6,40.8,155.8,40.9,155,40.9z M155,39.3
		c0.8,0,1.5-0.3,2-0.8c0.5-0.5,0.8-1.2,0.8-2.2v-0.2c0-0.9-0.3-1.6-0.8-2.2c-0.5-0.5-1.2-0.8-2-0.8c-0.8,0-1.5,0.3-2,0.8
		c-0.5,0.5-0.8,1.2-0.8,2.2v0.2c0,0.9,0.3,1.6,0.8,2.2C153.5,39,154.2,39.3,155,39.3z"/>
	<path class="st0" d="M166,40.9c-0.9,0-1.7-0.2-2.4-0.5c-0.7-0.4-1.2-0.9-1.6-1.6c-0.4-0.7-0.6-1.5-0.6-2.4v-0.3
		c0-0.9,0.2-1.7,0.6-2.4c0.4-0.7,0.9-1.2,1.6-1.6c0.7-0.4,1.5-0.6,2.4-0.6c0.9,0,1.7,0.2,2.4,0.6c0.7,0.4,1.2,0.9,1.6,1.6
		c0.4,0.7,0.6,1.5,0.6,2.4v0.3c0,0.9-0.2,1.7-0.6,2.4c-0.4,0.7-0.9,1.2-1.6,1.6C167.7,40.8,166.9,40.9,166,40.9z M166,39.3
		c0.8,0,1.5-0.3,2-0.8c0.5-0.5,0.8-1.2,0.8-2.2v-0.2c0-0.9-0.3-1.6-0.8-2.2c-0.5-0.5-1.2-0.8-2-0.8c-0.8,0-1.5,0.3-2,0.8
		c-0.5,0.5-0.8,1.2-0.8,2.2v0.2c0,0.9,0.3,1.6,0.8,2.2C164.6,39,165.2,39.3,166,39.3z"/>
	<path class="st0" d="M172.9,40.7V28.1h1.9v12.6H172.9z"/>
</g>
<g>
	<g>
		<path class="st0" d="M33.1-31.5v-12.6h5.3c0.8,0,1.5,0.1,2.1,0.4s1.1,0.7,1.4,1.2c0.3,0.5,0.5,1.1,0.5,1.8v0.2
			c0,0.8-0.2,1.4-0.6,1.9c-0.4,0.5-0.8,0.8-1.4,1v0.3c0.5,0,0.8,0.2,1.1,0.5c0.3,0.3,0.4,0.7,0.4,1.2v4.2h-2v-3.9
			c0-0.3-0.1-0.6-0.3-0.8c-0.2-0.2-0.4-0.3-0.8-0.3h-3.8v5H33.1z M35.1-38.2h3.1c0.7,0,1.2-0.2,1.6-0.5c0.4-0.4,0.6-0.8,0.6-1.4
			v-0.1c0-0.6-0.2-1.1-0.6-1.4c-0.4-0.4-0.9-0.5-1.6-0.5h-3.1V-38.2z"/>
		<path class="st0" d="M48.6-31.2c-0.9,0-1.7-0.2-2.4-0.6c-0.7-0.4-1.2-0.9-1.6-1.6s-0.6-1.5-0.6-2.4V-36c0-0.9,0.2-1.7,0.6-2.4
			c0.4-0.7,0.9-1.2,1.6-1.6s1.4-0.6,2.3-0.6c0.9,0,1.6,0.2,2.2,0.6c0.6,0.4,1.1,0.9,1.5,1.6c0.4,0.7,0.5,1.5,0.5,2.4v0.7H46
			c0,0.8,0.3,1.4,0.8,1.9c0.5,0.5,1.1,0.7,1.9,0.7c0.7,0,1.2-0.2,1.6-0.5s0.6-0.7,0.8-1.1l1.5,0.8c-0.2,0.3-0.4,0.7-0.7,1.1
			c-0.3,0.4-0.7,0.7-1.3,0.9S49.4-31.2,48.6-31.2z M46-36.8H51c0-0.7-0.3-1.2-0.7-1.6s-1-0.6-1.7-0.6c-0.7,0-1.3,0.2-1.7,0.6
			C46.4-38,46.1-37.5,46-36.8z"/>
		<path class="st0" d="M58.7-31.2c-1.1,0-2.1-0.3-2.8-0.8c-0.7-0.5-1.2-1.3-1.4-2.3l1.7-0.4c0.1,0.5,0.3,0.9,0.5,1.2
			c0.2,0.3,0.5,0.5,0.9,0.6c0.3,0.1,0.7,0.2,1.1,0.2c0.6,0,1-0.1,1.4-0.3c0.3-0.2,0.5-0.5,0.5-0.9c0-0.4-0.2-0.6-0.5-0.8
			s-0.7-0.3-1.3-0.4l-0.6-0.1c-0.6-0.1-1.1-0.3-1.6-0.5s-0.9-0.5-1.2-0.8c-0.3-0.4-0.4-0.8-0.4-1.4c0-0.8,0.3-1.5,0.9-2
			c0.6-0.5,1.5-0.7,2.5-0.7c1,0,1.8,0.2,2.5,0.7c0.6,0.5,1.1,1.1,1.3,1.8l-1.7,0.5c-0.1-0.5-0.3-0.9-0.7-1.1s-0.8-0.3-1.3-0.3
			c-0.5,0-0.9,0.1-1.2,0.3c-0.3,0.2-0.4,0.4-0.4,0.8c0,0.4,0.1,0.6,0.4,0.8s0.7,0.3,1.1,0.4l0.6,0.1c0.6,0.1,1.2,0.3,1.7,0.4
			c0.5,0.2,0.9,0.5,1.3,0.8c0.3,0.4,0.5,0.8,0.5,1.4c0,0.9-0.3,1.6-1,2.1C60.7-31.5,59.8-31.2,58.7-31.2z"/>
		<path class="st0" d="M64.5-27.9v-12.5h1.8v1.3h0.3c0.2-0.4,0.6-0.7,1-1.1c0.5-0.3,1.1-0.5,2-0.5c0.7,0,1.4,0.2,2,0.5
			s1.1,0.9,1.5,1.6c0.4,0.7,0.6,1.5,0.6,2.5v0.3c0,1-0.2,1.8-0.6,2.5c-0.4,0.7-0.9,1.2-1.5,1.6c-0.6,0.4-1.3,0.5-2.1,0.5
			c-0.6,0-1.1-0.1-1.5-0.2c-0.4-0.1-0.7-0.3-1-0.5c-0.2-0.2-0.4-0.5-0.6-0.7h-0.3v4.8H64.5z M69.1-32.8c0.8,0,1.5-0.3,2-0.8
			c0.5-0.5,0.8-1.3,0.8-2.2V-36c0-0.9-0.3-1.7-0.8-2.2c-0.5-0.5-1.2-0.8-2-0.8c-0.8,0-1.4,0.3-2,0.8c-0.5,0.5-0.8,1.2-0.8,2.2v0.2
			c0,1,0.3,1.7,0.8,2.2C67.7-33.1,68.3-32.8,69.1-32.8z"/>
		<path class="st0" d="M80.2-31.2c-0.9,0-1.7-0.2-2.4-0.5c-0.7-0.4-1.2-0.9-1.6-1.6c-0.4-0.7-0.6-1.5-0.6-2.4V-36
			c0-0.9,0.2-1.7,0.6-2.4c0.4-0.7,0.9-1.2,1.6-1.6c0.7-0.4,1.5-0.6,2.4-0.6c0.9,0,1.7,0.2,2.4,0.6c0.7,0.4,1.2,0.9,1.6,1.6
			c0.4,0.7,0.6,1.5,0.6,2.4v0.3c0,0.9-0.2,1.7-0.6,2.4c-0.4,0.7-0.9,1.2-1.6,1.6C81.9-31.4,81.1-31.2,80.2-31.2z M80.2-32.9
			c0.8,0,1.5-0.3,2-0.8c0.5-0.5,0.8-1.2,0.8-2.2V-36c0-0.9-0.3-1.6-0.8-2.2c-0.5-0.5-1.2-0.8-2-0.8c-0.8,0-1.5,0.3-2,0.8
			s-0.8,1.2-0.8,2.2v0.2c0,0.9,0.3,1.6,0.8,2.2S79.4-32.9,80.2-32.9z"/>
		<path class="st0" d="M87.1-31.5v-8.9H89v1.3h0.3c0.2-0.4,0.5-0.7,0.9-1s1.1-0.5,1.9-0.5c0.7,0,1.3,0.2,1.8,0.5
			c0.5,0.3,0.9,0.7,1.2,1.3c0.3,0.5,0.5,1.2,0.5,2v5.3h-1.9v-5.2c0-0.8-0.2-1.3-0.6-1.7c-0.4-0.4-0.9-0.5-1.6-0.5
			c-0.8,0-1.4,0.3-1.8,0.8C89.2-37.6,89-36.9,89-36v4.5H87.1z"/>
		<path class="st0" d="M101.8-31.2c-1.1,0-2.1-0.3-2.8-0.8c-0.7-0.5-1.2-1.3-1.4-2.3l1.7-0.4c0.1,0.5,0.3,0.9,0.5,1.2
			c0.2,0.3,0.5,0.5,0.9,0.6c0.3,0.1,0.7,0.2,1.1,0.2c0.6,0,1-0.1,1.4-0.3c0.3-0.2,0.5-0.5,0.5-0.9c0-0.4-0.2-0.6-0.5-0.8
			s-0.7-0.3-1.3-0.4l-0.6-0.1c-0.6-0.1-1.1-0.3-1.6-0.5s-0.9-0.5-1.2-0.8C98.2-36.9,98-37.4,98-38c0-0.8,0.3-1.5,0.9-2
			c0.6-0.5,1.5-0.7,2.5-0.7c1,0,1.8,0.2,2.5,0.7c0.6,0.5,1.1,1.1,1.3,1.8l-1.7,0.5c-0.1-0.5-0.3-0.9-0.7-1.1s-0.8-0.3-1.3-0.3
			c-0.5,0-0.9,0.1-1.2,0.3c-0.3,0.2-0.4,0.4-0.4,0.8c0,0.4,0.1,0.6,0.4,0.8s0.7,0.3,1.1,0.4l0.6,0.1c0.6,0.1,1.2,0.3,1.7,0.4
			c0.5,0.2,0.9,0.5,1.3,0.8c0.3,0.4,0.5,0.8,0.5,1.4c0,0.9-0.3,1.6-1,2.1C103.8-31.5,103-31.2,101.8-31.2z"/>
		<path class="st0" d="M108.6-41.6c-0.4,0-0.7-0.1-0.9-0.4c-0.2-0.2-0.4-0.5-0.4-0.9s0.1-0.7,0.4-0.9s0.5-0.4,0.9-0.4
			c0.4,0,0.7,0.1,0.9,0.4s0.4,0.5,0.4,0.9s-0.1,0.7-0.4,0.9C109.3-41.7,109-41.6,108.6-41.6z M107.7-31.5v-8.9h1.9v8.9H107.7z"/>
		<path class="st0" d="M117.4-31.2c-0.9,0-1.5-0.2-2-0.5c-0.5-0.3-0.8-0.7-1-1h-0.3v1.3h-1.8v-12.6h1.9v4.9h0.3
			c0.1-0.2,0.3-0.5,0.6-0.7s0.6-0.4,1-0.5c0.4-0.1,0.9-0.2,1.5-0.2c0.7,0,1.4,0.2,2.1,0.5s1.1,0.9,1.5,1.6s0.6,1.5,0.6,2.4v0.3
			c0,1-0.2,1.8-0.6,2.5c-0.4,0.7-0.9,1.2-1.5,1.6C118.8-31.4,118.1-31.2,117.4-31.2z M116.9-32.8c0.8,0,1.5-0.3,2-0.8
			c0.5-0.5,0.8-1.3,0.8-2.2V-36c0-0.9-0.3-1.7-0.8-2.2c-0.5-0.5-1.2-0.8-2-0.8c-0.8,0-1.4,0.3-2,0.8c-0.5,0.5-0.8,1.2-0.8,2.2v0.2
			c0,1,0.3,1.7,0.8,2.2C115.4-33.1,116.1-32.8,116.9-32.8z"/>
		<path class="st0" d="M123.8-31.5v-12.6h1.9v12.6H123.8z"/>
		<path class="st0" d="M132.5-31.2c-0.9,0-1.7-0.2-2.4-0.6c-0.7-0.4-1.2-0.9-1.6-1.6s-0.6-1.5-0.6-2.4V-36c0-0.9,0.2-1.7,0.6-2.4
			c0.4-0.7,0.9-1.2,1.6-1.6s1.4-0.6,2.3-0.6c0.9,0,1.6,0.2,2.2,0.6c0.6,0.4,1.1,0.9,1.5,1.6c0.4,0.7,0.5,1.5,0.5,2.4v0.7h-6.8
			c0,0.8,0.3,1.4,0.8,1.9c0.5,0.5,1.1,0.7,1.9,0.7c0.7,0,1.2-0.2,1.6-0.5s0.6-0.7,0.8-1.1l1.5,0.8c-0.2,0.3-0.4,0.7-0.7,1.1
			c-0.3,0.4-0.7,0.7-1.3,0.9S133.3-31.2,132.5-31.2z M129.9-36.8h4.9c0-0.7-0.3-1.2-0.7-1.6s-1-0.6-1.7-0.6c-0.7,0-1.3,0.2-1.7,0.6
			C130.2-38,130-37.5,129.9-36.8z"/>
		<path class="st0" d="M143.5-31.5v-12.6h1.9v12.6H143.5z"/>
		<path class="st0" d="M148.1-31.5v-8.9h1.8v1.3h0.3c0.2-0.4,0.5-0.7,0.9-1s1.1-0.5,1.9-0.5c0.7,0,1.3,0.2,1.8,0.5
			c0.5,0.3,0.9,0.7,1.2,1.3c0.3,0.5,0.5,1.2,0.5,2v5.3h-1.9v-5.2c0-0.8-0.2-1.3-0.6-1.7c-0.4-0.4-0.9-0.5-1.6-0.5
			c-0.8,0-1.4,0.3-1.8,0.8c-0.5,0.5-0.7,1.2-0.7,2.2v4.5H148.1z"/>
		<path class="st0" d="M159.2-31.5v-8.9h1.8v1.3h0.3c0.2-0.4,0.5-0.7,0.9-1s1.1-0.5,1.9-0.5c0.7,0,1.3,0.2,1.8,0.5
			c0.5,0.3,0.9,0.7,1.2,1.3c0.3,0.5,0.5,1.2,0.5,2v5.3h-1.9v-5.2c0-0.8-0.2-1.3-0.6-1.7c-0.4-0.4-0.9-0.5-1.6-0.5
			c-0.8,0-1.4,0.3-1.8,0.8c-0.5,0.5-0.7,1.2-0.7,2.2v4.5H159.2z"/>
		<path class="st0" d="M174.4-31.2c-0.9,0-1.7-0.2-2.4-0.5c-0.7-0.4-1.2-0.9-1.6-1.6c-0.4-0.7-0.6-1.5-0.6-2.4V-36
			c0-0.9,0.2-1.7,0.6-2.4c0.4-0.7,0.9-1.2,1.6-1.6c0.7-0.4,1.5-0.6,2.4-0.6c0.9,0,1.7,0.2,2.4,0.6c0.7,0.4,1.2,0.9,1.6,1.6
			c0.4,0.7,0.6,1.5,0.6,2.4v0.3c0,0.9-0.2,1.7-0.6,2.4c-0.4,0.7-0.9,1.2-1.6,1.6C176.1-31.4,175.3-31.2,174.4-31.2z M174.4-32.9
			c0.8,0,1.5-0.3,2-0.8c0.5-0.5,0.8-1.2,0.8-2.2V-36c0-0.9-0.3-1.6-0.8-2.2c-0.5-0.5-1.2-0.8-2-0.8c-0.8,0-1.5,0.3-2,0.8
			s-0.8,1.2-0.8,2.2v0.2c0,0.9,0.3,1.6,0.8,2.2S173.6-32.9,174.4-32.9z"/>
		<path class="st0" d="M183.3-31.5l-3-8.9h2l2.4,7.5h0.3l2.4-7.5h2l-3,8.9H183.3z"/>
		<path class="st0" d="M193.8-31.2c-0.6,0-1.2-0.1-1.7-0.3c-0.5-0.2-0.9-0.5-1.2-1c-0.3-0.4-0.4-0.9-0.4-1.5c0-0.6,0.1-1.1,0.4-1.5
			c0.3-0.4,0.7-0.7,1.2-0.9c0.5-0.2,1.1-0.3,1.7-0.3h2.7v-0.6c0-0.5-0.2-0.9-0.5-1.2c-0.3-0.3-0.8-0.5-1.4-0.5
			c-0.6,0-1.1,0.2-1.5,0.5s-0.6,0.7-0.7,1.2l-1.7-0.6c0.1-0.5,0.4-0.9,0.7-1.3c0.3-0.4,0.7-0.7,1.3-0.9c0.5-0.2,1.2-0.4,1.9-0.4
			c1.2,0,2.1,0.3,2.7,0.9c0.7,0.6,1,1.4,1,2.5v3.7c0,0.4,0.2,0.5,0.5,0.5h0.8v1.5h-1.4c-0.4,0-0.8-0.1-1-0.3
			c-0.3-0.2-0.4-0.5-0.4-0.9v-0.1h-0.3c-0.1,0.2-0.2,0.4-0.4,0.6c-0.2,0.2-0.5,0.4-0.8,0.6S194.5-31.2,193.8-31.2z M194.1-32.7
			c0.7,0,1.3-0.2,1.8-0.6c0.5-0.4,0.7-1,0.7-1.8v-0.2H194c-0.5,0-0.9,0.1-1.2,0.3c-0.3,0.2-0.4,0.5-0.4,0.9s0.2,0.7,0.5,1
			C193.1-32.9,193.6-32.7,194.1-32.7z"/>
		<path class="st0" d="M204.8-31.5c-0.5,0-1-0.2-1.3-0.5c-0.3-0.3-0.5-0.8-0.5-1.3v-5.5h-2.4v-1.6h2.4v-2.9h1.9v2.9h2.6v1.6h-2.6
			v5.2c0,0.4,0.2,0.5,0.5,0.5h1.9v1.6H204.8z"/>
		<path class="st0" d="M210.7-41.6c-0.4,0-0.7-0.1-0.9-0.4c-0.2-0.2-0.4-0.5-0.4-0.9s0.1-0.7,0.4-0.9s0.5-0.4,0.9-0.4
			c0.4,0,0.7,0.1,0.9,0.4s0.4,0.5,0.4,0.9s-0.1,0.7-0.4,0.9C211.3-41.7,211-41.6,210.7-41.6z M209.7-31.5v-8.9h1.9v8.9H209.7z"/>
		<path class="st0" d="M218.5-31.2c-0.9,0-1.7-0.2-2.4-0.5c-0.7-0.4-1.2-0.9-1.6-1.6c-0.4-0.7-0.6-1.5-0.6-2.4V-36
			c0-0.9,0.2-1.7,0.6-2.4c0.4-0.7,0.9-1.2,1.6-1.6c0.7-0.4,1.5-0.6,2.4-0.6c0.9,0,1.7,0.2,2.4,0.6c0.7,0.4,1.2,0.9,1.6,1.6
			c0.4,0.7,0.6,1.5,0.6,2.4v0.3c0,0.9-0.2,1.7-0.6,2.4c-0.4,0.7-0.9,1.2-1.6,1.6C220.2-31.4,219.4-31.2,218.5-31.2z M218.5-32.9
			c0.8,0,1.5-0.3,2-0.8c0.5-0.5,0.8-1.2,0.8-2.2V-36c0-0.9-0.3-1.6-0.8-2.2c-0.5-0.5-1.2-0.8-2-0.8c-0.8,0-1.5,0.3-2,0.8
			s-0.8,1.2-0.8,2.2v0.2c0,0.9,0.3,1.6,0.8,2.2S217.7-32.9,218.5-32.9z"/>
		<path class="st0" d="M225.4-31.5v-8.9h1.8v1.3h0.3c0.2-0.4,0.5-0.7,0.9-1s1.1-0.5,1.9-0.5c0.7,0,1.3,0.2,1.8,0.5
			c0.5,0.3,0.9,0.7,1.2,1.3c0.3,0.5,0.5,1.2,0.5,2v5.3h-1.9v-5.2c0-0.8-0.2-1.3-0.6-1.7c-0.4-0.4-0.9-0.5-1.6-0.5
			c-0.8,0-1.4,0.3-1.8,0.8c-0.5,0.5-0.7,1.2-0.7,2.2v4.5H225.4z"/>
		<path class="st0" d="M32.2-9.9l3.6-12.6h3.4l3.6,12.6h-2l-0.8-3H35l-0.8,3H32.2z M35.5-14.6h4l-1.8-6.6h-0.3L35.5-14.6z"/>
		<path class="st0" d="M48.2-9.6c-1.1,0-2.1-0.3-2.8-0.8c-0.7-0.5-1.2-1.3-1.4-2.3l1.7-0.4c0.1,0.5,0.3,0.9,0.5,1.2
			c0.2,0.3,0.5,0.5,0.9,0.6c0.3,0.1,0.7,0.2,1.1,0.2c0.6,0,1-0.1,1.4-0.3c0.3-0.2,0.5-0.5,0.5-0.9c0-0.4-0.2-0.6-0.5-0.8
			s-0.7-0.3-1.3-0.4l-0.6-0.1c-0.6-0.1-1.1-0.3-1.6-0.5s-0.9-0.5-1.2-0.8c-0.3-0.4-0.4-0.8-0.4-1.4c0-0.8,0.3-1.5,0.9-2
			s1.5-0.7,2.5-0.7c1,0,1.8,0.2,2.5,0.7c0.6,0.5,1.1,1.1,1.3,1.8L49.8-16c-0.1-0.5-0.3-0.9-0.7-1.1c-0.3-0.2-0.8-0.3-1.3-0.3
			c-0.5,0-0.9,0.1-1.2,0.3c-0.3,0.2-0.4,0.4-0.4,0.8c0,0.4,0.1,0.6,0.4,0.8s0.7,0.3,1.1,0.4l0.6,0.1c0.6,0.1,1.2,0.3,1.7,0.5
			c0.5,0.2,0.9,0.5,1.3,0.8c0.3,0.4,0.5,0.8,0.5,1.4c0,0.9-0.3,1.6-1,2.1C50.2-9.9,49.3-9.6,48.2-9.6z"/>
		<path class="st0" d="M57.7-9.6c-1.1,0-2.1-0.3-2.8-0.8c-0.7-0.5-1.2-1.3-1.4-2.3l1.7-0.4c0.1,0.5,0.3,0.9,0.5,1.2
			c0.2,0.3,0.5,0.5,0.9,0.6c0.3,0.1,0.7,0.2,1.1,0.2c0.6,0,1-0.1,1.4-0.3c0.3-0.2,0.5-0.5,0.5-0.9c0-0.4-0.2-0.6-0.5-0.8
			s-0.7-0.3-1.3-0.4l-0.6-0.1c-0.6-0.1-1.1-0.3-1.6-0.5s-0.9-0.5-1.2-0.8c-0.3-0.4-0.4-0.8-0.4-1.4c0-0.8,0.3-1.5,0.9-2
			s1.5-0.7,2.5-0.7c1,0,1.8,0.2,2.5,0.7c0.6,0.5,1.1,1.1,1.3,1.8L59.3-16c-0.1-0.5-0.3-0.9-0.7-1.1c-0.3-0.2-0.8-0.3-1.3-0.3
			c-0.5,0-0.9,0.1-1.2,0.3c-0.3,0.2-0.4,0.4-0.4,0.8c0,0.4,0.1,0.6,0.4,0.8s0.7,0.3,1.1,0.4l0.6,0.1c0.6,0.1,1.2,0.3,1.7,0.5
			c0.5,0.2,0.9,0.5,1.3,0.8c0.3,0.4,0.5,0.8,0.5,1.4c0,0.9-0.3,1.6-1,2.1C59.7-9.9,58.8-9.6,57.7-9.6z"/>
		<path class="st0" d="M67.5-9.6c-0.9,0-1.7-0.2-2.4-0.6c-0.7-0.4-1.2-0.9-1.6-1.6c-0.4-0.7-0.6-1.5-0.6-2.4v-0.2
			c0-0.9,0.2-1.7,0.6-2.4c0.4-0.7,0.9-1.2,1.6-1.6s1.4-0.6,2.3-0.6c0.9,0,1.6,0.2,2.2,0.6c0.6,0.4,1.1,0.9,1.5,1.6
			c0.4,0.7,0.5,1.5,0.5,2.4v0.7h-6.8c0,0.8,0.3,1.4,0.8,1.9c0.5,0.5,1.1,0.7,1.9,0.7c0.7,0,1.2-0.2,1.6-0.5c0.4-0.3,0.6-0.7,0.8-1.1
			l1.5,0.8c-0.2,0.3-0.4,0.7-0.7,1.1c-0.3,0.4-0.7,0.7-1.3,0.9S68.3-9.6,67.5-9.6z M64.9-15.2h4.9c0-0.7-0.3-1.2-0.7-1.6
			s-1-0.6-1.7-0.6c-0.7,0-1.3,0.2-1.7,0.6C65.3-16.4,65-15.9,64.9-15.2z"/>
		<path class="st0" d="M77.6-9.6c-1.1,0-2.1-0.3-2.8-0.8c-0.7-0.5-1.2-1.3-1.4-2.3l1.7-0.4c0.1,0.5,0.3,0.9,0.5,1.2
			c0.2,0.3,0.5,0.5,0.9,0.6c0.3,0.1,0.7,0.2,1.1,0.2c0.6,0,1-0.1,1.4-0.3c0.3-0.2,0.5-0.5,0.5-0.9c0-0.4-0.2-0.6-0.5-0.8
			s-0.7-0.3-1.3-0.4l-0.6-0.1c-0.6-0.1-1.1-0.3-1.6-0.5s-0.9-0.5-1.2-0.8c-0.3-0.4-0.4-0.8-0.4-1.4c0-0.8,0.3-1.5,0.9-2
			s1.5-0.7,2.5-0.7c1,0,1.8,0.2,2.5,0.7c0.6,0.5,1.1,1.1,1.3,1.8L79.2-16c-0.1-0.5-0.3-0.9-0.7-1.1c-0.3-0.2-0.8-0.3-1.3-0.3
			c-0.5,0-0.9,0.1-1.2,0.3c-0.3,0.2-0.4,0.4-0.4,0.8c0,0.4,0.1,0.6,0.4,0.8s0.7,0.3,1.1,0.4l0.6,0.1c0.6,0.1,1.2,0.3,1.7,0.5
			c0.5,0.2,0.9,0.5,1.3,0.8c0.3,0.4,0.5,0.8,0.5,1.4c0,0.9-0.3,1.6-1,2.1C79.6-9.9,78.7-9.6,77.6-9.6z"/>
		<path class="st0" d="M87.1-9.6c-1.1,0-2.1-0.3-2.8-0.8c-0.7-0.5-1.2-1.3-1.4-2.3l1.7-0.4c0.1,0.5,0.3,0.9,0.5,1.2
			c0.2,0.3,0.5,0.5,0.9,0.6c0.3,0.1,0.7,0.2,1.1,0.2c0.6,0,1-0.1,1.4-0.3c0.3-0.2,0.5-0.5,0.5-0.9c0-0.4-0.2-0.6-0.5-0.8
			s-0.7-0.3-1.3-0.4l-0.6-0.1c-0.6-0.1-1.1-0.3-1.6-0.5S84-14.6,83.7-15c-0.3-0.4-0.4-0.8-0.4-1.4c0-0.8,0.3-1.5,0.9-2
			s1.5-0.7,2.5-0.7c1,0,1.8,0.2,2.5,0.7c0.6,0.5,1.1,1.1,1.3,1.8L88.7-16c-0.1-0.5-0.3-0.9-0.7-1.1c-0.3-0.2-0.8-0.3-1.3-0.3
			c-0.5,0-0.9,0.1-1.2,0.3c-0.3,0.2-0.4,0.4-0.4,0.8c0,0.4,0.1,0.6,0.4,0.8s0.7,0.3,1.1,0.4l0.6,0.1c0.6,0.1,1.2,0.3,1.7,0.5
			c0.5,0.2,0.9,0.5,1.3,0.8c0.3,0.4,0.5,0.8,0.5,1.4c0,0.9-0.3,1.6-1,2.1C89.1-9.9,88.2-9.6,87.1-9.6z"/>
		<path class="st0" d="M92.9-9.9v-8.9h1.8v1H95c0.2-0.3,0.4-0.6,0.8-0.8c0.4-0.2,0.9-0.4,1.5-0.4c0.7,0,1.2,0.1,1.6,0.4
			c0.4,0.3,0.7,0.6,0.9,1h0.3c0.2-0.4,0.5-0.8,0.9-1c0.4-0.3,0.9-0.4,1.7-0.4c0.6,0,1.1,0.1,1.5,0.4s0.8,0.6,1.1,1
			c0.3,0.5,0.4,1,0.4,1.7v5.9h-1.9v-5.8c0-0.5-0.1-1-0.4-1.3s-0.7-0.4-1.3-0.4c-0.6,0-1,0.2-1.4,0.6c-0.3,0.4-0.5,0.9-0.5,1.6v5.3
			h-1.9v-5.8c0-0.5-0.1-1-0.4-1.3s-0.7-0.4-1.3-0.4c-0.6,0-1,0.2-1.4,0.6c-0.3,0.4-0.5,0.9-0.5,1.6v5.3H92.9z"/>
		<path class="st0" d="M112.4-9.6c-0.9,0-1.7-0.2-2.4-0.6c-0.7-0.4-1.2-0.9-1.6-1.6c-0.4-0.7-0.6-1.5-0.6-2.4v-0.2
			c0-0.9,0.2-1.7,0.6-2.4c0.4-0.7,0.9-1.2,1.6-1.6s1.4-0.6,2.3-0.6c0.9,0,1.6,0.2,2.2,0.6c0.6,0.4,1.1,0.9,1.5,1.6
			c0.4,0.7,0.5,1.5,0.5,2.4v0.7h-6.8c0,0.8,0.3,1.4,0.8,1.9c0.5,0.5,1.1,0.7,1.9,0.7c0.7,0,1.2-0.2,1.6-0.5c0.4-0.3,0.6-0.7,0.8-1.1
			l1.5,0.8c-0.2,0.3-0.4,0.7-0.7,1.1c-0.3,0.4-0.7,0.7-1.3,0.9S113.2-9.6,112.4-9.6z M109.8-15.2h4.9c0-0.7-0.3-1.2-0.7-1.6
			s-1-0.6-1.7-0.6c-0.7,0-1.3,0.2-1.7,0.6C110.1-16.4,109.9-15.9,109.8-15.2z"/>
		<path class="st0" d="M118.8-9.9v-8.9h1.8v1.3h0.3c0.2-0.4,0.5-0.7,0.9-1c0.4-0.3,1.1-0.5,1.9-0.5c0.7,0,1.3,0.1,1.8,0.4
			c0.5,0.3,0.9,0.7,1.2,1.3c0.3,0.5,0.5,1.2,0.5,2v5.3h-1.9v-5.2c0-0.8-0.2-1.3-0.6-1.7s-0.9-0.5-1.6-0.5c-0.8,0-1.4,0.3-1.8,0.8
			s-0.7,1.2-0.7,2.2v4.5H118.8z"/>
		<path class="st0" d="M133.2-9.9c-0.5,0-1-0.2-1.3-0.5c-0.3-0.3-0.5-0.8-0.5-1.3v-5.5H129v-1.6h2.4v-2.9h1.9v2.9h2.6v1.6h-2.6v5.2
			c0,0.4,0.2,0.5,0.5,0.5h1.9v1.6H133.2z"/>
		<path class="st0" d="M145.7-9.9v-10.8h-3.9v-1.8h9.7v1.8h-3.9v10.8H145.7z"/>
		<path class="st0" d="M157.5-9.6c-0.9,0-1.7-0.2-2.4-0.5c-0.7-0.4-1.2-0.9-1.6-1.6c-0.4-0.7-0.6-1.5-0.6-2.4v-0.3
			c0-0.9,0.2-1.7,0.6-2.4c0.4-0.7,0.9-1.2,1.6-1.6c0.7-0.4,1.5-0.6,2.4-0.6c0.9,0,1.7,0.2,2.4,0.6c0.7,0.4,1.2,0.9,1.6,1.6
			c0.4,0.7,0.6,1.5,0.6,2.4v0.3c0,0.9-0.2,1.7-0.6,2.4c-0.4,0.7-0.9,1.2-1.6,1.6C159.1-9.8,158.3-9.6,157.5-9.6z M157.5-11.3
			c0.8,0,1.5-0.3,2-0.8c0.5-0.5,0.8-1.2,0.8-2.2v-0.2c0-0.9-0.3-1.6-0.8-2.2c-0.5-0.5-1.2-0.8-2-0.8c-0.8,0-1.5,0.3-2,0.8
			c-0.5,0.5-0.8,1.2-0.8,2.2v0.2c0,0.9,0.3,1.6,0.8,2.2C156-11.5,156.7-11.3,157.5-11.3z"/>
		<path class="st0" d="M168.5-9.6c-0.9,0-1.7-0.2-2.4-0.5c-0.7-0.4-1.2-0.9-1.6-1.6c-0.4-0.7-0.6-1.5-0.6-2.4v-0.3
			c0-0.9,0.2-1.7,0.6-2.4c0.4-0.7,0.9-1.2,1.6-1.6c0.7-0.4,1.5-0.6,2.4-0.6c0.9,0,1.7,0.2,2.4,0.6c0.7,0.4,1.2,0.9,1.6,1.6
			c0.4,0.7,0.6,1.5,0.6,2.4v0.3c0,0.9-0.2,1.7-0.6,2.4c-0.4,0.7-0.9,1.2-1.6,1.6C170.2-9.8,169.4-9.6,168.5-9.6z M168.5-11.3
			c0.8,0,1.5-0.3,2-0.8c0.5-0.5,0.8-1.2,0.8-2.2v-0.2c0-0.9-0.3-1.6-0.8-2.2c-0.5-0.5-1.2-0.8-2-0.8c-0.8,0-1.5,0.3-2,0.8
			c-0.5,0.5-0.8,1.2-0.8,2.2v0.2c0,0.9,0.3,1.6,0.8,2.2C167.1-11.5,167.7-11.3,168.5-11.3z"/>
		<path class="st0" d="M175.4-9.9v-12.6h1.9v12.6H175.4z"/>
	</g>
</g>
<g>
	<path d="M32.9,60.8V53H34v3c0.1-0.2,0.3-0.3,0.6-0.5s0.7-0.3,1.1-0.3c0.6,0,1,0.1,1.4,0.4s0.7,0.6,0.9,1c0.2,0.4,0.3,0.9,0.3,1.5
		c0,0.6-0.1,1.1-0.4,1.6c-0.3,0.5-0.6,0.8-1.1,1.1c-0.5,0.3-1,0.4-1.6,0.4c-0.5,0-0.9,0-1.3-0.1C33.5,61,33.2,60.9,32.9,60.8z
		 M34,57.8v2.2c0.1,0,0.2,0.1,0.4,0.1s0.4,0.1,0.7,0.1c0.6,0,1.1-0.2,1.5-0.6c0.4-0.4,0.6-0.9,0.6-1.5c0-0.3-0.1-0.7-0.2-1
		s-0.3-0.5-0.5-0.7c-0.2-0.2-0.5-0.3-0.9-0.3c-0.3,0-0.6,0.1-0.9,0.2c-0.2,0.2-0.4,0.4-0.5,0.6C34.1,57.3,34,57.6,34,57.8z"/>
	<path d="M38.8,63.1l0.5-0.8c0.1,0.1,0.2,0.1,0.3,0.2c0.1,0.1,0.2,0.1,0.4,0.1c0.3,0,0.4-0.1,0.6-0.3s0.3-0.6,0.5-1l0.1-0.4
		l-2.5-5.5h1.2l1.8,4.2l1.6-4.2h1.2l-2.2,5.4c-0.1,0.2-0.2,0.5-0.3,0.8c-0.1,0.3-0.2,0.6-0.4,0.9c-0.2,0.3-0.3,0.5-0.6,0.7
		c-0.2,0.2-0.5,0.3-0.9,0.3c-0.3,0-0.5,0-0.7-0.1C39.1,63.3,38.9,63.2,38.8,63.1z"/>
	<path d="M47.6,61v-8h1.2v8H47.6z"/>
	<path d="M50.6,61v-8h1.2l4.4,6.3V53h1.1v8h-1.2l-4.4-6.3V61H50.6z"/>
	<path d="M59,61v-8h5v1h-3.9v2.3h2.9v1h-2.9V60h4.2v1H59z"/>
	<path d="M65.2,59.8L66,59c0.2,0.2,0.3,0.3,0.5,0.5s0.4,0.3,0.7,0.4c0.3,0.1,0.6,0.2,0.9,0.2c0.5,0,0.9-0.1,1.2-0.4s0.4-0.6,0.4-1
		c0-0.4-0.2-0.8-0.5-1c-0.3-0.2-0.8-0.4-1.5-0.5c-0.7-0.1-1.2-0.4-1.7-0.8s-0.6-0.9-0.6-1.5c0-0.4,0.1-0.8,0.3-1.1
		c0.2-0.3,0.5-0.6,0.9-0.8c0.4-0.2,0.9-0.3,1.5-0.3c0.5,0,1,0.1,1.3,0.2s0.6,0.3,0.8,0.5c0.2,0.2,0.3,0.3,0.4,0.4L70,54.6
		c-0.1-0.1-0.2-0.2-0.3-0.3c-0.2-0.1-0.3-0.2-0.6-0.3c-0.2-0.1-0.5-0.2-0.9-0.2c-0.3,0-0.6,0.1-0.8,0.2c-0.2,0.1-0.4,0.3-0.5,0.4
		c-0.1,0.2-0.2,0.3-0.2,0.5c0,0.4,0.2,0.7,0.5,0.9c0.3,0.2,0.8,0.4,1.4,0.5c0.4,0.1,0.8,0.2,1.1,0.4c0.4,0.2,0.7,0.4,0.9,0.8
		c0.2,0.3,0.3,0.8,0.3,1.3c0,0.5-0.1,0.9-0.4,1.2c-0.2,0.4-0.6,0.6-1,0.8s-0.9,0.3-1.4,0.3c-0.5,0-0.9-0.1-1.3-0.2
		c-0.4-0.1-0.7-0.3-1-0.5C65.6,60.2,65.3,60,65.2,59.8z"/>
	<path d="M78.4,58.9l0.8,0.7c-0.1,0.2-0.3,0.4-0.6,0.7c-0.3,0.3-0.6,0.5-1.1,0.7c-0.4,0.2-0.9,0.3-1.5,0.3c-0.8,0-1.5-0.2-2.1-0.5
		c-0.6-0.4-1.1-0.9-1.4-1.5s-0.5-1.3-0.5-2.1c0-0.6,0.1-1.1,0.3-1.6s0.5-1,0.8-1.3c0.4-0.4,0.8-0.7,1.3-0.9s1-0.3,1.6-0.3
		c0.6,0,1.1,0.1,1.5,0.3s0.7,0.4,1,0.6s0.5,0.5,0.6,0.7l-0.8,0.7c-0.1-0.2-0.3-0.4-0.5-0.6c-0.2-0.2-0.4-0.4-0.7-0.5
		c-0.3-0.1-0.6-0.2-1.1-0.2c-0.6,0-1.1,0.1-1.5,0.4s-0.7,0.7-1,1.1c-0.2,0.5-0.3,1-0.3,1.6c0,0.6,0.1,1.1,0.3,1.6
		c0.2,0.5,0.6,0.8,1,1.1c0.4,0.3,0.9,0.4,1.5,0.4c0.5,0,0.9-0.1,1.2-0.2s0.5-0.3,0.7-0.5C78.1,59.2,78.3,59,78.4,58.9z"/>
	<path d="M84.9,61v-7h-2.9v-1h6.9v1h-2.9v7H84.9z"/>
	<path d="M90.1,61v-8h5v1h-3.9v2.3h2.9v1h-2.9V60h4.2v1H90.1z"/>
	<path d="M102.4,58.9l0.8,0.7c-0.1,0.2-0.3,0.4-0.6,0.7c-0.3,0.3-0.6,0.5-1.1,0.7c-0.4,0.2-0.9,0.3-1.5,0.3c-0.8,0-1.5-0.2-2.1-0.5
		c-0.6-0.4-1.1-0.9-1.4-1.5s-0.5-1.3-0.5-2.1c0-0.6,0.1-1.1,0.3-1.6s0.5-1,0.8-1.3c0.4-0.4,0.8-0.7,1.3-0.9s1-0.3,1.6-0.3
		c0.6,0,1.1,0.1,1.5,0.3s0.7,0.4,1,0.6s0.5,0.5,0.6,0.7l-0.8,0.7c-0.1-0.2-0.3-0.4-0.5-0.6c-0.2-0.2-0.4-0.4-0.7-0.5
		c-0.3-0.1-0.6-0.2-1.1-0.2c-0.6,0-1.1,0.1-1.5,0.4s-0.7,0.7-1,1.1c-0.2,0.5-0.3,1-0.3,1.6c0,0.6,0.1,1.1,0.3,1.6
		c0.2,0.5,0.6,0.8,1,1.1c0.4,0.3,0.9,0.4,1.5,0.4c0.5,0,0.9-0.1,1.2-0.2s0.5-0.3,0.7-0.5C102.2,59.2,102.3,59,102.4,58.9z"/>
</g>
<text transform="matrix(1 0 0 1 32.2016 84.2793)" style="font-family:'Effra-Regular'; font-size:12px;">by INESC TEC</text>
<image style="overflow:visible;" width="1248" height="400" xlink:href="logo_draft01.png"  transform="matrix(0.2617 0 0 0.2617 -486.6093 102.0383)">
</image>
<path class="st1" d="M13.6,6.5L13.6,6.5c4.2,0,7.9,2,9.9,5.3c2,3.2,2.2,7.2,0.5,10.8c-0.1,0.3,0,0.6,0.2,0.7c0.1,0,0.1,0,0.2,0
	c0.2,0,0.4-0.1,0.5-0.3c1-2,1.4-4.1,1.2-6.2c-0.1-2-0.7-3.9-1.8-5.6c-2.3-3.6-6.3-5.7-10.7-5.8h-0.1c-4.2,0-7.9,1.9-10.3,5.2
	C1,14.1,0.4,18.5,1.9,22.4c0.1,0.3,0.4,0.4,0.7,0.3c0.3-0.1,0.4-0.4,0.3-0.7C1.5,18.4,2,14.4,4.2,11.3C6.3,8.2,9.7,6.5,13.6,6.5
	L13.6,6.5z M19.9,35c0,0.9-0.6,1.7-1.5,2c0.2,0.3,0.4,0.7,0.4,1.2c0,1.2-0.9,2.1-2.1,2.1h-6.6C9,40.3,8,39.3,8,38.2
	c0-0.4,0.1-0.9,0.4-1.2c-0.8-0.3-1.5-1.1-1.5-2c0-1.2,0.9-2.1,2.1-2.1h1.4v-8.5l-2.2-2C8.1,22.3,8,22.2,8,22.1v-2.7
	c-0.9-0.2-1.5-1-1.5-2c0-1.1,0.9-2.1,2.1-2.1s2.1,0.9,2.1,2.1c0,1-0.7,1.8-1.5,2v2.5l2.2,2c0.1,0.1,0.2,0.2,0.2,0.4v8.7h1.5V17
	c-0.9-0.2-1.5-1-1.5-2c0-1.1,0.9-2.1,2.1-2.1s2.1,0.9,2.1,2.1c0,1-0.7,1.8-1.5,2v15.9h1.5v-8.7c0-0.1,0.1-0.3,0.2-0.4l2.2-2v-2.5
	c-0.9-0.2-1.5-1-1.5-2c0-1.1,0.9-2.1,2.1-2.1s2.1,0.9,2.1,2.1c0,1-0.7,1.8-1.5,2v2.7c0,0.1-0.1,0.3-0.2,0.4l-2.2,2v8.5h1.4
	C19,32.9,19.9,33.8,19.9,35L19.9,35z M18.3,18.4c0.6,0,1-0.5,1-1c0-0.6-0.5-1-1-1c-0.6,0-1,0.5-1,1C17.3,18,17.8,18.4,18.3,18.4z
	 M13.4,16c0.6,0,1-0.5,1-1c0-0.6-0.5-1-1-1c-0.6,0-1,0.5-1,1C12.4,15.6,12.9,16,13.4,16z M8.5,18.4c0.6,0,1-0.5,1-1c0-0.6-0.5-1-1-1
	s-1,0.5-1,1C7.5,18,8,18.4,8.5,18.4z M17.8,38.2c0-0.6-0.5-1.1-1.1-1.1h-6.6c-0.6,0-1.1,0.5-1.1,1.1c0,0.6,0.5,1.1,1.1,1.1h6.6
	C17.3,39.3,17.8,38.8,17.8,38.2z M18.9,35c0-0.6-0.5-1.1-1.1-1.1H9C8.4,33.9,8,34.4,8,35c0,0.6,0.5,1.1,1.1,1.1h8.8
	C18.4,36.1,18.9,35.6,18.9,35z"/>
</svg>
