<?xml version="1.0" encoding="UTF-8"?>
<svg id="Layer_1" data-name="Layer 1" xmlns="http://www.w3.org/2000/svg" viewBox="0 0 242.52 64">
  <defs>
    <style>
      .cls-1 {
        opacity: .15;
      }

      .cls-1, .cls-2, .cls-3, .cls-4 {
        stroke-width: 0px;
      }

      .cls-1, .cls-3 {
        fill: #fff;
      }

      .cls-5 {
        fill: #e4eff2;
      }

      .cls-5, .cls-6 {
        stroke: #008bbe;
        stroke-miterlimit: 10;
        stroke-width: .75px;
      }

      .cls-4, .cls-6 {
        fill: #008bbe;
      }
    </style>
  </defs>
  <path class="cls-5" d="m31.53,14.47h0c-4.03-5.53-12.95-7.42-18.7-3.98-3.25,2.05-5.23,5.62-5.24,9.47,0,.25.03.51.06.76.06.31.06.63.02.94-.36.81-.91,1.53-1.6,2.09-.14.14-.28.27-.46.46h0c-.46.43-.73,1.03-.75,1.66.1,1.04.83,1.9,1.83,2.17.11.05.22.09.32.14-.03.06-.07.14-.1.2h0c-.31.44-.38,1.01-.2,1.51.17.36.47.65.83.83-.21.26-.35.58-.4.91-.07.49.09.98.44,1.33-.01.11-.03.22-.06.32-.26.93-.03,1.93.6,2.67.57.61,1.41.88,2.22.71.59-.1,1.14-.17,1.63-.24h0c.25-.03.5.04.68.21.2.18.31.45.31.72l-.06,2c0,.2.07.39.2.53.14.14.32.23.52.23h13.37c.2,0,.38-.09.52-.23.14-.14.21-.34.2-.53-.02-.78-.08-1.57-.15-2.24h0c-.17-1.46.29-2.92,1.26-4.02,4.34-4.87,6.76-13.05,2.72-18.6Z"/>
  <g>
    <path class="cls-4" d="m40.02,19.08V6.48h5.29c.78,0,1.47.14,2.06.41s1.06.66,1.39,1.16c.33.5.5,1.1.5,1.8v.2c0,.79-.19,1.43-.57,1.9-.38.47-.84.81-1.38,1v.29c.46.02.82.18,1.1.46.28.28.41.69.41,1.22v4.18h-1.96v-3.91c0-.32-.08-.58-.25-.77-.17-.19-.44-.29-.81-.29h-3.83v4.97h-1.94Zm1.94-6.73h3.13c.7,0,1.24-.18,1.62-.53.38-.35.58-.84.58-1.45v-.14c0-.61-.19-1.09-.57-1.45-.38-.35-.92-.53-1.63-.53h-3.13v4.1Z"/>
    <path class="cls-4" d="m55.52,19.33c-.9,0-1.69-.19-2.36-.57s-1.2-.91-1.58-1.6-.57-1.49-.57-2.4v-.22c0-.92.19-1.73.56-2.42.37-.69.89-1.22,1.56-1.6s1.44-.57,2.31-.57,1.6.19,2.24.57c.64.38,1.14.9,1.5,1.58.36.67.54,1.46.54,2.36v.7h-6.82c.02.78.29,1.4.78,1.86.5.46,1.12.69,1.86.69.7,0,1.22-.16,1.58-.47s.63-.67.82-1.08l1.53.79c-.17.34-.41.69-.73,1.06-.32.37-.74.68-1.25.94s-1.18.38-1.98.38Zm-2.59-5.6h4.91c-.05-.67-.29-1.2-.72-1.57s-1-.57-1.69-.57-1.26.19-1.7.57c-.44.38-.71.9-.8,1.57Z"/>
    <path class="cls-4" d="m65.6,19.33c-1.13,0-2.06-.25-2.81-.76-.74-.5-1.2-1.27-1.37-2.29l1.73-.41c.1.49.26.88.49,1.17.23.29.51.49.86.61.34.12.71.18,1.11.18.59,0,1.04-.11,1.36-.34.32-.23.48-.52.48-.88s-.15-.62-.45-.79-.74-.31-1.33-.41l-.61-.11c-.6-.11-1.15-.26-1.64-.47s-.88-.49-1.17-.85c-.29-.36-.43-.82-.43-1.39,0-.84.31-1.49.94-1.95.62-.46,1.45-.69,2.48-.69s1.81.23,2.46.67c.64.45,1.06,1.06,1.25,1.83l-1.73.49c-.11-.54-.34-.92-.68-1.14s-.78-.33-1.3-.33-.9.09-1.19.28c-.29.19-.43.45-.43.78,0,.36.14.62.42.79s.66.29,1.14.38l.63.11c.64.11,1.22.26,1.75.45.53.19.94.47,1.25.83.31.36.46.84.46,1.44,0,.89-.33,1.58-.99,2.07-.66.49-1.55.74-2.66.74Z"/>
    <path class="cls-4" d="m71.41,22.68v-12.47h1.82v1.28h.29c.23-.4.57-.75,1.04-1.06.46-.31,1.12-.47,1.99-.47.74,0,1.42.18,2.04.54s1.12.88,1.49,1.56c.38.68.57,1.5.57,2.46v.27c0,.96-.19,1.78-.56,2.46-.37.68-.87,1.2-1.49,1.56s-1.31.54-2.05.54c-.58,0-1.06-.07-1.46-.22-.4-.14-.71-.33-.95-.55-.24-.22-.43-.45-.58-.69h-.29v4.81h-1.85Zm4.59-4.97c.82,0,1.48-.26,2-.77.52-.52.77-1.25.77-2.21v-.16c0-.95-.26-1.68-.78-2.2-.52-.52-1.19-.77-1.99-.77s-1.45.26-1.97.77c-.52.52-.78,1.25-.78,2.2v.16c0,.96.26,1.7.78,2.21.52.52,1.18.77,1.97.77Z"/>
    <path class="cls-4" d="m87.11,19.33c-.89,0-1.68-.18-2.37-.55-.69-.37-1.23-.89-1.63-1.58-.4-.68-.59-1.49-.59-2.43v-.27c0-.94.2-1.74.59-2.42.4-.68.94-1.2,1.63-1.57.69-.37,1.48-.56,2.37-.56s1.68.19,2.38.56c.7.37,1.24.9,1.64,1.57.4.68.59,1.49.59,2.42v.27c0,.94-.2,1.75-.59,2.43-.4.68-.94,1.21-1.64,1.58-.7.37-1.49.55-2.38.55Zm0-1.66c.82,0,1.48-.26,1.99-.78.51-.52.77-1.24.77-2.17v-.16c0-.92-.25-1.65-.76-2.17-.5-.52-1.17-.78-2-.78s-1.46.26-1.97.78-.76,1.25-.76,2.17v.16c0,.92.25,1.65.76,2.17s1.17.78,1.97.78Z"/>
    <path class="cls-4" d="m94.02,19.08v-8.87h1.82v1.33h.29c.17-.36.47-.7.9-1.01s1.07-.47,1.93-.47c.67,0,1.27.15,1.79.45.52.3.93.72,1.23,1.27.3.55.45,1.2.45,1.97v5.33h-1.85v-5.18c0-.77-.19-1.33-.58-1.7-.38-.37-.91-.55-1.58-.55-.77,0-1.38.25-1.84.76-.46.5-.69,1.24-.69,2.2v4.48h-1.85Z"/>
    <path class="cls-4" d="m108.72,19.33c-1.13,0-2.06-.25-2.81-.76-.74-.5-1.2-1.27-1.37-2.29l1.73-.41c.1.49.26.88.49,1.17.23.29.51.49.86.61.34.12.71.18,1.11.18.59,0,1.04-.11,1.36-.34.32-.23.48-.52.48-.88s-.15-.62-.45-.79-.74-.31-1.33-.41l-.61-.11c-.6-.11-1.15-.26-1.64-.47s-.88-.49-1.17-.85c-.29-.36-.43-.82-.43-1.39,0-.84.31-1.49.94-1.95.62-.46,1.45-.69,2.48-.69s1.81.23,2.46.67c.64.45,1.06,1.06,1.25,1.83l-1.73.49c-.11-.54-.34-.92-.68-1.14s-.78-.33-1.3-.33-.9.09-1.19.28c-.29.19-.43.45-.43.78,0,.36.14.62.42.79s.66.29,1.14.38l.63.11c.64.11,1.22.26,1.75.45.53.19.94.47,1.25.83.31.36.46.84.46,1.44,0,.89-.33,1.58-.99,2.07-.66.49-1.55.74-2.66.74Z"/>
    <path class="cls-4" d="m115.47,9c-.36,0-.66-.12-.91-.35-.25-.23-.37-.54-.37-.91s.12-.68.37-.91.55-.35.91-.35.68.12.92.35.36.54.36.91-.12.67-.36.91c-.24.23-.55.35-.92.35Zm-.94,10.08v-8.87h1.85v8.87h-1.85Z"/>
    <path class="cls-4" d="m124.27,19.33c-.86,0-1.53-.16-1.99-.47-.46-.31-.81-.66-1.04-1.04h-.29v1.26h-1.82V6.48h1.85v4.93h.29c.14-.24.34-.47.58-.69s.56-.41.95-.55c.4-.14.88-.22,1.46-.22.74,0,1.43.18,2.05.54s1.12.88,1.49,1.57.56,1.5.56,2.45v.27c0,.96-.19,1.78-.57,2.46-.38.68-.88,1.2-1.49,1.56s-1.3.54-2.04.54Zm-.54-1.62c.8,0,1.47-.26,1.99-.77.52-.52.78-1.25.78-2.21v-.16c0-.95-.26-1.68-.77-2.2-.52-.52-1.18-.77-2-.77s-1.45.26-1.97.77c-.52.52-.78,1.25-.78,2.2v.16c0,.96.26,1.7.78,2.21.52.52,1.18.77,1.97.77Z"/>
    <path class="cls-4" d="m130.68,19.08V6.48h1.85v12.6h-1.85Z"/>
    <path class="cls-4" d="m139.36,19.33c-.9,0-1.69-.19-2.36-.57s-1.2-.91-1.58-1.6-.57-1.49-.57-2.4v-.22c0-.92.19-1.73.56-2.42.37-.69.89-1.22,1.56-1.6s1.44-.57,2.31-.57,1.6.19,2.24.57c.64.38,1.14.9,1.5,1.58.36.67.54,1.46.54,2.36v.7h-6.82c.02.78.29,1.4.78,1.86.5.46,1.12.69,1.86.69.7,0,1.22-.16,1.58-.47s.63-.67.82-1.08l1.53.79c-.17.34-.41.69-.73,1.06-.32.37-.74.68-1.25.94s-1.18.38-1.98.38Zm-2.59-5.6h4.91c-.05-.67-.29-1.2-.72-1.57s-1-.57-1.69-.57-1.26.19-1.7.57c-.44.38-.71.9-.8,1.57Z"/>
    <path class="cls-4" d="m150.34,19.08V6.48h1.94v12.6h-1.94Z"/>
    <path class="cls-4" d="m154.96,19.08v-8.87h1.82v1.33h.29c.17-.36.47-.7.9-1.01s1.07-.47,1.93-.47c.67,0,1.27.15,1.79.45.52.3.93.72,1.23,1.27.3.55.45,1.2.45,1.97v5.33h-1.85v-5.18c0-.77-.19-1.33-.58-1.7-.38-.37-.91-.55-1.58-.55-.77,0-1.38.25-1.84.76-.46.5-.69,1.24-.69,2.2v4.48h-1.85Z"/>
    <path class="cls-4" d="m166.03,19.08v-8.87h1.82v1.33h.29c.17-.36.47-.7.9-1.01s1.07-.47,1.93-.47c.67,0,1.27.15,1.79.45.52.3.93.72,1.23,1.27.3.55.45,1.2.45,1.97v5.33h-1.85v-5.18c0-.77-.19-1.33-.58-1.7-.38-.37-.91-.55-1.58-.55-.77,0-1.38.25-1.84.76-.46.5-.69,1.24-.69,2.2v4.48h-1.85Z"/>
    <path class="cls-4" d="m181.26,19.33c-.89,0-1.68-.18-2.37-.55-.69-.37-1.23-.89-1.63-1.58-.4-.68-.59-1.49-.59-2.43v-.27c0-.94.2-1.74.59-2.42.4-.68.94-1.2,1.63-1.57.69-.37,1.48-.56,2.37-.56s1.68.19,2.38.56c.7.37,1.24.9,1.64,1.57.4.68.59,1.49.59,2.42v.27c0,.94-.2,1.75-.59,2.43-.4.68-.94,1.21-1.64,1.58-.7.37-1.49.55-2.38.55Zm0-1.66c.82,0,1.48-.26,1.99-.78.51-.52.77-1.24.77-2.17v-.16c0-.92-.25-1.65-.76-2.17-.5-.52-1.17-.78-2-.78s-1.46.26-1.97.78-.76,1.25-.76,2.17v.16c0,.92.25,1.65.76,2.17s1.17.78,1.97.78Z"/>
    <path class="cls-4" d="m189.92,19.08l-2.99-8.87h1.96l2.36,7.51h.29l2.36-7.51h1.96l-2.99,8.87h-2.95Z"/>
    <path class="cls-4" d="m200.16,19.33c-.64,0-1.2-.11-1.7-.32-.5-.22-.89-.53-1.19-.95-.29-.42-.44-.93-.44-1.53s.15-1.12.44-1.52c.29-.4.7-.7,1.21-.91.51-.2,1.09-.31,1.74-.31h2.7v-.58c0-.52-.16-.93-.47-1.24-.31-.31-.79-.47-1.44-.47s-1.12.15-1.46.45-.56.69-.67,1.17l-1.73-.56c.14-.48.38-.91.69-1.3.32-.39.74-.71,1.27-.95.53-.24,1.16-.36,1.91-.36,1.15,0,2.06.29,2.72.88.66.59.99,1.42.99,2.5v3.65c0,.36.17.54.5.54h.76v1.55h-1.39c-.42,0-.76-.11-1.03-.32-.26-.22-.4-.51-.4-.88v-.05h-.27c-.1.18-.24.39-.43.63-.19.24-.47.45-.85.62s-.86.26-1.48.26Zm.27-1.53c.74,0,1.34-.21,1.8-.64.46-.43.68-1.01.68-1.75v-.18h-2.59c-.49,0-.89.11-1.19.31-.3.21-.45.52-.45.93s.16.73.47.97c.31.24.74.36,1.28.36Z"/>
    <path class="cls-4" d="m210.51,19.08c-.54,0-.97-.16-1.29-.49-.32-.32-.48-.76-.48-1.3v-5.53h-2.45v-1.57h2.45v-2.93h1.85v2.93h2.65v1.57h-2.65v5.2c0,.36.17.54.5.54h1.85v1.57h-2.45Z"/>
    <path class="cls-4" d="m216.36,9c-.36,0-.66-.12-.91-.35-.25-.23-.37-.54-.37-.91s.12-.68.37-.91.55-.35.91-.35.68.12.92.35.36.54.36.91-.12.67-.36.91c-.24.23-.55.35-.92.35Zm-.94,10.08v-8.87h1.85v8.87h-1.85Z"/>
    <path class="cls-4" d="m224.19,19.33c-.89,0-1.68-.18-2.37-.55-.69-.37-1.23-.89-1.63-1.58-.4-.68-.59-1.49-.59-2.43v-.27c0-.94.2-1.74.59-2.42.4-.68.94-1.2,1.63-1.57.69-.37,1.48-.56,2.37-.56s1.68.19,2.38.56c.7.37,1.24.9,1.64,1.57.4.68.59,1.49.59,2.42v.27c0,.94-.2,1.75-.59,2.43-.4.68-.94,1.21-1.64,1.58-.7.37-1.49.55-2.38.55Zm0-1.66c.82,0,1.48-.26,1.99-.78.51-.52.77-1.24.77-2.17v-.16c0-.92-.25-1.65-.76-2.17-.5-.52-1.17-.78-2-.78s-1.46.26-1.97.78-.76,1.25-.76,2.17v.16c0,.92.25,1.65.76,2.17s1.17.78,1.97.78Z"/>
    <path class="cls-4" d="m231.1,19.08v-8.87h1.82v1.33h.29c.17-.36.47-.7.9-1.01s1.07-.47,1.93-.47c.67,0,1.27.15,1.79.45.52.3.93.72,1.23,1.27.3.55.45,1.2.45,1.97v5.33h-1.85v-5.18c0-.77-.19-1.33-.58-1.7-.38-.37-.91-.55-1.58-.55-.77,0-1.38.25-1.84.76-.46.5-.69,1.24-.69,2.2v4.48h-1.85Z"/>
    <path class="cls-4" d="m39.08,40.68l3.6-12.6h3.42l3.58,12.6h-2l-.83-2.97h-4.93l-.83,2.97h-2.02Zm3.33-4.77h3.96l-1.84-6.62h-.29l-1.84,6.62Z"/>
    <path class="cls-4" d="m55.08,40.93c-1.13,0-2.06-.25-2.81-.76-.74-.5-1.2-1.27-1.37-2.29l1.73-.41c.1.49.26.88.49,1.17.23.29.51.49.86.61.34.12.71.18,1.11.18.59,0,1.04-.11,1.36-.34.32-.23.48-.52.48-.88s-.15-.62-.45-.79-.74-.31-1.33-.41l-.61-.11c-.6-.11-1.15-.26-1.64-.47s-.88-.49-1.17-.85c-.29-.36-.43-.82-.43-1.39,0-.84.31-1.49.94-1.95s1.45-.69,2.48-.69,1.81.22,2.46.67c.64.45,1.06,1.06,1.25,1.83l-1.73.49c-.11-.54-.34-.92-.68-1.14-.35-.22-.78-.33-1.3-.33s-.9.09-1.19.28c-.29.19-.43.45-.43.78,0,.36.14.62.42.79s.66.29,1.14.38l.63.11c.64.11,1.22.26,1.75.45.53.19.94.47,1.25.83.31.36.46.84.46,1.44,0,.89-.33,1.58-.99,2.07-.66.49-1.55.74-2.66.74Z"/>
    <path class="cls-4" d="m64.53,40.93c-1.13,0-2.06-.25-2.81-.76-.74-.5-1.2-1.27-1.37-2.29l1.73-.41c.1.49.26.88.49,1.17.23.29.51.49.86.61.34.12.71.18,1.11.18.59,0,1.04-.11,1.36-.34.32-.23.48-.52.48-.88s-.15-.62-.45-.79-.74-.31-1.33-.41l-.61-.11c-.6-.11-1.15-.26-1.64-.47s-.88-.49-1.17-.85c-.29-.36-.43-.82-.43-1.39,0-.84.31-1.49.94-1.95s1.45-.69,2.48-.69,1.81.22,2.46.67c.64.45,1.06,1.06,1.25,1.83l-1.73.49c-.11-.54-.34-.92-.68-1.14-.35-.22-.78-.33-1.3-.33s-.9.09-1.19.28c-.29.19-.43.45-.43.78,0,.36.14.62.42.79s.66.29,1.14.38l.63.11c.64.11,1.22.26,1.75.45.53.19.94.47,1.25.83.31.36.46.84.46,1.44,0,.89-.33,1.58-.99,2.07-.66.49-1.55.74-2.66.74Z"/>
    <path class="cls-4" d="m74.41,40.93c-.9,0-1.69-.19-2.36-.57-.67-.38-1.2-.91-1.58-1.6-.38-.69-.57-1.49-.57-2.4v-.22c0-.92.19-1.73.56-2.42.37-.69.89-1.22,1.56-1.6s1.44-.57,2.31-.57,1.6.19,2.24.57c.64.38,1.14.9,1.5,1.57.36.67.54,1.46.54,2.36v.7h-6.82c.02.78.29,1.4.78,1.86.5.46,1.12.69,1.86.69.7,0,1.22-.16,1.58-.47.35-.31.63-.67.82-1.08l1.53.79c-.17.34-.41.69-.73,1.06-.32.37-.74.68-1.25.94s-1.18.38-1.98.38Zm-2.59-5.6h4.91c-.05-.67-.29-1.2-.72-1.58s-1-.57-1.69-.57-1.26.19-1.7.57c-.44.38-.71.9-.8,1.58Z"/>
    <path class="cls-4" d="m84.49,40.93c-1.13,0-2.06-.25-2.81-.76-.74-.5-1.2-1.27-1.37-2.29l1.73-.41c.1.49.26.88.49,1.17.23.29.51.49.86.61.34.12.71.18,1.11.18.59,0,1.04-.11,1.36-.34.32-.23.48-.52.48-.88s-.15-.62-.45-.79-.74-.31-1.33-.41l-.61-.11c-.6-.11-1.15-.26-1.64-.47s-.88-.49-1.17-.85c-.29-.36-.43-.82-.43-1.39,0-.84.31-1.49.94-1.95s1.45-.69,2.48-.69,1.81.22,2.46.67c.64.45,1.06,1.06,1.25,1.83l-1.73.49c-.11-.54-.34-.92-.68-1.14-.35-.22-.78-.33-1.3-.33s-.9.09-1.19.28c-.29.19-.43.45-.43.78,0,.36.14.62.42.79s.66.29,1.14.38l.63.11c.64.11,1.22.26,1.75.45.53.19.94.47,1.25.83.31.36.46.84.46,1.44,0,.89-.33,1.58-.99,2.07-.66.49-1.55.74-2.66.74Z"/>
    <path class="cls-4" d="m93.94,40.93c-1.13,0-2.06-.25-2.81-.76-.74-.5-1.2-1.27-1.37-2.29l1.73-.41c.1.49.26.88.49,1.17.23.29.51.49.86.61.34.12.71.18,1.11.18.59,0,1.04-.11,1.36-.34.32-.23.48-.52.48-.88s-.15-.62-.45-.79-.74-.31-1.33-.41l-.61-.11c-.6-.11-1.15-.26-1.64-.47s-.88-.49-1.17-.85c-.29-.36-.43-.82-.43-1.39,0-.84.31-1.49.94-1.95s1.45-.69,2.48-.69,1.81.22,2.46.67c.64.45,1.06,1.06,1.25,1.83l-1.73.49c-.11-.54-.34-.92-.68-1.14-.35-.22-.78-.33-1.3-.33s-.9.09-1.19.28c-.29.19-.43.45-.43.78,0,.36.14.62.42.79s.66.29,1.14.38l.63.11c.64.11,1.22.26,1.75.45.53.19.94.47,1.25.83.31.36.46.84.46,1.44,0,.89-.33,1.58-.99,2.07-.66.49-1.55.74-2.66.74Z"/>
    <path class="cls-4" d="m99.76,40.68v-8.87h1.82v1.04h.29c.17-.31.44-.59.81-.83.37-.24.88-.36,1.51-.36s1.19.13,1.59.4c.4.27.71.62.91,1.04h.29c.2-.41.5-.75.89-1.03.39-.28.95-.41,1.67-.41.58,0,1.09.12,1.53.35s.8.58,1.06,1.04c.26.46.4,1.04.4,1.72v5.9h-1.85v-5.76c0-.54-.15-.96-.44-1.25s-.71-.44-1.25-.44c-.58,0-1.04.19-1.39.56-.35.37-.52.91-.52,1.6v5.29h-1.85v-5.76c0-.54-.15-.96-.44-1.25s-.71-.44-1.25-.44c-.58,0-1.04.19-1.39.56-.35.37-.52.91-.52,1.6v5.29h-1.85Z"/>
    <path class="cls-4" d="m119.25,40.93c-.9,0-1.69-.19-2.36-.57-.67-.38-1.2-.91-1.58-1.6-.38-.69-.57-1.49-.57-2.4v-.22c0-.92.19-1.73.56-2.42.37-.69.89-1.22,1.56-1.6s1.44-.57,2.31-.57,1.6.19,2.24.57c.64.38,1.14.9,1.5,1.57.36.67.54,1.46.54,2.36v.7h-6.82c.02.78.29,1.4.78,1.86.5.46,1.12.69,1.86.69.7,0,1.22-.16,1.58-.47.35-.31.63-.67.82-1.08l1.53.79c-.17.34-.41.69-.73,1.06-.32.37-.74.68-1.25.94s-1.18.38-1.98.38Zm-2.59-5.6h4.91c-.05-.67-.29-1.2-.72-1.58s-1-.57-1.69-.57-1.26.19-1.7.57c-.44.38-.71.9-.8,1.58Z"/>
    <path class="cls-4" d="m125.7,40.68v-8.87h1.82v1.33h.29c.17-.36.47-.7.9-1.01.43-.31,1.07-.47,1.93-.47.67,0,1.27.15,1.79.45.52.3.93.72,1.23,1.27.3.55.45,1.2.45,1.97v5.33h-1.85v-5.18c0-.77-.19-1.33-.58-1.7s-.91-.55-1.58-.55c-.77,0-1.38.25-1.84.76s-.69,1.24-.69,2.2v4.48h-1.85Z"/>
    <path class="cls-4" d="m139.85,40.68c-.54,0-.97-.16-1.29-.49-.32-.32-.48-.76-.48-1.3v-5.53h-2.45v-1.57h2.45v-2.93h1.85v2.93h2.65v1.57h-2.65v5.2c0,.36.17.54.5.54h1.85v1.57h-2.45Z"/>
    <path class="cls-4" d="m151.8,40.68v-10.84h-3.87v-1.76h9.68v1.76h-3.87v10.84h-1.94Z"/>
    <path class="cls-4" d="m161.84,40.93c-.89,0-1.68-.18-2.37-.55-.69-.37-1.23-.89-1.63-1.58-.4-.68-.59-1.49-.59-2.43v-.27c0-.94.2-1.74.59-2.42.4-.68.94-1.2,1.63-1.58.69-.37,1.48-.56,2.37-.56s1.68.19,2.38.56c.7.37,1.24.9,1.64,1.58.4.68.59,1.49.59,2.42v.27c0,.94-.2,1.75-.59,2.43-.4.68-.94,1.21-1.64,1.58-.7.37-1.49.55-2.38.55Zm0-1.66c.82,0,1.48-.26,1.99-.78.51-.52.77-1.25.77-2.17v-.16c0-.92-.25-1.65-.76-2.17-.5-.52-1.17-.78-2-.78s-1.46.26-1.97.78c-.51.52-.76,1.24-.76,2.17v.16c0,.92.25,1.65.76,2.17.51.52,1.17.78,1.97.78Z"/>
    <path class="cls-4" d="m172.91,40.93c-.89,0-1.68-.18-2.37-.55-.69-.37-1.23-.89-1.63-1.58-.4-.68-.59-1.49-.59-2.43v-.27c0-.94.2-1.74.59-2.42.4-.68.94-1.2,1.63-1.58.69-.37,1.48-.56,2.37-.56s1.68.19,2.38.56c.7.37,1.24.9,1.64,1.58.4.68.59,1.49.59,2.42v.27c0,.94-.2,1.75-.59,2.43-.4.68-.94,1.21-1.64,1.58-.7.37-1.49.55-2.38.55Zm0-1.66c.82,0,1.48-.26,1.99-.78.51-.52.77-1.25.77-2.17v-.16c0-.92-.25-1.65-.76-2.17-.5-.52-1.17-.78-2-.78s-1.46.26-1.97.78c-.51.52-.76,1.24-.76,2.17v.16c0,.92.25,1.65.76,2.17.51.52,1.17.78,1.97.78Z"/>
    <path class="cls-4" d="m179.82,40.68v-12.6h1.85v12.6h-1.85Z"/>
  </g>
  <g>
    <path class="cls-2" d="m39.83,60.8v-7.81h1.08v3.04c.11-.15.31-.31.6-.49s.66-.26,1.13-.26c.55,0,1.02.13,1.4.38s.67.6.86,1.04c.19.44.29.92.29,1.46,0,.58-.13,1.1-.4,1.55-.26.45-.63.81-1.1,1.06-.47.26-1.01.38-1.64.38-.46,0-.88-.04-1.27-.11-.39-.07-.71-.16-.95-.25Zm1.07-2.95v2.22c.11.03.25.07.41.1s.41.05.73.05c.62,0,1.11-.19,1.48-.58.37-.38.56-.87.56-1.46,0-.34-.05-.66-.16-.96s-.28-.54-.52-.72c-.24-.18-.55-.28-.93-.28-.34,0-.63.08-.87.23-.24.15-.41.35-.53.6-.12.25-.17.51-.17.79Z"/>
    <path class="cls-2" d="m45.63,63.11l.49-.76c.08.07.17.14.28.19.1.06.23.08.38.08.26,0,.45-.11.58-.34s.28-.56.46-.99l.14-.36-2.5-5.53h1.24l1.8,4.21,1.58-4.21h1.18l-2.23,5.44c-.1.25-.21.53-.32.83-.11.31-.24.6-.4.89-.15.28-.35.52-.58.7-.24.18-.53.27-.88.27-.28,0-.52-.04-.71-.11-.19-.08-.36-.18-.5-.31Z"/>
    <path class="cls-2" d="m54.47,60.99v-8h1.15v8h-1.15Z"/>
    <path class="cls-2" d="m57.44,60.99v-8h1.16l4.37,6.25v-6.25h1.13v8h-1.15l-4.38-6.26v6.26h-1.13Z"/>
    <path class="cls-2" d="m65.93,60.99v-8h5.04v1.02h-3.89v2.33h2.93v1.03h-2.93v2.59h4.18v1.03h-5.33Z"/>
    <path class="cls-2" d="m72.05,59.79l.82-.74c.15.17.33.34.53.5s.43.31.7.42c.27.11.57.17.92.17.53,0,.94-.12,1.24-.37s.44-.57.44-.97c0-.45-.17-.78-.5-1-.33-.22-.82-.39-1.46-.53-.68-.14-1.23-.41-1.66-.79s-.64-.89-.64-1.52c0-.39.1-.75.3-1.09.2-.33.5-.6.9-.8.4-.2.89-.31,1.48-.31.52,0,.95.07,1.29.21s.61.3.8.47c.19.18.33.32.41.43l-.77.71c-.06-.08-.17-.18-.32-.31-.15-.13-.35-.24-.58-.34-.24-.1-.53-.15-.87-.15s-.61.06-.83.17c-.22.12-.38.26-.48.43-.1.17-.16.35-.16.53,0,.39.16.69.49.88.33.2.8.36,1.4.5.4.09.78.23,1.14.41.36.19.65.45.88.78.23.33.34.77.34,1.31,0,.46-.12.87-.37,1.22-.25.35-.58.63-1.01.83s-.9.31-1.44.31c-.5,0-.94-.07-1.33-.22-.39-.14-.72-.33-1-.55-.28-.22-.5-.43-.67-.64Z"/>
    <path class="cls-2" d="m85.26,58.91l.8.67c-.12.18-.32.4-.6.65-.28.25-.63.47-1.06.66-.42.19-.92.28-1.48.28-.78,0-1.48-.18-2.08-.55-.6-.36-1.07-.86-1.41-1.49s-.5-1.34-.5-2.13c0-.58.1-1.13.29-1.64s.47-.96.82-1.34c.36-.39.78-.69,1.27-.91s1.04-.33,1.64-.33c.57,0,1.06.09,1.46.26s.75.38,1.01.62.48.48.63.7l-.82.7c-.13-.18-.29-.37-.49-.56-.2-.19-.44-.35-.73-.49-.29-.13-.65-.2-1.06-.2-.58,0-1.09.14-1.51.43s-.74.67-.97,1.15c-.23.48-.34,1.01-.34,1.59s.11,1.1.34,1.57c.23.47.55.85.97,1.12.42.28.91.41,1.48.41.48,0,.87-.08,1.18-.23s.55-.32.73-.51c.18-.19.32-.34.43-.45Z"/>
    <path class="cls-2" d="m91.81,60.99v-7h-2.87v-1.01h6.88v1.01h-2.86v7h-1.15Z"/>
    <path class="cls-2" d="m97.02,60.99v-8h5.04v1.02h-3.89v2.33h2.93v1.03h-2.93v2.59h4.18v1.03h-5.33Z"/>
    <path class="cls-2" d="m109.31,58.91l.8.67c-.12.18-.32.4-.6.65-.28.25-.63.47-1.06.66-.42.19-.92.28-1.48.28-.78,0-1.48-.18-2.08-.55-.6-.36-1.07-.86-1.41-1.49s-.5-1.34-.5-2.13c0-.58.1-1.13.29-1.64s.47-.96.82-1.34c.36-.39.78-.69,1.27-.91.49-.22,1.04-.33,1.64-.33.57,0,1.06.09,1.46.26s.75.38,1.01.62.48.48.63.7l-.82.7c-.13-.18-.29-.37-.49-.56-.2-.19-.44-.35-.73-.49-.29-.13-.65-.2-1.06-.2-.58,0-1.09.14-1.51.43s-.74.67-.97,1.15c-.23.48-.34,1.01-.34,1.59s.11,1.1.34,1.57c.23.47.55.85.97,1.12.42.28.91.41,1.48.41.48,0,.87-.08,1.18-.23s.55-.32.73-.51c.18-.19.32-.34.43-.45Z"/>
  </g>
  <path class="cls-6" d="m29.78,12.73h0c-4.03-5.53-12.95-7.42-18.7-3.98-3.25,2.05-5.23,5.62-5.24,9.47,0,.25.03.51.06.76.06.31.06.63.02.94-.36.81-.91,1.53-1.6,2.09-.14.14-.28.27-.46.46h0c-.46.43-.73,1.03-.75,1.66.1,1.04.83,1.9,1.83,2.17.11.05.22.09.32.14-.03.06-.07.14-.1.2h0c-.31.44-.38,1.01-.2,1.51.17.36.47.65.83.83-.21.26-.35.58-.4.91-.07.49.09.98.44,1.33-.01.11-.03.22-.06.32-.26.93-.03,1.93.6,2.67.57.61,1.41.88,2.22.71.59-.1,1.14-.17,1.63-.24h0c.25-.03.5.04.68.21.2.18.31.45.31.72l-.06,2c0,.2.07.39.2.53.14.14.32.23.52.23h13.37c.2,0,.38-.09.52-.23.14-.14.21-.34.2-.53-.02-.78-.08-1.57-.15-2.24h0c-.17-1.46.29-2.92,1.26-4.02,4.34-4.87,6.76-13.05,2.72-18.6Z"/>
  <path class="cls-1" d="m23.17,14.87c-.19-.04-.39.02-.53.16-.81.83-1.76,1.51-2.81,1.99-2.29.74-3.73,1.85-4.39,3.36-.67,1.54-.49,3.46.51,5.71-.39,1.35-.6,2.75-.61,4.16,0,.33.26.6.59.6h0s0,0,0,0c.33,0,.6-.27.6-.59,0-1.23.17-2.45.5-3.63,2.5-.19,4.77-1.57,6.1-3.7,1.45-2.33,1.62-5.23.48-7.72-.08-.18-.24-.31-.44-.35Zm-1.06,7.43c-1.03,1.66-2.74,2.79-4.68,3.08.51-1.39,1.24-2.69,2.16-3.86.1-.12.15-.28.14-.44-.02-.16-.1-.31-.22-.41-.13-.1-.29-.14-.45-.12-.16.02-.31.1-.4.23-.86,1.09-1.56,2.29-2.1,3.57-.43-1.12-.44-2.36-.03-3.49h0c.52-1.19,1.72-2.07,3.66-2.71h0c.97-.39,1.85-.96,2.62-1.67.64,1.95.38,4.08-.7,5.81Z"/>
  <path class="cls-3" d="m22.16,13.86c-.19-.04-.39.02-.53.16-.81.83-1.76,1.51-2.81,1.99-2.29.74-3.73,1.85-4.39,3.36-.67,1.54-.49,3.46.51,5.71-.39,1.35-.6,2.75-.61,4.16,0,.33.26.6.59.6h0s0,0,0,0c.33,0,.6-.27.6-.59,0-1.23.17-2.45.5-3.63,2.5-.19,4.77-1.57,6.1-3.7,1.45-2.33,1.62-5.23.48-7.72-.08-.18-.24-.31-.44-.35Zm-1.06,7.43c-1.03,1.66-2.74,2.79-4.68,3.08.51-1.39,1.24-2.69,2.16-3.86.1-.12.15-.28.14-.44-.02-.16-.1-.31-.22-.41-.13-.1-.29-.14-.45-.12-.16.02-.31.1-.4.23-.86,1.09-1.56,2.29-2.1,3.57-.43-1.12-.44-2.36-.03-3.49h0c.52-1.19,1.72-2.07,3.66-2.71h0c.97-.39,1.85-.96,2.62-1.67.64,1.95.38,4.08-.7,5.81Z"/>
</svg>